SplineFontDB: 3.0
FontName: Mako
FullName: Mako
FamilyName: Mako
Weight: Regular
Copyright: Copyright (c) 2007 by vernon adams. All rights reserved.
Version: 001.001
ItalicAngle: 0
UnderlinePosition: -294
UnderlineWidth: 41
Ascent: 1638
Descent: 410
sfntRevision: 0x00010000
LayerCount: 2
Layer: 0 0 "Back"  1
Layer: 1 0 "Fore"  0
XUID: [1021 216 944074292 2334702]
FSType: 0
OS2Version: 3
OS2_WeightWidthSlopeOnly: 0
OS2_UseTypoMetrics: 1
CreationTime: 1304633400
ModificationTime: 1327443497
PfmFamily: 17
TTFWeight: 400
TTFWidth: 5
LineGap: 0
VLineGap: 0
Panose: 2 0 0 0 0 0 0 0 0 0
OS2TypoAscent: 593
OS2TypoAOffset: 1
OS2TypoDescent: -157
OS2TypoDOffset: 1
OS2TypoLinegap: 0
OS2WinAscent: 0
OS2WinAOffset: 1
OS2WinDescent: 0
OS2WinDOffset: 1
HheadAscent: 0
HheadAOffset: 1
HheadDescent: 0
HheadDOffset: 1
OS2SubXSize: 1331
OS2SubYSize: 1228
OS2SubXOff: 0
OS2SubYOff: 153
OS2SupXSize: 1331
OS2SupYSize: 1228
OS2SupXOff: 0
OS2SupYOff: 716
OS2StrikeYSize: 41
OS2StrikeYPos: 647
OS2Vendor: 'newt'
OS2CodePages: 20000083.00000000
OS2UnicodeRanges: 00000007.00000000.00000000.00000000
Lookup: 258 0 0 "'kern' Horizontal Kerning lookup 0"  {"'kern' Horizontal Kerning lookup 0 subtable"  } ['kern' ('DFLT' <'dflt' > ) ]
MarkAttachClasses: 1
DEI: 91125
LangName: 1033 "" "" "" "vernonadams: Mako: 2007" "" "Version 1.000" "" "Mako is a trademark of vernon adams." "vernon adams" "vernon adams" "Copyright (c) 2007 by vernon adams. All rights reserved." "newtypography.co.uk" "newtypography.co.uk" "" "http://scripts.sil.org/OFL" 
Encoding: UnicodeBmp
Compacted: 1
UnicodeInterp: none
NameList: Adobe Glyph List
DisplaySize: -36
AntiAlias: 1
FitToEm: 1
WinInfo: 0 27 8
BeginPrivate: 9
BlueValues 27 [-25 0 1079 1098 1513 1542]
OtherBlues 11 [-442 -437]
FamilyBlues 27 [-27 0 1075 1096 1434 1462]
FamilyOtherBlues 11 [-438 -438]
BlueScale 8 0.039625
StdHW 5 [149]
StdVW 5 [182]
StemSnapH 25 [118 133 141 149 153 159]
StemSnapV 25 [175 182 188 193 197 201]
EndPrivate
BeginChars: 65542 348

StartChar: exclam
Encoding: 33 33 2
Width: 551
Flags: HW
HStem: -15 189<184 368>
VStem: 168 215<1224.92 1478> 184 184<-15 174 1137.94 1470.06>
LayerCount: 2
Fore
SplineSet
368 174 m 1xa0
 368 -15 l 1
 184 -15 l 1
 184 174 l 1
 368 174 l 1xa0
321 374 m 1
 231 374 l 1
 210.298218805 655.631552138 174 940.030704362 174 1224 c 0
 174 1243 172 1307 168 1478 c 1
 383 1478 l 1xc0
 380 1307 379.244649051 1242.95918903 378 1224 c 2
 335 569 l 1
 321 374 l 1
EndSplineSet
EndChar

StartChar: quotedbl
Encoding: 34 34 3
Width: 823
Flags: HW
HStem: 956 556<165 279.219 525 639.219>
VStem: 133 197<1004.45 1512> 493 197<1004.45 1512>
LayerCount: 2
Fore
SplineSet
133 1512 m 1
 330 1512 l 1
 330 1331 304 1119 278 956 c 1
 165 956 l 1
 140 1311 133 1440 133 1512 c 1
493 1512 m 1
 690 1512 l 1
 690 1331 664 1119 638 956 c 1
 525 956 l 1
 500 1311 493 1440 493 1512 c 1
EndSplineSet
EndChar

StartChar: numbersign
Encoding: 35 35 4
Width: 1323
Flags: HW
HStem: 453 136<103 293 466 778 949 1139> 1045 133<161 352 524 834 1011 1184>
LayerCount: 2
Fore
SplineSet
778 453 m 1
 452 453 l 1
 416 108 l 1
 258 108 l 1
 293 453 l 1
 93 453 l 1
 103 589 l 1
 305 589 l 1
 352 1045 l 1
 146 1045 l 1
 161 1178 l 1
 366 1178 l 1
 402 1539 l 1
 561 1539 l 1
 524 1178 l 1
 852 1178 l 1
 886 1537 l 1
 1046 1537 l 1
 1011 1178 l 1
 1199 1178 l 1
 1184 1045 l 1
 995 1045 l 1
 949 589 l 1
 1150 589 l 1
 1139 453 l 1
 935 453 l 1
 901 107 l 1
 740 107 l 1
 778 453 l 1
466 589 m 1
 789 589 l 1
 834 1045 l 1
 512 1045 l 1
 466 589 l 1
EndSplineSet
EndChar

StartChar: dollar
Encoding: 36 36 5
Width: 1128
Flags: HW
HStem: 34 149<227.282 501 614 707.867>
VStem: 126 173<948.91 1191.97> 501 113<-212 34 194 645 866 1270 1428 1677> 805 185<268.627 557.436>
LayerCount: 2
Fore
SplineSet
499 -212 m 1
 501 34 l 1
 319 34 201 80 147 110 c 1
 124 267 l 1
 204 232 327 183 501 183 c 1
 501 686 l 1
 248 752 126 857 126 1062 c 0
 126 1280 279 1402 502 1425 c 1
 503 1677 l 1
 616 1677 l 1
 615 1428 l 1
 759 1423 864 1397 931 1374 c 1
 949 1215 l 1
 869 1244 763 1270 614 1277 c 1
 614 829 l 1
 860 749 990 695 990 439 c 0
 990 219 887 66 613 37 c 1
 613 -212 l 1
 499 -212 l 1
805 401 m 0
 805 537 767 591 613 645 c 1
 614 194 l 1
 730 214 805 272.964848577 805 401 c 0
299 1070 m 0
 299 967 344 918 501 866 c 1
 503 1270 l 1
 387 1253 299 1191.03718437 299 1070 c 0
EndSplineSet
EndChar

StartChar: percent
Encoding: 37 37 6
Width: 1690
Flags: HW
HStem: -19 109<1100.26 1314.27> 587 108<1103.52 1313.69> 801 109<376.647 586.896> 1406 108<373.777 586.315>
VStem: 199 129<959.349 1355.86> 634 130<960.016 1359.56> 927 127<139.606 536.702> 1362 129<140.051 536.702>
LayerCount: 2
Fore
SplineSet
482 910 m 0
 603 910 634 1006 634 1157 c 0
 634 1311 603 1406 482 1406 c 0
 359 1406 328 1311 328 1157 c 0
 328 1006 359 910 482 910 c 0
199 1157 m 0
 199 1397 299 1514 482 1514 c 0
 667 1514 764 1397 764 1157 c 0
 764 920 670 801 482 801 c 0
 296 801 199 917 199 1157 c 0
443 -81 m 1
 328 -13 l 1
 1252 1569 l 1
 1371 1498 l 1
 443 -81 l 1
1362 338 m 0
 1362 491 1330 587 1209 587 c 0
 1086 587 1054 491 1054 338 c 0
 1054 185 1086 90 1209 90 c 0
 1330 90 1362 185 1362 338 c 0
927 338 m 0
 927 578 1023 695 1209 695 c 0
 1395 695 1491 578 1491 338 c 0
 1491 100 1398 -19 1209 -19 c 0
 1024 -19 927 98 927 338 c 0
EndSplineSet
EndChar

StartChar: ampersand
Encoding: 38 38 7
Width: 1438
Flags: HW
HStem: -25 155<407.188 877.642> 1409 133<459.948 773.045>
VStem: 109 184<238.027 558.213> 224 172<1073.7 1348.4> 826 170<1070.8 1360.46> 1152 157<516.377 803>
LayerCount: 2
Fore
SplineSet
1152 804 m 1xdc
 1309 803 l 1
 1295 600 1254 431 1180 298 c 1
 1397 76 l 1
 1292 -35 l 1
 1093 156 l 1
 995 22 850 -25 622 -25 c 0
 237 -25 109 161 109 372 c 0xec
 109 563 227 722 444 829 c 1
 317 943 224 1050 224 1225 c 0
 224 1416 358 1542 631 1542 c 0
 891 1542 996 1402 996 1218 c 0
 996 1031 873 902 677 796 c 1
 1067 391 l 1
 1125 497 1142 640 1152 804 c 1xdc
625 130 m 0
 807 130 916 168 984 260 c 1
 531 728 l 1
 364 635 293 538 293 394 c 0
 293 251 359 130 625 130 c 0
396 1210 m 0xdc
 396 1102 495 981 590 898 c 1
 703 975 826 1064 826 1214 c 0
 826 1344 776 1409 621 1409 c 0
 458 1409 396 1333 396 1210 c 0xdc
EndSplineSet
EndChar

StartChar: quoteright
Encoding: 8217 8217 8
Width: 530
Flags: HW
HStem: 1163 85<142.109 210.409> 1404 214<123 263>
VStem: 123 253<1406.32 1618> 263 113<1298.04 1404>
LayerCount: 2
Fore
SplineSet
123 1404 m 1xe0
 123 1618 l 1
 363 1635 l 1
 370 1578 l 1
 373 1545 376 1499 376 1454 c 0xe0
 376 1302 311 1212 147 1163 c 1
 118 1248 l 1
 216 1261 263 1335 263 1404 c 1xd0
 123 1404 l 1xe0
EndSplineSet
EndChar

StartChar: parenleft
Encoding: 40 40 9
Width: 616
Flags: HW
VStem: 113 188<299.436 1002.01>
LayerCount: 2
Fore
SplineSet
113 652 m 0
 113 960 203 1173 296 1307 c 0
 350 1386 412 1450 480 1498 c 1
 570 1396 l 1
 519 1351 474 1294 435 1224 c 0
 367 1104 301 917 301 650 c 0
 301 383 367 196 435 77 c 0
 474 7 519 -49 570 -95 c 1
 480 -196 l 1
 412 -147 350 -83 296 -4 c 0
 204 130 113 342 113 652 c 0
EndSplineSet
EndChar

StartChar: parenright
Encoding: 41 41 10
Width: 616
Flags: HW
VStem: 327 188<303.862 1002.01>
LayerCount: 2
Fore
SplineSet
515 652 m 0
 515 342 423 130 332 -4 c 0
 278 -83 217 -147 148 -196 c 1
 58 -95 l 1
 108 -49 154 7 193 77 c 0
 260 196 327 383 327 650 c 0
 327 917 260 1104 193 1224 c 0
 154 1294 108 1351 58 1396 c 1
 148 1498 l 1
 217 1450 278 1386 332 1307 c 0
 424 1173 515 960 515 652 c 0
EndSplineSet
EndChar

StartChar: asterisk
Encoding: 42 42 11
Width: 1128
Flags: HW
HStem: 1061 116<202 479 650 926>
LayerCount: 2
Fore
SplineSet
564 1015 m 1
 428 760 l 1
 326 818 l 1
 479 1071 l 1
 202 1061 l 1
 202 1177 l 1
 481 1169 l 1
 340 1419 l 1
 442 1477 l 1
 564 1225 l 1
 702 1484 l 1
 804 1423 l 1
 646 1168 l 1
 926 1177 l 1
 926 1061 l 1
 650 1071 l 1
 793 817 l 1
 683 757 l 1
 564 1015 l 1
EndSplineSet
EndChar

StartChar: plus
Encoding: 43 43 12
Width: 1128
Flags: HW
HStem: 479 143<213 491 636 914>
VStem: 491 145<161 479 622 942>
LayerCount: 2
Fore
SplineSet
914 479 m 1
 636 479 l 1
 636 161 l 1
 491 161 l 1
 491 479 l 1
 213 479 l 1
 213 622 l 1
 491 622 l 1
 491 942 l 1
 636 942 l 1
 636 622 l 1
 914 622 l 1
 914 479 l 1
EndSplineSet
EndChar

StartChar: comma
Encoding: 44 44 13
Width: 512
Flags: HW
HStem: -224 84<164.221 224.621> 0 211<131 258>
VStem: 131 250<3.62079 211> 258 123<-108.671 0>
LayerCount: 2
Fore
SplineSet
369 227 m 1
 372.648559952 168.623040772 381 119.932855645 381 45 c 0xe0
 381 -85 331 -180 169 -224 c 1
 141 -140 l 1
 220 -132 258 -75 258 0 c 1xd0
 131 0 l 1xe0
 131 211 l 1
 369 227 l 1
EndSplineSet
EndChar

StartChar: hyphen
Encoding: 45 45 14
Width: 659
Flags: HW
HStem: 472 137<59 599>
VStem: 59 540<472 609>
LayerCount: 2
Fore
SplineSet
599 472 m 1
 59 472 l 1
 59 609 l 1
 599 609 l 1
 599 472 l 1
EndSplineSet
EndChar

StartChar: period
Encoding: 46 46 15
Width: 549
Flags: HW
HStem: -9 222<174 374>
VStem: 174 200<-9 213>
LayerCount: 2
Fore
SplineSet
174 213 m 1
 374 213 l 1
 374 -9 l 1
 174 -9 l 1
 174 213 l 1
EndSplineSet
EndChar

StartChar: slash
Encoding: 47 47 16
Width: 764
Flags: HW
VStem: 83 571
LayerCount: 2
Fore
SplineSet
472 1569 m 1
 654 1528 l 1
 260 -213 l 1
 83 -173 l 1
 472 1569 l 1
EndSplineSet
EndChar

StartChar: zero
Encoding: 48 48 17
Width: 1128
Flags: HW
HStem: -25 155<437.774 697.821> 1392 150<440.322 686.085>
VStem: 98 200<337.979 1178.35> 830 200<337.979 1177.94>
LayerCount: 2
Fore
SplineSet
563 130 m 0
 786 130 830 378 830 760 c 0
 830 1133 777 1392 563 1392 c 0
 348 1392 298 1135 298 760 c 0
 298 378 351 130 563 130 c 0
98 759 m 0
 98 1245 215 1542 563 1542 c 0
 914 1542 1030 1245 1030 759 c 0
 1030 266 912 -25 563 -25 c 0
 216 -25 98 266 98 759 c 0
EndSplineSet
EndChar

StartChar: one
Encoding: 49 49 18
Width: 1128
Flags: HW
HStem: 0 21G<526 711>
VStem: 526 185<0 1325>
LayerCount: 2
Fore
SplineSet
526 0 m 1
 526 441.666666667 526 883.333333333 526 1325 c 1
 317 1212 l 1
 256 1360 l 1
 557 1513 l 1
 711 1513 l 1
 711 0 l 1
 526 0 l 1
EndSplineSet
EndChar

StartChar: two
Encoding: 50 50 19
Width: 1128
Flags: HW
HStem: 0 152<321 971> 1390 153<262.24 722.137>
VStem: 821 187<1008.8 1302.27>
LayerCount: 2
Fore
SplineSet
545 1543 m 0
 878 1543 1008 1383 1008 1185 c 0
 1008 1018 906 832 779 684 c 2
 321 152 l 1
 992 152 l 1
 971 0 l 1
 96 0 l 1
 96 154 l 1
 643 805 l 2
 733 912 821 1055 821 1175 c 0
 821 1296 738 1390 513 1390 c 0
 424 1390 338 1369 124 1308 c 1
 125 1473 l 1
 241 1504 367 1543 545 1543 c 0
EndSplineSet
EndChar

StartChar: three
Encoding: 51 51 20
Width: 1128
Flags: HW
HStem: -25 164<177.877 668.706> 731 150<367 643.571> 1385 157<157.02 655.118>
VStem: 757 199<972.44 1288.48> 793 213<256.469 599.261>
LayerCount: 2
Fore
SplineSet
82 42 m 1xe8
 118 199 l 1
 154 191 329 139 490 139 c 0
 673 139 793 229 793 426 c 0xe8
 793 626 691 731 367 731 c 1
 367 881 l 1
 667 881 757 939 757 1145 c 0
 757 1324 627 1385 462 1385 c 0
 328 1385 148 1339 107 1328 c 1
 105 1489 l 1
 153 1503 296 1542 462 1542 c 0
 762 1542 956 1426 956 1165 c 0xf0
 956 911 807 829 702 810 c 1
 901 789 1006 638 1006 436 c 0
 1006 73 773 -25 487 -25 c 0
 312 -25 127 31 82 42 c 1xe8
EndSplineSet
EndChar

StartChar: four
Encoding: 52 52 21
Width: 1128
Flags: HW
HStem: 0 21G<727 908> 271 143<218 727 908 1087>
VStem: 727 181<0 271 418 1376>
LayerCount: 2
Fore
SplineSet
24 399 m 1
 625 1513 l 1
 908 1513 l 1
 908 418 l 1
 1087 418 l 1
 1087 271 l 1
 908 271 l 1
 908 0 l 1
 727 0 l 1
 727 271 l 1
 24 271 l 1
 24 399 l 1
218 414 m 1
 727 414 l 1
 727 1376 l 1
 539 982 l 1
 218 414 l 1
EndSplineSet
EndChar

StartChar: five
Encoding: 53 53 22
Width: 1128
Flags: HW
HStem: -25 164<174.026 716.904> 746 150<314.503 727.98> 1376 137<330 913>
VStem: 145 185<995.719 1376> 145 166<872 1252.28> 833 181<253.072 640.185>
LayerCount: 2
Fore
SplineSet
208 702 m 1xec
 145 779 l 1
 145 1513 l 1xec
 928 1513 l 1
 913 1376 l 1
 330 1376 l 1xf4
 311 872 l 1
 386 882 454 896 568 896 c 0
 809 896 1014 766 1014 468 c 0
 1014 140 878 -25 506 -25 c 0
 336 -25 217 2 131 33 c 1
 131 193 l 1
 219 167 333 139 499 139 c 0
 739 139 833 218 833 466 c 0
 833 674 719 746 532 746 c 0
 440 746 345 729 208 702 c 1xec
EndSplineSet
EndChar

StartChar: six
Encoding: 54 54 23
Width: 1128
Flags: HW
HStem: -25 151<444.455 733.02> 729 158<464.822 758.986> 1392 150<537.409 912>
VStem: 113 202<309.498 643.988 742 1081.19> 843 191<242.09 639.429>
LayerCount: 2
Fore
SplineSet
912 1534 m 1
 936 1379 l 1
 870 1388 810 1392 755 1392 c 0
 436 1392 317 1212 314 742 c 1
 371 791 490 887 649 887 c 0
 873 887 1034 717 1034 450 c 0
 1034 204 891 -25 565 -25 c 0
 271 -25 113 216 113 632 c 0
 113 1260 272 1542 754 1542 c 0
 803 1542 856 1539 912 1534 c 1
620 729 m 0
 483 729 378 661 316 613 c 1
 316 605 315 553 315 553 c 1
 315 281 406 126 575 126 c 0
 750 126 843 229 843 446 c 0
 843 619 777 729 620 729 c 0
EndSplineSet
EndChar

StartChar: seven
Encoding: 55 55 24
Width: 1128
Flags: HW
HStem: 1362 151<101 831>
LayerCount: 2
Fore
SplineSet
501 -25 m 1
 333 51 l 1
 831 1362 l 1
 90 1362 l 1
 101 1513 l 1
 987 1513 l 1
 1030 1365 l 1
 501 -25 l 1
EndSplineSet
EndChar

StartChar: eight
Encoding: 56 56 25
Width: 1128
Flags: HW
HStem: -25 158<395.884 738.8> 1390 152<402.087 730.136>
VStem: 106 201<217.843 559.733> 135 194<1009.65 1315.89> 804 194<1015.86 1317.45> 829 195<225.028 561.699>
LayerCount: 2
Fore
SplineSet
106 363 m 0xe4
 106 687 301 760 390 789 c 1
 252 828 135 957 135 1170 c 0
 135 1376 268 1542 564 1542 c 0
 863 1542 998 1374 998 1170 c 0xd8
 998 954 865 828 730 789 c 1
 841 759 1024 664 1024 363 c 0
 1024 72 785 -25 564 -25 c 0
 345 -25 106 72 106 363 c 0xe4
566 867 m 1
 662 897 804 985 804 1180 c 0
 804 1340 697 1390 566 1390 c 0
 441 1390 329 1340 329 1180 c 0
 329 985 466 897 566 867 c 1
307 383 m 0xe4
 307 195 412 133 564 133 c 0
 713 133 829 193 829 383 c 0
 829 607 672 692 565 720 c 1
 458 689 307 599 307 383 c 0xe4
EndSplineSet
EndChar

StartChar: nine
Encoding: 57 57 26
Width: 1128
Flags: HW
HStem: -25 150<228 602.717> 630 158<387.554 680.761> 1391 151<407.776 696.545>
VStem: 106 191<881.231 1274.91> 827 201<435.809 775 873.012 1214.11>
LayerCount: 2
Fore
SplineSet
228 -17 m 1
 204 138 l 1
 270 129 330 125 385 125 c 0
 704 125 824 305 827 775 c 1
 772 726 656 630 502 630 c 0
 272 630 106 788 106 1067 c 0
 106 1313 250 1542 576 1542 c 0
 870 1542 1028 1316 1028 885 c 0
 1028 257 868 -25 386 -25 c 0
 337 -25 284 -22 228 -17 c 1
531 788 m 0
 663 788 765 856 825 904 c 1
 825 912 826 964 826 964 c 1
 826 1236 735 1391 566 1391 c 0
 391 1391 297 1288 297 1071 c 0
 297 904 358 788 531 788 c 0
EndSplineSet
EndChar

StartChar: colon
Encoding: 58 58 27
Width: 549
Flags: HW
HStem: 99 223<166 383> 622 226<167 383>
VStem: 167 216<99 322 622 848>
LayerCount: 2
Fore
SplineSet
166 322 m 1
 383 322 l 1
 383 99 l 1
 166 99 l 1
 166 322 l 1
167 848 m 1
 383 848 l 1
 383 622 l 1
 167 622 l 1
 167 848 l 1
EndSplineSet
EndChar

StartChar: semicolon
Encoding: 59 59 28
Width: 549
Flags: HW
HStem: -224 84<193.88 236.678> 0 199<161 264> 622 226<161 377>
VStem: 161 216<3.65275 199 622 848> 264 123<-117.09 0>
LayerCount: 2
Fore
SplineSet
161 848 m 1xf0
 377 848 l 1
 377 622 l 1
 161 622 l 1
 161 848 l 1xf0
161 0 m 1
 161 199 l 1xf0
 375 205 l 1
 381 158 l 2
 384 128 387 88 387 45 c 0
 387 -85 342 -179 199 -224 c 1
 169 -140 l 1
 234 -132 264 -75 264 0 c 1xe8
 161 0 l 1
EndSplineSet
EndChar

StartChar: less
Encoding: 60 60 29
Width: 1128
Flags: HW
HStem: 1019 20G<810.896 856.93>
LayerCount: 2
Fore
SplineSet
83 533 m 1
 83 656 l 1
 851 1039 l 1
 902 867 l 1
 300 591 l 1
 902 317 l 1
 851 145 l 1
 83 533 l 1
EndSplineSet
EndChar

StartChar: equal
Encoding: 61 61 30
Width: 1128
Flags: HW
HStem: 432 130<237 890> 672 131<237 890>
VStem: 237 653<432 562 672 803>
LayerCount: 2
Fore
SplineSet
237 672 m 1
 237 803 l 1
 890 803 l 1
 890 672 l 1
 237 672 l 1
237 432 m 1
 237 562 l 1
 890 562 l 1
 890 432 l 1
 237 432 l 1
EndSplineSet
EndChar

StartChar: greater
Encoding: 62 62 31
Width: 1128
Flags: HW
HStem: 1019 20G<184.953 231>
LayerCount: 2
Fore
SplineSet
957 656 m 1
 957 533 l 1
 191 145 l 1
 139 317 l 1
 739 591 l 1
 139 867 l 1
 191 1039 l 1
 957 656 l 1
EndSplineSet
EndChar

StartChar: question
Encoding: 63 63 32
Width: 872
Flags: HW
HStem: -29 230<206.464 374.285> 1356 157<128.777 602.19>
VStem: 182 217<-6.85898 176.853> 202 159<318 684.673> 670 177<1016.76 1292.37>
LayerCount: 2
Fore
SplineSet
106 1462 m 1
 197.661316446 1487.77974525 296.449779951 1513 415 1513 c 0
 744 1513 847 1348 847 1151 c 0xd8
 847 751 361 762 361 632 c 2
 361 318 l 1
 202 318 l 1
 202 621 l 2
 202 920 670 850 670 1148 c 0
 670 1296 602 1356 414 1356 c 0
 294.303407654 1356 195.428603403 1332.89178264 101 1310 c 1
 101 1315 106 1456 106 1462 c 1
182 82 m 0xe8
 182 146 230 201 289 201 c 0
 351 201 399 146 399 82 c 0
 399 21 351 -29 289 -29 c 0
 230 -29 182 21 182 82 c 0xe8
EndSplineSet
EndChar

StartChar: at
Encoding: 64 64 33
Width: 1774
Flags: HW
HStem: -121 124<631.893 1177.63> 190 125<649.985 942.804 1206 1365.71> 1261 126<683.796 1177.56>
VStem: 141 145<332.701 822.369> 446 140<382.37 737.407> 1493 140<471.979 961.457>
LayerCount: 2
Fore
SplineSet
1108 717 m 1
 1132 943 l 1
 1124 943 1014 969 952 966 c 0
 756 957 596.050470334 774.943795247 586 587 c 0
 576.050470334 400.943795247 645 315 789 315 c 0
 979 315 1076 462 1108 717 c 1
902 3 m 0
 1124.73967037 3 1249.61984237 56.6469964827 1348 148 c 1
 1365 135 1405 81 1420 65 c 1
 1392 31 1354 -1 1305 -27 c 0
 1219 -73 1091 -121 892 -121 c 0
 439 -121 124 151 141 602 c 0
 158 1051 488 1387 907 1387 c 0
 1320 1387 1633 1156 1633 721 c 0
 1633 263 1340 193 1210 193 c 0
 1104 193 1094 266 1102 363 c 1
 1113 422 l 1
 1121 473 l 1
 1112 474 l 1
 1074.19520199 319.87274657 976.087002608 190 770 190 c 0
 568 190 446 334 446 561 c 0
 446 832 697 1118 1020 1076 c 0
 1088 1068 1213 1047 1215 1047 c 1
 1263 942 l 1
 1206 302 l 1
 1305 302 1493 353 1493 724 c 0
 1493 1090 1262 1261 913 1261 c 0
 532 1261 304.339564165 952.930038611 286 602 c 0
 267.339564165 244.930038611 490 3 902 3 c 0
EndSplineSet
EndChar

StartChar: A
Encoding: 65 65 34
Width: 1245
Flags: HW
HStem: 0 21G<0 212.047 1033.01 1245> 344 118<345 900>
LayerCount: 2
Fore
SplineSet
936 344 m 1
 310 344 l 1
 206 0 l 1
 0 0 l 1
 521 1513 l 1
 733 1513 l 1
 1245 0 l 1
 1039 0 l 1
 936 344 l 1
628 1309 m 1
 345 462 l 1
 900 462 l 1
 628 1309 l 1
EndSplineSet
EndChar

StartChar: B
Encoding: 66 66 35
Width: 1272
Flags: HW
HStem: 0 152<389 851.255> 735 134<389 790.116> 1360 153<389 802.234>
VStem: 199 190<152 735 869 1360> 898 189<969.058 1277.51> 972 187<260.524 622.361>
LayerCount: 2
Fore
SplineSet
389 1360 m 1xf8
 389 869 l 1
 574 869 l 2
 815 869 898 959 898 1125 c 0
 899 1316 792 1355 527 1360 c 1
 389 1360 l 1xf8
972 439 m 0xf4
 972 672 849 735 580 735 c 2
 389 735 l 1
 389 152 l 1
 583 152 l 2
 840 152 972 196 972 439 c 0xf4
1159 437 m 0
 1159 135 984 0 634 0 c 2
 199 0 l 1
 199 1513 l 1
 554 1513 l 2
 945 1513 1087 1403 1087 1116 c 0xf8
 1087 894 898 821 818 813 c 1
 882 808 938.544634693 791.207875027 988 763 c 0
 1073.54463469 714.207875027 1159 625 1159 437 c 0
EndSplineSet
EndChar

StartChar: C
Encoding: 67 67 36
Width: 1235
Flags: HW
HStem: -25 159<564.803 1061.53> 1384 158<578.569 1083.91>
VStem: 125 209<420.392 1099.29>
LayerCount: 2
Fore
SplineSet
779 -25 m 0
 406 -25 125 159 125 766 c 0
 125 1350 411 1542 800 1542 c 0
 961 1542 1076 1508 1149 1479 c 1
 1148 1316 l 1
 1068 1349 954 1384 792 1384 c 0
 507.971832383 1384 334 1235 334 768 c 0
 334 302.990322681 481 134 782 134 c 0
 945 134 1059 173 1148 210 c 1
 1148 45 l 1
 1067 11 953 -25 779 -25 c 0
EndSplineSet
EndChar

StartChar: D
Encoding: 68 68 37
Width: 1401
Flags: HW
HStem: 0 152<401 855.659> 1360 153<401 873.132>
VStem: 199 202<152 1360> 1078 198<394.362 1121.21>
LayerCount: 2
Fore
SplineSet
401 152 m 1
 577 152 l 2
 974 152 1078 295 1078 785 c 0
 1078 1173 982 1360 651 1360 c 2
 401 1360 l 1
 401 152 l 1
644 0 m 2
 199 0 l 1
 199 1513 l 1
 596 1513 l 2
 931 1513 1276 1436 1276 788 c 0
 1276 312 1154 0 644 0 c 2
EndSplineSet
EndChar

StartChar: E
Encoding: 69 69 38
Width: 1081
Flags: HW
HStem: 0 153<398 945> 706 146<398 829> 1360 153<398 946>
VStem: 199 199<153 706 852 1360>
LayerCount: 2
Fore
SplineSet
945 0 m 1
 199 0 l 1
 199 1513 l 1
 971 1513 l 1
 946 1360 l 1
 398 1360 l 1
 398 852 l 1
 829 852 l 1
 829 706 l 1
 398 706 l 1
 398 153 l 1
 969 153 l 1
 945 0 l 1
EndSplineSet
EndChar

StartChar: F
Encoding: 70 70 39
Width: 1006
Flags: HW
HStem: 0 21G<199 393> 708 155<393 926> 1360 153<393 940>
VStem: 199 194<0 708 863 1360>
LayerCount: 2
Fore
SplineSet
393 708 m 1
 393 0 l 1
 199 0 l 1
 199 1513 l 1
 965 1513 l 1
 940 1360 l 1
 393 1360 l 1
 393 863 l 1
 926 863 l 1
 926 708 l 1
 393 708 l 1
EndSplineSet
EndChar

StartChar: G
Encoding: 71 71 40
Width: 1413
Flags: HW
HStem: -25 159<558.212 964.98> 4 21G<1150.75 1266> 641 141<813 1099> 1384 158<585.767 1103.98>
VStem: 125 209<416.496 1096.69> 1099 167<230.204 641> 1157 109<4 49.8752>
LayerCount: 2
Fore
SplineSet
1266 4 m 1x7a
 1157 4 l 1x7a
 1117 132 l 1
 1063 64 950 -25 726 -25 c 0
 389 -25 125 196 125 759 c 0
 125 1367 445 1542 790 1542 c 0
 975 1542 1108 1508 1203 1473 c 1
 1202 1306 l 1
 1112 1340 983 1384 795 1384 c 0
 496 1384 334 1197 334 789 c 0
 334 350 451 134 745 134 c 0
 928 134 1040 210 1099 266 c 1
 1099 641 l 1xbc
 813 641 l 1
 793 782 l 1
 1266 782 l 1
 1266 4 l 1x7a
EndSplineSet
EndChar

StartChar: H
Encoding: 72 72 41
Width: 1436
Flags: HW
HStem: 0 21G<199 393 1042 1237> 713 147<393 1042>
VStem: 199 194<0 713 860 1513> 1042 195<0 713 860 1513>
LayerCount: 2
Fore
SplineSet
1042 0 m 1
 1042 713 l 1
 393 713 l 1
 393 0 l 1
 199 0 l 1
 199 1513 l 1
 393 1513 l 1
 393 860 l 1
 1042 860 l 1
 1042 1513 l 1
 1237 1513 l 1
 1237 0 l 1
 1042 0 l 1
EndSplineSet
EndChar

StartChar: I
Encoding: 73 73 42
Width: 694
Flags: HW
HStem: 0 21G<250 443>
VStem: 250 193<0 1513>
LayerCount: 2
Fore
SplineSet
443 0 m 1
 250 0 l 1
 250 1513 l 1
 443 1513 l 1
 443 0 l 1
EndSplineSet
EndChar

StartChar: J
Encoding: 74 74 43
Width: 555
Flags: HW
HStem: -85 141<-33 149.081>
VStem: 231 197<136.43 1513>
LayerCount: 2
Fore
SplineSet
-33 -85 m 1
 -49.8037115769 -38.1370449102 -66.4698327914 8.86350054189 -83 56 c 1
 207 56 231 122 231 420 c 2
 231 1513 l 1
 428 1513 l 1
 428 324 l 1
 427 95 343 -85 -33 -85 c 1
EndSplineSet
EndChar

StartChar: K
Encoding: 75 75 44
Width: 1186
Flags: HW
HStem: 0 21G<199 393 971.027 1185>
VStem: 199 194<0 575 779 1513>
LayerCount: 2
Fore
SplineSet
1161 1513 m 1
 1161 1457 l 1
 679 841 l 1
 1185 49 l 1
 1185 0 l 1
 983 0 l 1
 543 735 l 1
 393 575 l 1
 393 0 l 1
 199 0 l 1
 199 1513 l 1
 393 1513 l 1
 393 779 l 1
 966 1513 l 1
 1161 1513 l 1
EndSplineSet
EndChar

StartChar: L
Encoding: 76 76 45
Width: 1006
Flags: HW
HStem: 0 150<393 950>
VStem: 199 194<150 1513>
LayerCount: 2
Fore
SplineSet
950 0 m 1
 199 0 l 1
 199 1513 l 1
 393 1513 l 1
 393 150 l 1
 968 150 l 1
 950 0 l 1
EndSplineSet
EndChar

StartChar: M
Encoding: 77 77 46
Width: 1782
Flags: HW
HStem: 0 21G<133 327.808 1454.37 1648> 34 21G<765.501 1027.5> 34 21G<765.501 1027.5>
VStem: 133 194<0 318.976> 201 168<1194.02 1354> 1422 170<1125.67 1354> 1455 193<0 387.328>
LayerCount: 2
Fore
SplineSet
133 0 m 1xd0
 201 1513 l 1
 489 1513 l 1
 625.505882915 1060.83921625 764.666243826 611.332910493 899 157 c 1
 1021.81971326 620.846953406 1169.27308986 1060.06024347 1303 1513 c 1
 1592 1513 l 1xcc
 1648 0 l 1
 1455 0 l 1xc2
 1422 1040 l 1
 1421 1354 l 1
 1332 991 l 1
 1021 34 l 1
 772 34 l 1
 461 991 l 1
 372 1354 l 1
 369 1039 l 1xcc
 327 0 l 1
 133 0 l 1xd0
EndSplineSet
EndChar

StartChar: N
Encoding: 78 78 47
Width: 1493
Flags: HW
HStem: 0 21G<199 374 1092 1294>
VStem: 199 175<0 1209> 1118 176<304 1513>
LayerCount: 2
Fore
SplineSet
1092 1 m 1
 374 1209 l 1
 374 0 l 1
 199 0 l 1
 199 1513 l 1
 409 1513 l 1
 1118 304 l 1
 1118 1513 l 1
 1294 1513 l 1
 1294 0 l 1
 1092 1 l 1
EndSplineSet
EndChar

StartChar: O
Encoding: 79 79 48
Width: 1520
Flags: HW
HStem: -25 159<563.589 955.731> 1384 158<563.8 955.731>
VStem: 126 201<428.617 1089.22> 1192 202<428.411 1089.22>
LayerCount: 2
Fore
SplineSet
327 760 m 0
 327 364 454 134 759 134 c 0
 1067 134 1192 364 1192 760 c 0
 1192 1153 1067 1384 759 1384 c 0
 455 1384 327 1153 327 760 c 0
126 760 m 0
 126 1288 349 1542 759 1542 c 0
 1172 1542 1394 1288 1394 760 c 0
 1394 226 1172 -25 759 -25 c 0
 349 -25 126 227 126 760 c 0
EndSplineSet
EndChar

StartChar: P
Encoding: 80 80 49
Width: 1180
Flags: HW
HStem: 0 21G<199 393> 602 153<393 732.111> 1362 151<393 756.338>
VStem: 199 194<0 602 755 1362> 871 204<870.672 1260.33>
LayerCount: 2
Fore
SplineSet
393 755 m 1
 440 755 l 2
 781 755 871 836 871 1053 c 0
 871 1314 789 1362 411 1362 c 2
 393 1362 l 1
 393 755 l 1
1075 1051 m 0
 1075 713 878 602 423 602 c 2
 393 602 l 1
 393 0 l 1
 199 0 l 1
 199 1513 l 1
 387 1513 l 2
 930 1513 1075 1405 1075 1051 c 0
EndSplineSet
EndChar

StartChar: Q
Encoding: 81 81 50
Width: 1518
Flags: HW
HStem: -401 21G<1099 1204> -25 30<721 932> 1384 158<562.8 954.731>
VStem: 125 201<428.617 1089.22> 1191 202<428.411 1089.22>
LayerCount: 2
Fore
SplineSet
721 -1 m 1
 932 5 l 1
 1006 -54 1142 -164 1301 -259 c 1
 1301 -262 1204 -396 1204 -401 c 1
 994 -286 816 -123 721 -1 c 1
326 760 m 0
 326 364 453 134 758 134 c 0
 1066 134 1191 364 1191 760 c 0
 1191 1153 1066 1384 758 1384 c 0
 454 1384 326 1153 326 760 c 0
125 760 m 0
 125 1288 348 1542 758 1542 c 0
 1171 1542 1393 1288 1393 760 c 0
 1393 226 1171 -25 758 -25 c 0
 348 -25 125 227 125 760 c 0
EndSplineSet
EndChar

StartChar: R
Encoding: 82 82 51
Width: 1208
Flags: HW
HStem: 0 21G<199 397 990.013 1184> 632 147<397 562> 1368 145<397 796.787>
VStem: 199 198<0 632 779 1368> 909 182<878.049 1266.77>
LayerCount: 2
Fore
SplineSet
1184 60 m 1
 1184 0 l 1
 1004 0 l 1
 562 632 l 1
 397 632 l 1
 397 0 l 1
 199 0 l 1
 199 1513 l 1
 521 1513 l 2
 879 1513 1091 1436 1091 1082 c 0
 1091 759 913 673 749 651 c 1
 1184 60 l 1
397 1368 m 1
 397 779 l 1
 577 779 l 2
 826 779 909 850 909 1065 c 0
 909 1323 810 1368 469 1368 c 2
 397 1368 l 1
EndSplineSet
EndChar

StartChar: S
Encoding: 83 83 52
Width: 1063
Flags: HW
HStem: -25 161<252.02 677.051> 1380 162<373.744 805.379>
VStem: 105 190<1008.92 1294.15> 773 196<230.944 570.852>
LayerCount: 2
Fore
SplineSet
560 1542 m 0
 680 1542 792 1519 897 1483 c 1
 897 1301 l 1
 822 1336 679 1380 548 1380 c 0
 409 1380 295 1331 295 1142 c 0
 295 1015 361.184222302 957.84745133 570 879 c 0
 843.184222302 775.84745133 969 709 969 396 c 0
 969 92 766 -25 521 -25 c 0
 384 -25 237 4 104 53 c 1
 106 235 l 1
 212 184 377 136 519 136 c 0
 658 136 773 200 773 400 c 0
 773 579 710 635 469 722 c 0
 212 814 105 908.997881365 105 1145 c 0
 105 1448 334 1542 560 1542 c 0
EndSplineSet
EndChar

StartChar: T
Encoding: 84 84 53
Width: 1063
Flags: HW
HStem: 0 21G<431 628> 1362 151<20 431 628 1020>
VStem: 431 197<0 1362>
LayerCount: 2
Fore
SplineSet
1020 1362 m 1
 628 1362 l 1
 628 0 l 1
 431 0 l 1
 431 1362 l 1
 20 1362 l 1
 20 1513 l 1
 1045 1513 l 1
 1020 1362 l 1
EndSplineSet
EndChar

StartChar: U
Encoding: 85 85 54
Width: 1430
Flags: HW
HStem: -25 159<514.372 907.861>
VStem: 184 201<273.879 1513> 1045 200<285.001 1513>
LayerCount: 2
Fore
SplineSet
717 134 m 0
 936 134 1045 225 1045 540 c 2
 1045 1513 l 1
 1245 1513 l 1
 1245 526 l 2
 1245 93 1024 -25 718 -25 c 0
 401 -25 184 98 184 528 c 2
 184 1513 l 1
 385 1513 l 1
 385 540 l 2
 385 225 483 134 717 134 c 0
EndSplineSet
EndChar

StartChar: V
Encoding: 86 86 55
Width: 1163
Flags: HW
HStem: 0 21G<433.197 731.777>
LayerCount: 2
Fore
SplineSet
726 0 m 1
 439 0 l 1
 0 1513 l 1
 223 1513 l 1
 504 443 l 1
 586 99 l 1
 691.488452356 581.844880977 819.830267997 1041.83639867 937 1513 c 1
 1163 1513 l 1
 726 0 l 1
EndSplineSet
EndChar

StartChar: W
Encoding: 87 87 56
Width: 1810
Flags: HW
HStem: 0 21G<338.008 637.035 1177.92 1475.94>
LayerCount: 2
Fore
SplineSet
1472 0 m 1
 1182 0 l 1
 906 1353 l 1
 633 0 l 1
 342 0 l 1
 40 1513 l 1
 243 1513 l 1
 496 131 l 1
 764 1513 l 1
 1050 1513 l 1
 1277 343 l 1
 1321 131 l 1
 1402.26728049 593.732719508 1487.86944252 1052.13055748 1571 1513 c 1
 1770 1513 l 1
 1472 0 l 1
EndSplineSet
EndChar

StartChar: X
Encoding: 88 88 57
Width: 1120
Flags: HW
HStem: 0 21G<0 211.148 889.13 1120>
LayerCount: 2
Fore
SplineSet
1120 0 m 1
 901 0 l 1
 3 1513 l 1
 222 1513 l 1
 1120 0 l 1
199 0 m 1
 0 0 l 1
 922 1513 l 1
 1118 1513 l 1
 199 0 l 1
EndSplineSet
EndChar

StartChar: Y
Encoding: 89 89 58
Width: 1079
Flags: HW
HStem: 0 21G<433 645>
VStem: 433 212<0 563>
LayerCount: 2
Fore
SplineSet
644 1007 m 1
 860 1513 l 1
 1079 1513 l 1
 645 564 l 1
 645 0 l 1
 433 0 l 1
 433 563 l 1
 0 1513 l 1
 222 1513 l 1
 435 1007 l 1
 538 731 l 1
 545 731 l 1
 644 1007 l 1
EndSplineSet
EndChar

StartChar: Z
Encoding: 90 90 59
Width: 1104
Flags: HW
HStem: 0 155<283 983> 1355 158<105 833>
LayerCount: 2
Fore
SplineSet
100 0 m 1
 84 164 l 1
 600 1024 l 1
 833 1360 l 1
 620 1355 l 1
 80 1355 l 1
 105 1513 l 1
 1005 1513 l 1
 1022 1340 l 1
 400 306 l 1
 283 148 l 1
 497 155 l 1
 1007 155 l 1
 983 0 l 1
 100 0 l 1
EndSplineSet
EndChar

StartChar: bracketleft
Encoding: 91 91 60
Width: 621
Flags: HW
HStem: -230 123<359 609> 1389 124<359 609>
VStem: 181 428<-230 -107 1389 1513> 181 184<-107 1389>
LayerCount: 2
Fore
SplineSet
609 -230 m 1xe0
 181 -230 l 1
 181 1513 l 1
 609 1513 l 1
 609 1389 l 1xe0
 359 1389 l 1
 365 1017 l 1
 365 355 l 1xd0
 359 -107 l 1
 609 -107 l 1
 609 -230 l 1xe0
EndSplineSet
EndChar

StartChar: backslash
Encoding: 92 92 61
Width: 764
Flags: HW
VStem: 82 571
LayerCount: 2
Fore
SplineSet
251 1614 m 1
 653 -188 l 1
 485 -232 l 1
 82 1571 l 1
 251 1614 l 1
EndSplineSet
EndChar

StartChar: bracketright
Encoding: 93 93 62
Width: 621
Flags: HW
HStem: -230 123<73 322> 1389 124<73 322>
VStem: 73 427<-230 -107 1389 1513> 316 184<-107 1389>
LayerCount: 2
Fore
SplineSet
500 -230 m 1xe0
 73 -230 l 1
 73 -107 l 1xe0
 322 -107 l 1
 316 355 l 1
 316 1017 l 1xd0
 322 1389 l 1
 73 1389 l 1
 73 1513 l 1
 500 1513 l 1
 500 -230 l 1xe0
EndSplineSet
EndChar

StartChar: asciicircum
Encoding: 94 94 63
Width: 1090
Flags: HW
LayerCount: 2
Fore
SplineSet
550 1067 m 1
 880 294 l 1
 697 294 l 1
 674 354 490 866 468 927 c 1
 445 866 263 353 240 294 c 1
 55 294 l 1
 78 340 364 1021 386 1067 c 1
 550 1067 l 1
EndSplineSet
EndChar

StartChar: underscore
Encoding: 95 95 64
Width: 842
Flags: HW
HStem: -1 150<-60 903>
LayerCount: 2
Fore
SplineSet
903 -1 m 1
 -60 -1 l 1
 -60 149 l 1
 903 149 l 1
 903 -1 l 1
EndSplineSet
EndChar

StartChar: quoteleft
Encoding: 8216 8216 65
Width: 1096
Flags: HW
HStem: 1194 216<237 378> 1565 84<290.903 358.949>
VStem: 125 253<1194 1405.68> 125 112<1410 1513.96>
LayerCount: 2
Fore
SplineSet
378 1410 m 1xe0
 378 1194 l 1
 138 1177 l 1
 132 1234 l 2
 128 1268 125 1313 125 1358 c 0xe0
 125 1510 191 1600 354 1649 c 1
 383 1565 l 1
 284 1551 237 1477 237 1410 c 1xd0
 378 1410 l 1xe0
EndSplineSet
EndChar

StartChar: a
Encoding: 97 97 66
Width: 1087
Flags: HW
HStem: -19 142<320.412 634.384> -3 146<904 1021> 482 121<362.03 742> 949 149<243.689 692.275>
VStem: 93 178<169.438 404.375> 742 182<184.897 482 603 900.075>
LayerCount: 2
Fore
SplineSet
742 482 m 1xbc
 580 482 l 2
 468 482 271 466 271 282 c 0
 271 174 344 123 471 123 c 0
 599 123 691 173 742 215 c 1
 742 482 l 1xbc
924 643 m 2
 924 233 l 2
 924 151 936 143 987 143 c 0
 1003 143 1021 144 1035 144 c 1
 1021 2 l 1
 1021 2 936 -3 904 -3 c 0x7c
 792 -3 755 84 755 123 c 1
 712 61 618 -19 407 -19 c 0
 219 -19 93 101 93 290 c 0
 93 541 329 603 568 603 c 2
 742 603 l 1
 742 701 l 2
 742 926 683 949 524 949 c 0
 383 949 262 914 178 882 c 1
 199 1038 l 1
 266 1066 368 1098 538 1098 c 0
 848 1098 924 985 924 643 c 2
EndSplineSet
EndChar

StartChar: b
Encoding: 98 98 67
Width: 1200
Flags: HW
HStem: -19 147<440.643 784.918> 949 149<426.783 787.792>
VStem: 174 182<170.305 897.343 1020 1493> 899 188<268.613 813.034>
LayerCount: 2
Fore
SplineSet
317 -9 m 1
 174 0 l 1
 174 1493 l 1
 356 1513 l 1
 356 1020 l 1
 425 1054 505 1098 680 1098 c 0
 913 1098 1087 948 1087 544 c 0
 1087 131 915 -19 682 -19 c 0
 488 -19 409 37 345 84 c 1
 317 -9 l 1
356 879 m 1
 356 189 l 1
 420 161 493 128 653 128 c 0
 807 128 899 253 899 544 c 0
 899 810 818 949 662 949 c 0
 502 949 429 911 356 879 c 1
EndSplineSet
EndChar

StartChar: c
Encoding: 99 99 68
Width: 948
Flags: HW
HStem: -19 147<445.44 837.223> 950 148<446.975 832.524>
VStem: 115 188<288.667 789.454>
LayerCount: 2
Fore
SplineSet
115 533 m 0
 115 968 359 1098 591 1098 c 0
 716 1098 801 1073 852 1049 c 1
 852 897 l 1
 799 921 723 950 620 950 c 0
 418 950 303 830 303 536 c 0
 303 250 420 128 620 128 c 0
 724 128 800 157 853 179 c 1
 853 29 l 1
 799 3 713 -19 587 -19 c 0
 354 -19 115 125 115 533 c 0
EndSplineSet
EndChar

StartChar: d
Encoding: 100 100 69
Width: 1200
Flags: HW
HStem: -19 147<432.501 748.436> 0 21G<888.645 1026> 949 149<422.244 768.095>
VStem: 113 188<285.036 803.302> 844 182<196.344 897.862 1017 1493> 895 131<0 45.1162>
LayerCount: 2
Fore
SplineSet
541 -19 m 0xb4
 332 -19 113 123 113 534 c 0
 113 932 300 1098 527 1098 c 0
 669 1098 786 1052 844 1017 c 1
 844 1493 l 1xb8
 1026 1513 l 1
 1026 0 l 1
 895 0 l 1x74
 861 107 l 1
 812 54 714 -19 541 -19 c 0xb4
571 128 m 0
 694 128 798 187 844 231 c 1
 844 877 l 1
 783 911 680 949 558 949 c 0
 382 949 301 796 301 530 c 0
 301 238 423 128 571 128 c 0
EndSplineSet
EndChar

StartChar: e
Encoding: 101 101 70
Width: 1096
Flags: HW
HStem: -19 147<454.523 888.352> 514 126<305 824> 954 144<432.417 737.185>
VStem: 113 188<291.427 514 640 799.154> 826 167<641.383 863.016>
LayerCount: 2
Fore
SplineSet
948 194 m 1
 947 42 l 1
 879 13 776 -19 629 -19 c 0
 299 -19 113 164 113 528 c 0
 113 929 317.983577135 1098 592 1098 c 0
 857 1098 993 916.064755976 993 723 c 0
 993 662 985 542 976 514 c 1
 301 514 l 1
 301 513 l 2
 301 233 435 128 643 128 c 0
 782 128 871 167 948 194 c 1
596 954 m 0
 454 954 324 888 305 640 c 1
 824 640 l 1
 824 640 826 681 826 699 c 0
 820 878 726 954 596 954 c 0
EndSplineSet
EndChar

StartChar: f
Encoding: 102 102 71
Width: 674
Flags: HW
HStem: 0 21G<214 396> 970 109<24 214 396 650> 1373 140<437.515 712.136>
VStem: 214 182<0 970 1079 1328.86>
LayerCount: 2
Fore
SplineSet
396 0 m 1
 214 0 l 1
 214 970 l 1
 24 970 l 1
 24 1079 l 1
 215 1079 l 1
 215 1089 l 1
 220 1388 306 1513 521 1513 c 0
 613 1513 675 1496 714 1482 c 1
 714 1346 l 1
 674 1359 623 1373 567 1373 c 0
 442 1373 396 1330 396 1132 c 2
 396 1079 l 1
 650 1079 l 1
 650 970 l 1
 396 970 l 1
 396 0 l 1
EndSplineSet
EndChar

StartChar: g
Encoding: 103 103 72
Width: 1165
Flags: HW
HStem: -440 143<304.461 732.778> 0 147<422.828 755.096> 949 149<419.019 721.767>
VStem: 113 188<290.936 806.364> 809 182<-207.926 76 186.02 891.142>
LayerCount: 2
Fore
SplineSet
301 -394 m 1
 300 -253 l 1
 360 -272 443 -297 561 -297 c 0
 740 -297 809 -248 809 56 c 2
 809 76 l 1
 760 42 675 0 532 0 c 0
 318 0 113 156 113 536 c 0
 113 929 269 1098 533 1098 c 0
 692 1098 792 1014 830 981 c 1
 865 1086 l 1
 991 1086 l 1
 991 86 l 2
 991 -302 896 -440 577 -440 c 0
 430 -440 348 -416 301 -394 c 1
569 147 m 0
 689 147 765 182 809 211 c 1
 809 866 l 1
 758 899 667 949 563 949 c 0
 366 949 301 786 301 548 c 0
 301 301 378 148 569 147 c 0
EndSplineSet
EndChar

StartChar: h
Encoding: 104 104 73
Width: 1206
Flags: HW
HStem: 0 21G<174 356 860 1042> 950 148<465.734 780.97>
VStem: 174 182<0 881.545 997 1494> 860 182<0 855.536>
LayerCount: 2
Fore
SplineSet
174 0 m 1
 174 1494 l 1
 356 1513 l 1
 356 997 l 1
 465 1062 562 1098 696 1098 c 0
 941 1098 1042 960 1042 607 c 2
 1042 0 l 1
 860 0 l 1
 860 592 l 2
 860 878 786 950 652 950 c 0
 529 950 402 883 356 859 c 1
 356 0 l 1
 174 0 l 1
EndSplineSet
EndChar

StartChar: i
Encoding: 105 105 74
Width: 530
Flags: HW
HStem: 0 21G<184 366> 1291 192<173 376>
VStem: 184 182<0 1079 1291 1483>
LayerCount: 2
Fore
SplineSet
173 1483 m 1
 376 1483 l 1
 376 1291 l 1
 173 1291 l 1
 173 1483 l 1
366 0 m 1
 184 0 l 1
 184 1079 l 1
 366 1079 l 1
 366 0 l 1
EndSplineSet
EndChar

StartChar: j
Encoding: 106 106 75
Width: 530
Flags: HW
HStem: 1291 192<183 376>
VStem: 190 182<-50.7776 1079 1291 1483>
LayerCount: 2
Fore
SplineSet
190 1079 m 1
 372 1079 l 1
 372 140 l 2
 372 -85 282 -239 14 -343 c 1
 -44 -214 l 1
 121 -121 190 -42 190 160 c 2
 190 1079 l 1
183 1483 m 1
 376 1483 l 1
 376 1291 l 1
 183 1291 l 1
 183 1483 l 1
EndSplineSet
EndChar

StartChar: k
Encoding: 107 107 76
Width: 1016
Flags: HW
HStem: 0 21G<174 356 805.386 1008>
VStem: 174 182<0 418 594 1494>
LayerCount: 2
Fore
SplineSet
1008 37 m 1
 1008 0 l 1
 819 0 l 1
 463 523 l 1
 356 418 l 1
 356 0 l 1
 174 0 l 1
 174 1494 l 1
 356 1513 l 1
 356 594 l 1
 778 1079 l 1
 973 1079 l 1
 973 1038 l 1
 592 621 l 1
 1008 37 l 1
EndSplineSet
EndChar

StartChar: l
Encoding: 108 108 77
Width: 530
Flags: HW
HStem: 0 21G<180 362>
VStem: 180 182<0 1494>
LayerCount: 2
Fore
SplineSet
180 0 m 1
 180 1494 l 1
 362 1513 l 1
 362 0 l 1
 180 0 l 1
EndSplineSet
EndChar

StartChar: m
Encoding: 109 109 78
Width: 1835
Flags: HW
HStem: 0 21G<174 356 847 1029 1489 1671> 949 149<475.033 788.63 1075.77 1411.29>
VStem: 174 182<0 880.508> 847 182<0 870.868> 1489 182<0 861.328>
LayerCount: 2
Fore
SplineSet
1329 1098 m 0
 1557 1098 1671 959 1671 676 c 2
 1671 0 l 1
 1489 0 l 1
 1489 592 l 2
 1489 850 1427 949 1291 949 c 0
 1193 949 1084 914 1011 874 c 1
 1032 808 1029 689 1029 603 c 2
 1029 0 l 1
 847 0 l 1
 847 629 l 2
 847 886 798 949 650 949 c 0
 537 949 415 891 356 858 c 1
 356 0 l 1
 174 0 l 1
 174 1079 l 1
 300 1079 l 1
 337 977 l 1
 444 1052 558 1098 690 1098 c 0
 834 1098 898 1056 948 997 c 1
 1068 1061 1177 1098 1329 1098 c 0
EndSplineSet
EndChar

StartChar: n
Encoding: 110 110 79
Width: 1206
Flags: HW
HStem: 0 21G<174 356 860 1042> 949 149<475.624 783.548>
VStem: 174 182<0 881.417> 860 182<0 862.172>
LayerCount: 2
Fore
SplineSet
174 0 m 1
 174 1079 l 1
 300 1079 l 1
 336 976 l 1
 401 1023 528 1098 697 1098 c 0
 912 1098 1042 980 1042 657 c 2
 1042 0 l 1
 860 0 l 1
 860 615 l 2
 860 847 800 949 659 949 c 0
 541 949 423 897 356 859 c 1
 356 0 l 1
 174 0 l 1
EndSplineSet
EndChar

StartChar: o
Encoding: 111 111 80
Width: 1182
Flags: HW
HStem: -19 147<437.314 750.56> 949 149<427.789 758.748>
VStem: 113 188<282.648 806.426> 882 187<276.564 806.426>
LayerCount: 2
Fore
SplineSet
596 1098 m 0
 921 1098 1069 877 1069 537 c 0
 1069 208 921 -19 596 -19 c 0
 264 -19 113 208 113 537 c 0
 113 877 264 1098 596 1098 c 0
596 128 m 0
 815 128 882 297 882 539 c 0
 882 801 810 949 596 949 c 0
 370 949 301 801 301 539 c 0
 301 297 370 128 596 128 c 0
EndSplineSet
EndChar

StartChar: p
Encoding: 112 112 81
Width: 1200
Flags: HW
HStem: -437 21G<174 308.815> -19 147<410.175 779.548> 949 149<437.486 786.235>
VStem: 174 182<-410 50 169.828 900> 899 188<265.99 811.47>
LayerCount: 2
Fore
SplineSet
174 1079 m 1
 300 1079 l 1
 335 996 l 1
 421 1053 514 1098 672 1098 c 0
 932 1098 1087 934 1087 549 c 0
 1087 153 936 -19 671 -19 c 0
 525 -19 419 16 356 50 c 1
 356 -410 l 1
 174 -437 l 1
 174 1079 l 1
356 879 m 1
 356 188 l 1
 413 161 507 128 629 128 c 0
 810 128 899 242 899 549 c 0
 899 827 813 949 636 949 c 0
 513 949 413 910 356 879 c 1
EndSplineSet
EndChar

StartChar: q
Encoding: 113 113 82
Width: 1200
Flags: HW
HStem: -439 21G<853 983> -19 147<447.776 757.568> 949 149<446.664 847.803>
VStem: 144 186<264.347 811.2> 853 182<-411 75 182.817 929.525>
LayerCount: 2
Fore
SplineSet
1035 1026 m 1
 1035 -411 l 1
 853 -439 l 1
 853 75 l 1
 786 30 667 -19 523 -19 c 0
 296 -19 144 185 144 536 c 0
 144 922 303 1098 575 1098 c 0
 739 1098 948 1050 1013 1031 c 1
 1035 1026 l 1
600 949 m 0
 437 949 330 860 330 539 c 0
 330 264 411 128 588 128 c 0
 692 128 793 172 853 206 c 1
 853 921 l 1
 778 937 681 949 600 949 c 0
EndSplineSet
EndChar

StartChar: r
Encoding: 114 114 83
Width: 817
Flags: HW
HStem: 0 21G<174 356> 939 159<467.031 774.046>
VStem: 174 182<0 875.122>
LayerCount: 2
Fore
SplineSet
664 1098 m 0
 712 1098 747 1085 776 1075 c 1
 775 925 l 1
 742 935 714 939 673 939 c 0
 528 939 418 889 356 851 c 1
 356 0 l 1
 174 0 l 1
 174 1079 l 1
 310 1090 l 1
 347 976 l 1
 437 1054 546 1098 664 1098 c 0
EndSplineSet
EndChar

StartChar: s
Encoding: 115 115 84
Width: 924
Flags: HW
HStem: -20 153<179.314 600.454> 947 151<322.181 751.606>
VStem: 106 180<709.815 910.329> 649 183<181.682 401.891>
LayerCount: 2
Fore
SplineSet
106 808 m 0
 106 1029 300 1098 484 1098 c 0
 585 1098 687 1080 762 1054 c 1
 762 899 l 1
 712 914 602 947 485 947 c 0
 381 947 286 929 286 804 c 0
 286 715 331 692 516 639 c 0
 747 574 832 485 832 287 c 0
 832 68 649 -20 437 -20 c 0
 324 -20 205 6 98 50 c 1
 97 209 l 1
 140 188 287 133 425 133 c 0
 547 133 649 161 649 290 c 0
 649 394 601.492424513 433.757969227 401 490 c 0
 216.492424513 541.757969227 106 610 106 808 c 0
EndSplineSet
EndChar

StartChar: t
Encoding: 116 116 85
Width: 694
Flags: HW
HStem: -19 139<419.378 652.551> 970 109<33 211 393 646> 1427 20G<297.097 390>
VStem: 211 182<141.305 970 1079 1217.04> 246 144<1237.07 1416>
LayerCount: 2
Fore
SplineSet
472 -19 m 0xf0
 282 -19 211 67 211 355 c 2
 211 970 l 1xf0
 33 970 l 1
 33 1079 l 1
 219 1079 l 1
 246 1416 l 1
 390 1447 l 1
 390 1079 l 1xe8
 646 1079 l 1
 646 970 l 1
 393 970 l 1
 393 314 l 2
 393 162 419 120 522 120 c 0
 560 120 583 124 655 139 c 1
 655 3 l 1
 622 -9 572 -19 472 -19 c 0xf0
EndSplineSet
EndChar

StartChar: u
Encoding: 117 117 86
Width: 1206
Flags: HW
HStem: -19 147<428.296 749.049>
VStem: 164 182<217.228 1079> 850 182<175.939 1079> 891 141<0 44.2821>
LayerCount: 2
Fore
SplineSet
1032 1079 m 1xe0
 1032 0 l 1
 891 -12 l 1xd0
 864 94 l 1
 806 44 691 -19 517 -19 c 0
 272 -19 164 132 164 461 c 2
 164 1079 l 1
 346 1079 l 1
 346 469 l 2
 346 224 406 128 562 128 c 0
 689 128 799 167 850 199 c 1
 850 1079 l 1
 1032 1079 l 1xe0
EndSplineSet
EndChar

StartChar: v
Encoding: 118 118 87
Width: 981
Flags: HW
HStem: 0 21G<377.864 604.118>
LayerCount: 2
Fore
SplineSet
597 0 m 1
 385 0 l 1
 0 1079 l 1
 205 1079 l 1
 490 150 l 1
 782 1079 l 1
 981 1079 l 1
 597 0 l 1
EndSplineSet
EndChar

StartChar: w
Encoding: 119 119 88
Width: 1528
Flags: HW
HStem: 0 21G<294.81 553.779 990.655 1251.82>
LayerCount: 2
Fore
SplineSet
760 883 m 1
 549 0 l 1
 300 0 l 1
 20 1079 l 1
 227 1079 l 1
 427 118 l 1
 657 1065 l 1
 864 1065 l 1
 1123 118 l 1
 1304 1079 l 1
 1507 1079 l 1
 1247 0 l 1
 996 0 l 1
 760 883 l 1
EndSplineSet
EndChar

StartChar: x
Encoding: 120 120 89
Width: 1024
Flags: HW
HStem: 0 21G<35 263.293 756.801 987>
LayerCount: 2
Fore
SplineSet
35 0 m 1
 402 540 l 1
 42 1079 l 1
 246 1079 l 1
 511 650 l 1
 775 1079 l 1
 981 1079 l 1
 619 540 l 1
 987 0 l 1
 769 0 l 1
 511 423 l 1
 251 0 l 1
 35 0 l 1
EndSplineSet
EndChar

StartChar: y
Encoding: 121 121 90
Width: 1001
Flags: HW
HStem: -442 159<48.7416 349.44>
LayerCount: 2
Fore
SplineSet
220 1079 m 1
 517 183 l 1
 784 1079 l 1
 991 1079 l 1
 612 -23 l 2
 517 -298 461 -442 267 -442 c 0
 155 -442 91 -424 46 -401 c 1
 47 -257 l 1
 97 -270 169 -283 234 -283 c 0
 332 -283 380 -240 412 -87 c 2
 426 -19 l 1
 10 1079 l 1
 220 1079 l 1
EndSplineSet
EndChar

StartChar: z
Encoding: 122 122 91
Width: 903
Flags: HW
HStem: 0 135<281 821> 932 147<100 616>
LayerCount: 2
Fore
SplineSet
795 1079 m 1
 821 932 l 1
 281 135 l 1
 821 135 l 1
 821 0 l 1
 82 0 l 1
 82 161 l 1
 616 932 l 1
 100 932 l 1
 100 1079 l 1
 795 1079 l 1
EndSplineSet
EndChar

StartChar: braceleft
Encoding: 123 123 92
Width: 725
Flags: HW
HStem: -217 95<445.062 554> 1392 95<445.062 554>
VStem: 210 187<2.73832 478 792 1267.51>
LayerCount: 2
Fore
SplineSet
78 579 m 1
 78 692 l 1
 210 792 l 1
 210 1377 292 1483 554 1487 c 1
 554 1392 l 1
 398 1392 397 1299 397 746 c 1
 222 637 l 1
 397 523 l 1
 397 -28 398 -122 554 -122 c 1
 554 -217 l 1
 292 -213 210 -107 210 478 c 1
 78 579 l 1
EndSplineSet
EndChar

StartChar: bar
Encoding: 124 124 93
Width: 1128
Flags: HW
VStem: 182 198<-138 1551>
LayerCount: 2
Fore
SplineSet
380 -138 m 1
 182 -138 l 1
 182 1551 l 1
 380 1551 l 1
 380 -138 l 1
EndSplineSet
EndChar

StartChar: braceright
Encoding: 125 125 94
Width: 725
Flags: HW
HStem: -217 95<86 186.49> 1392 95<86 186.49>
VStem: 242 189<-6.125 478 792 1267.51>
LayerCount: 2
Fore
SplineSet
563 692 m 1
 563 579 l 1
 431 478 l 1
 431 -107 349 -213 86 -217 c 1
 86 -122 l 1
 242 -122 242 -28 242 523 c 1
 418 637 l 1
 242 746 l 1
 242 1299 242 1392 86 1392 c 1
 86 1487 l 1
 349 1483 431 1377 431 792 c 1
 563 692 l 1
EndSplineSet
EndChar

StartChar: asciitilde
Encoding: 126 126 95
Width: 1128
Flags: HW
HStem: 627 132<292.557 443.047>
VStem: 143 139<524 620.259> 662 138<655.764 742>
LayerCount: 2
Fore
SplineSet
592 650 m 0
 610.340934892 646.547588726 624.42094789 647.396306296 635 655 c 0
 656.42094789 670.396306296 661 706 662 742 c 1
 800 742 l 1
 803.237070871 566.11914933 707.717380402 501.635618621 598 519 c 0
 502.486475805 534.116413233 401.126856408 627 338 627 c 0
 295 627 282 578 282 524 c 1
 143 524 l 1
 140 707 235.029475765 762.734843624 327 759 c 0
 432.029475765 754.734843624 525.340934892 662.547588726 592 650 c 0
EndSplineSet
EndChar

StartChar: exclamdown
Encoding: 161 161 96
Width: 877
Flags: HW
HStem: 0 21G<331 546> 1304 189<347 531>
VStem: 331 215<0 253.076> 347 184<7.93749 340.063 1304 1493>
LayerCount: 2
Fore
SplineSet
531 1493 m 1xd0
 531 1304 l 1
 347 1304 l 1
 347 1493 l 1
 531 1493 l 1xd0
394 1104 m 1
 484 1104 l 1
 504.701781195 822.368447862 541 537.969295638 541 254 c 0
 541 235 543 171 546 0 c 1
 331 0 l 1xe0
 335 171 335.755350949 235.040810968 337 254 c 2
 380 909 l 1
 394 1104 l 1
EndSplineSet
EndChar

StartChar: cent
Encoding: 162 162 97
Width: 1128
Flags: HW
HStem: -29 144<436.011 818.48> 940 150<432.783 731.456>
VStem: 102 199<265.147 785.018> 526 66<-136 513.421> 556 63<573.579 1223> 772 160<790 901.191>
LayerCount: 2
Fore
SplineSet
619 1223 m 1xec
 592 -136 l 1
 526 -136 l 1xf4
 556 1223 l 1
 619 1223 l 1xec
102 531 m 0
 102 951 352.980520302 1090 584 1090 c 0
 781 1090 946 986 932 783 c 1
 772 790 l 1
 773 898 703.991355024 941.658416098 585 940 c 0
 416.991355024 937.658416098 301 839 301 534 c 0
 301 227 408 115 597 115 c 0
 762 115 906 188 906 188 c 1
 878 44 l 1
 846 23 733 -29 580 -29 c 0
 350 -29 102 105 102 531 c 0
EndSplineSet
EndChar

StartChar: sterling
Encoding: 163 163 98
Width: 1128
Flags: HW
HStem: 0 151<68 195.587 339 1047> 737 123<88 263 458 992> 1385 157<558.016 1000.89>
VStem: 263 195<295.019 737 860 1280.43>
LayerCount: 2
Fore
SplineSet
1059 151 m 1
 1047 0 l 1
 68 0 l 1
 68 150 l 1
 169 150 l 1
 208 193 258 320 263 737 c 1
 88 737 l 1
 88 860 l 1
 263 860 l 1
 263 1127 l 2
 263 1383 404 1542 723 1542 c 0
 874.013244452 1542 979 1509 1041 1482 c 1
 1041 1336 l 1
 964 1357 876.016665509 1385 756 1385 c 0
 485 1385 457 1258 457 1024 c 0
 457 977 458 916 458 860 c 1
 992 860 l 1
 992 737 l 1
 458 737 l 1
 458 469 427 323 398 244 c 0
 380 197 362 166 339 151 c 1
 1059 151 l 1
EndSplineSet
EndChar

StartChar: fraction
Encoding: 8260 8260 99
Width: 832
Flags: HW
HStem: 14 21G<102.421 163.958>
LayerCount: 2
Fore
SplineSet
722 1508 m 1
 871 1454 l 1
 154 14 l 1
 7 71 l 1
 722 1508 l 1
EndSplineSet
EndChar

StartChar: yen
Encoding: 165 165 100
Width: 770
Flags: HW
HStem: 267 90<179 456 656 950> 484 95<179 428 683 947>
VStem: 460 191<-3 267 357 484>
LayerCount: 2
Fore
SplineSet
179 484 m 1
 179 579 l 1
 428 579 l 1
 405 624 80 1428 58 1472 c 1
 259 1472 l 1
 471 926 l 1
 475 900 552 668 556 641 c 1
 560 654 641 910 645 926 c 1
 645 942 841 1447 852 1472 c 1
 1054 1472 l 1
 1032 1428 706 624 683 579 c 1
 947 579 l 1
 947 484 l 1
 661 484 l 1
 658 471 656 370 656 357 c 1
 950 357 l 1
 950 267 l 1
 651 267 l 1
 651 -3 l 1
 460 -3 l 1
 460 267 l 1
 179 267 l 1
 179 357 l 1
 456 357 l 1
 450 484 l 1
 179 484 l 1
EndSplineSet
EndChar

StartChar: florin
Encoding: 402 402 101
Width: 1081
Flags: HW
HStem: 0 21G<116 308.601> 933 111<118 284 493 763> 1392 144<586.757 884.372>
LayerCount: 2
Fore
SplineSet
883 1365 m 1
 836.740681066 1380.41977298 784.092170479 1392 722 1392 c 0
 592 1392 548 1348 511 1150 c 1
 493 1044 l 1
 783 1044 l 1
 763 933 l 1
 473 933 l 1
 305 0 l 1
 116 0 l 1
 284 933 l 1
 98 933 l 1
 118 1044 l 1
 304 1044 l 1
 372 1419 482 1536 701 1536 c 0
 789.25837747 1536 838.916542011 1521.24451093 890 1494 c 1
 883 1365 l 1
EndSplineSet
EndChar

StartChar: section
Encoding: 167 167 102
Width: 1233
Flags: HW
HStem: -49 144<252.865 712.308> 1288 144<336.438 775.777>
VStem: 130 171<1054.69 1245.32> 759 181<145.105 341.263> 791 134<514.24 713.133>
LayerCount: 2
Fore
SplineSet
171 167 m 1
 268.503535209 126.111420719 378.46559402 95 525 95 c 0
 674 95 756 133 759 244 c 0
 762 375 593.296437062 404.716333304 428 473 c 0
 196.296437062 568.716333304 137 639 137 755 c 0
 137 839 192 899 243 939 c 1
 199 970 127.659219201 1031.96096004 130 1149 c 0xf0
 134.659219201 1381.96096004 333 1432 513 1432 c 0
 645.222625097 1432 735.014643573 1410.99267821 815 1371 c 1
 815 1363 838 1233 838 1225 c 1
 791 1247 682 1288 512 1288 c 0
 390.962815631 1288 301 1268 301 1152 c 0
 301 1029 429.460356556 1002.64560402 597 936 c 0
 791.460356556 858.645604022 925 810 925 650 c 0xe8
 925 531 831 458 822 453 c 1
 874 416 940 343.043260233 940 239 c 0
 940 76 829 -49 531 -49 c 0
 382.126796881 -49 284.263856209 -25.1319281044 194 20 c 1
 171 167 l 1
736 501 m 1
 767.266113076 529.42373916 791 570.323450512 791 635 c 0
 791 715 720 736 549 803 c 0
 481 829 433 846 329 891 c 1
 305 876 270.106302284 832.072219088 267 791 c 0
 261.106302284 713.072219088 295.743543137 681.364939017 479 607 c 0
 571.743543137 569.364939017 678 529 736 501 c 1
EndSplineSet
EndChar

StartChar: currency
Encoding: 164 164 103
Width: 995
Flags: HW
HStem: 564 149<459.237 784.739> 1275 151<459.41 784.618>
VStem: 184 166<824.914 1163.77> 894 164<825.416 1163.01>
LayerCount: 2
Fore
SplineSet
622 1426 m 0
 736 1426 821 1396 889 1349 c 1
 1021 1484 l 1
 1095 1408 l 1
 965 1277 l 1
 1029 1198 1058 1099 1058 995 c 0
 1058 893 1031 795 968 718 c 1
 1095 590 l 1
 1025 516 l 1
 895 645 l 1
 828 595 739 564 622 564 c 0
 505 564 417 595 349 644 c 1
 222 516 l 1
 153 590 l 1
 276 715 l 1
 213 794 184 893 184 995 c 0
 184 1100 213 1200 279 1279 c 1
 153 1408 l 1
 226 1484 l 1
 356 1351 l 1
 423 1397 509 1426 622 1426 c 0
622 713 m 0
 819 713 894 850 894 995 c 0
 894 1138 820 1275 622 1275 c 0
 423 1275 350 1138 350 995 c 0
 350 850 424 713 622 713 c 0
EndSplineSet
EndChar

StartChar: quotesingle
Encoding: 39 39 104
Width: 463
Flags: HW
HStem: 956 556<165 279.219>
VStem: 133 197<1004.45 1512>
LayerCount: 2
Fore
SplineSet
133 1512 m 1
 330 1512 l 1
 330 1331 304 1119 278 956 c 1
 165 956 l 1
 140 1311 133 1440 133 1512 c 1
EndSplineSet
EndChar

StartChar: quotedblleft
Encoding: 8220 8220 105
Width: 530
Flags: HW
HStem: 1189 216<239 380 612 750> 1559 86<292.903 360.834 664.537 732.501>
VStem: 127 253<1189 1401.65> 127 112<1405 1509.67> 498 252<1189 1401.65> 498 114<1405 1509.67>
LayerCount: 2
Fore
SplineSet
750 1405 m 1xc8
 750 1189 l 1
 510 1172 l 1
 503 1229 l 1
 500 1263 498 1309 498 1354 c 0xc8
 498 1506 564 1595 728 1645 c 1
 755 1559 l 1
 657 1546 612 1471 612 1405 c 1xc4
 750 1405 l 1xc8
380 1405 m 1xe0
 380 1189 l 1
 140 1172 l 1
 134 1229 l 2
 131 1263 127 1309 127 1354 c 0xe0
 127 1506 193 1595 356 1645 c 1
 385 1559 l 1
 286 1546 239 1471 239 1405 c 1xd0
 380 1405 l 1xe0
EndSplineSet
EndChar

StartChar: guillemotleft
Encoding: 171 171 106
Width: 1182
Flags: HW
LayerCount: 2
Fore
SplineSet
256 581 m 1
 635 199 l 1
 557 80 l 1
 61 581 l 1
 557 1080 l 1
 637 962 l 1
 256 581 l 1
503 581 m 1
 1015 1065 l 1
 1094 948 l 1
 701 581 l 1
 1095 216 l 1
 1017 98 l 1
 503 581 l 1
EndSplineSet
EndChar

StartChar: guilsinglleft
Encoding: 8249 8249 107
Width: 1087
Flags: HW
VStem: 60 575
LayerCount: 2
Fore
SplineSet
255 581 m 1
 635 199 l 1
 557 80 l 1
 60 581 l 1
 557 1080 l 1
 636 962 l 1
 255 581 l 1
EndSplineSet
EndChar

StartChar: guilsinglright
Encoding: 8250 8250 108
Width: 1182
Flags: HW
VStem: 111 576
LayerCount: 2
Fore
SplineSet
492 581 m 1
 111 962 l 1
 191 1080 l 1
 687 581 l 1
 191 80 l 1
 112 199 l 1
 492 581 l 1
EndSplineSet
EndChar

StartChar: fi
Encoding: 64257 64257 109
Width: 1102
Flags: HW
HStem: 0 21G<240 433 800 994> 966 109<55 240 433 800> 1250 192<795 997> 1409 140<471.004 738.497>
VStem: 240 193<0 966 1075 1372.09> 800 194<0 966 1250 1442>
LayerCount: 2
Fore
SplineSet
748 1382 m 1
 704.247819479 1396.58406017 657.103843929 1409 599 1409 c 0
 473 1409 433 1366 433 1168 c 2
 433 1075 l 1
 994 1075 l 1
 994 0 l 1xdc
 800 0 l 1
 800 966 l 1
 433 966 l 1
 433 0 l 1
 240 0 l 1
 240 966 l 1
 55 966 l 1
 55 1075 l 1
 241 1075 l 1
 241 1125 l 1
 246 1424 336 1549 543 1549 c 0
 632.237897382 1549 684.374850487 1531.89850291 739 1508 c 1
 748 1382 l 1
795 1442 m 1xec
 997 1442 l 1
 997 1250 l 1
 795 1250 l 1
 795 1442 l 1xec
EndSplineSet
EndChar

StartChar: fl
Encoding: 64258 64258 110
Width: 1213
Flags: HW
HStem: 0 21G<246 428 926 1108> 970 109<56 246 428 682> 1373 140<469.515 744.136>
VStem: 246 182<0 970 1079 1328.86> 926 182<0 1494>
LayerCount: 2
Fore
SplineSet
926 0 m 1
 926 1494 l 1
 1108 1513 l 1
 1108 0 l 1
 926 0 l 1
428 0 m 1
 246 0 l 1
 246 970 l 1
 56 970 l 1
 56 1079 l 1
 247 1079 l 1
 247 1089 l 1
 252 1388 338 1513 553 1513 c 0
 645 1513 707 1496 746 1482 c 1
 746 1346 l 1
 706 1359 655 1373 599 1373 c 0
 474 1373 428 1330 428 1132 c 2
 428 1079 l 1
 682 1079 l 1
 682 970 l 1
 428 970 l 1
 428 0 l 1
EndSplineSet
EndChar

StartChar: endash
Encoding: 8211 8211 111
Width: 1206
Flags: HW
HStem: 798 153<142 957>
LayerCount: 2
Fore
SplineSet
957 798 m 1
 142 798 l 1
 142 951 l 1
 957 951 l 1
 957 798 l 1
EndSplineSet
EndChar

StartChar: dagger
Encoding: 8224 8224 112
Width: 1430
Flags: HW
HStem: 0 21G<630 800> 930 131<332 630 800 1098>
VStem: 630 170<0 930 1061 1405>
LayerCount: 2
Fore
SplineSet
800 1061 m 1
 1098 1061 l 1
 1098 930 l 1
 800 930 l 1
 800 0 l 1
 630 0 l 1
 630 930 l 1
 332 930 l 1
 332 1061 l 1
 630 1061 l 1
 630 1405 l 1
 800 1405 l 1
 800 1061 l 1
EndSplineSet
EndChar

StartChar: daggerdbl
Encoding: 8225 8225 113
Width: 1087
Flags: HW
HStem: 432 118<229 456 629 858> 913 118<229 456 629 858>
VStem: 456 173<136 432 550 913 1031 1318>
LayerCount: 2
Fore
SplineSet
456 432 m 1
 229 432 l 1
 229 550 l 1
 456 550 l 1
 456 913 l 1
 229 913 l 1
 229 1031 l 1
 456 1031 l 1
 456 1318 l 1
 629 1318 l 1
 629 1031 l 1
 858 1031 l 1
 858 913 l 1
 629 913 l 1
 629 550 l 1
 858 550 l 1
 858 432 l 1
 629 432 l 1
 629 136 l 1
 456 136 l 1
 456 432 l 1
EndSplineSet
EndChar

StartChar: periodcentered
Encoding: 183 183 114
Width: 1292
Flags: HW
HStem: 502 206<555 737>
VStem: 555 182<502 708>
LayerCount: 2
Fore
SplineSet
555 708 m 1
 737 708 l 1
 737 502 l 1
 555 502 l 1
 555 708 l 1
EndSplineSet
EndChar

StartChar: paragraph
Encoding: 182 182 115
Width: 1190
Flags: HW
HStem: 1367 146<640 772 949 1159>
VStem: 71 569<1041.62 1359.23> 463 177<-3 925> 772 177<-3 1367>
LayerCount: 2
Fore
SplineSet
463 -3 m 1xb0
 463 925 l 1xb0
 222 916 71 984 71 1209 c 0xd0
 71 1491.015957 279 1513 635 1513 c 2
 1159 1513 l 1
 1186 1367 l 1
 949 1367 l 1
 949 -3 l 1
 772 -3 l 1
 772 1367 l 1
 640 1367 l 1
 640 -3 l 1
 463 -3 l 1xb0
EndSplineSet
EndChar

StartChar: bullet
Encoding: 8226 8226 116
Width: 530
Flags: HW
HStem: 278 721<89.539 442.127>
VStem: -101 732<464.784 808.904>
LayerCount: 2
Fore
SplineSet
631 639 m 0
 631 399 438 278 266 278 c 0
 42 278 -101 445 -101 637 c 0
 -101 838 54 999 266 999 c 0
 476 999 631 834 631 639 c 0
EndSplineSet
EndChar

StartChar: quotesinglbase
Encoding: 8218 8218 117
Width: 1235
Flags: HW
HStem: -208 65<159 226.045> -3 208<140 267>
VStem: 140 229<-2.11233 205> 267 102<-111.149 -3>
LayerCount: 2
Fore
SplineSet
140 205 m 1xe0
 356 216 l 1
 362 168 l 2
 365 139 369 99 369 49 c 0xe0
 369 -116 302 -196 159 -208 c 1
 159 -205 141 -146 141 -143 c 1
 247 -126 267 -77 267 -3 c 1xd0
 140 -3 l 1
 140 205 l 1xe0
EndSplineSet
EndChar

StartChar: quotedblbase
Encoding: 8222 8222 118
Width: 1493
Flags: HW
HStem: -208 65<159 221.834 466 533.351> -3 208<140 266 449 574>
VStem: 140 229<3.31622 205> 266 103<-110.717 -3> 449 226<3.31622 205> 574 101<-110.717 -3>
LayerCount: 2
Fore
SplineSet
449 205 m 1xc8
 664 216 l 1
 670 168 l 2
 673 139 675 99 675 53 c 0xc8
 675 -106 614 -196 466 -208 c 1
 466 -205 448 -146 448 -143 c 1
 557 -126 574 -75 574 -3 c 1xc4
 449 -3 l 1
 449 205 l 1xc8
140 205 m 1xe0
 356 216 l 1
 362 168 l 2
 365 139 369 99 369 53 c 0
 369 -106 306 -196 159 -208 c 1
 159 -205 140 -146 140 -143 c 1xe0
 249 -126 266 -75 266 -3 c 1xd0
 140 -3 l 1
 140 205 l 1xe0
EndSplineSet
EndChar

StartChar: quotedblright
Encoding: 8221 8221 119
Width: 530
Flags: HW
HStem: 1168 85<140.278 208.409 513.278 581.097> 1408 216<122 260 495 635>
VStem: 122 252<1411.32 1624> 260 114<1303.04 1408> 495 252<1411.32 1624> 635 112<1303.04 1408>
LayerCount: 2
Fore
SplineSet
735 1640 m 1
 738.324390132 1580.16097762 747 1529.93552038 747 1459 c 0xc8
 747 1307 681 1217 518 1168 c 1
 490 1253 l 1
 588 1267 635 1339 635 1408 c 1xc4
 495 1408 l 1xc8
 495 1624 l 1
 735 1640 l 1
363 1640 m 1
 366.232294377 1581.81870121 374 1530.64657253 374 1459 c 0xe0
 374 1307 309 1217 145 1168 c 1
 117 1253 l 1
 215 1267 260 1340 260 1408 c 1xd0
 122 1408 l 1xe0
 122 1624 l 1
 363 1640 l 1
EndSplineSet
EndChar

StartChar: guillemotright
Encoding: 187 187 120
Width: 678
Flags: HW
LayerCount: 2
Fore
SplineSet
955 581 m 1
 574 962 l 1
 653 1080 l 1
 1150 581 l 1
 653 80 l 1
 575 199 l 1
 955 581 l 1
709 581 m 1
 195 98 l 1
 116 216 l 1
 509 581 l 1
 117 948 l 1
 196 1065 l 1
 709 581 l 1
EndSplineSet
EndChar

StartChar: ellipsis
Encoding: 8230 8230 121
Width: 1520
Flags: HW
HStem: -4 199<276 476 656 859 1041 1244>
VStem: 276 200<-4 195> 656 203<-4 195> 1041 203<-4 195>
LayerCount: 2
Fore
SplineSet
656 195 m 1
 859 195 l 1
 859 -4 l 1
 656 -4 l 1
 656 195 l 1
1041 195 m 1
 1244 195 l 1
 1244 -4 l 1
 1041 -4 l 1
 1041 195 l 1
276 195 m 1
 476 195 l 1
 476 -4 l 1
 276 -4 l 1
 276 195 l 1
EndSplineSet
EndChar

StartChar: perthousand
Encoding: 8240 8240 122
Width: 1087
Flags: HW
HStem: -31 109<974.221 1178.74 1678.02 1883.03> 574 108<973.42 1178.55 1677.22 1882.43> 800 109<268.559 473.646> 1405 108<269.16 473.461>
VStem: 88 129<965.923 1351.06> 524 130<965.754 1352.88> 794 128<135.185 516.531> 1229 128<129.42 522.131> 1498 128<135.185 516.531> 1932 130<129.582 522.131>
LayerCount: 2
Fore
SplineSet
206 -22 m 1
 1130 1559 l 1
 1249 1489 l 1
 321 -92 l 1
 206 -22 l 1
88 1156 m 0
 88 1395 207 1513 371 1513 c 0
 539 1513 654 1395 654 1156 c 0
 654 917 541 800 371 800 c 0
 204 800 88 917 88 1156 c 0
524 1156 m 0
 524 1310 482 1405 371 1405 c 0
 260 1405 217 1310 217 1156 c 0
 217 1005 260 909 371 909 c 0
 481 909 524 1004 524 1156 c 0
1498 326 m 0
 1498 565 1611 682 1780 682 c 0
 1948 682 2062 565 2062 326 c 0
 2062 87 1951 -31 1780 -31 c 0
 1615 -31 1498 87 1498 326 c 0
1932 326 m 0
 1932 478 1892 574 1780 574 c 0
 1669 574 1626 478 1626 326 c 0
 1626 173 1669 78 1780 78 c 0
 1892 78 1932 173 1932 326 c 0
794 326 m 0
 794 565 908 682 1076 682 c 0
 1244 682 1357 565 1357 326 c 0
 1357 87 1246 -31 1076 -31 c 0
 912 -31 794 87 794 326 c 0
1229 326 m 0
 1229 478 1188 574 1076 574 c 0
 965 574 922 478 922 326 c 0
 922 173 965 78 1076 78 c 0
 1187 78 1229 172 1229 326 c 0
EndSplineSet
EndChar

StartChar: questiondown
Encoding: 191 191 123
Width: 1182
Flags: HW
HStem: -19 157<345.81 819.223> 1293 230<573.715 741.536>
VStem: 101 177<201.632 477.242> 549 217<1317.15 1500.86> 587 159<809.327 1176>
LayerCount: 2
Fore
SplineSet
842 32 m 1
 750.338683554 6.22025474942 651.550220049 -19 533 -19 c 0
 204 -19 101 146 101 343 c 0xe8
 101 743 587 732 587 862 c 2
 587 1176 l 1
 746 1176 l 1
 746 873 l 2
 746 574 278 644 278 346 c 0
 278 198 346 138 534 138 c 0
 653.696592346 138 752.571396597 161.108217357 847 184 c 1
 847 179 842 38 842 32 c 1
766 1412 m 0xf0
 766 1348 718 1293 659 1293 c 0
 597 1293 549 1348 549 1412 c 0
 549 1473 597 1523 659 1523 c 0
 718 1523 766 1473 766 1412 c 0xf0
EndSplineSet
EndChar

StartChar: grave
Encoding: 96 96 124
Width: 1182
Flags: HW
HStem: 1216 581
VStem: 426 329
LayerCount: 2
Fore
SplineSet
663 1797 m 1
 755 1216 l 1
 679 1216 l 1
 426 1797 l 1
 663 1797 l 1
EndSplineSet
EndChar

StartChar: acute
Encoding: 180 180 125
Width: 1128
Flags: HW
HStem: 1216 581
VStem: 399 329
LayerCount: 2
Fore
SplineSet
399 1216 m 1
 491 1797 l 1
 728 1797 l 1
 475 1216 l 1
 399 1216 l 1
EndSplineSet
EndChar

StartChar: circumflex
Encoding: 710 710 126
Width: 1087
Flags: HW
HStem: 1234 519
VStem: 211 664
LayerCount: 2
Fore
SplineSet
211 1234 m 1
 442 1753 l 1
 641 1753 l 1
 875 1234 l 1
 668 1234 l 1
 547 1621 l 1
 535 1621 l 1
 417 1234 l 1
 211 1234 l 1
EndSplineSet
EndChar

StartChar: tilde
Encoding: 732 732 127
Width: 1182
Flags: HW
HStem: 1239 133<625.755 787.091> 1353 136<395.439 552.167>
VStem: 249 139<1247 1348.88> 794 138<1373.07 1475>
LayerCount: 2
Fore
SplineSet
432 1489 m 0x70
 553 1489 659 1372 740 1372 c 0
 787 1372 794 1423 794 1475 c 1
 932 1475 l 1
 932 1468 l 2
 932 1286 843 1239 752 1239 c 0xb0
 628.740111959 1239 502 1353 442 1353 c 0
 397 1353 388 1306 388 1247 c 1
 249 1247 l 1
 249 1261 l 2
 249 1441 338 1489 432 1489 c 0x70
EndSplineSet
EndChar

StartChar: macron
Encoding: 175 175 128
Width: 1520
Flags: HW
HStem: 1248 141<449 1071>
VStem: 449 622<1248 1389>
LayerCount: 2
Fore
SplineSet
1071 1248 m 1
 449 1248 l 1
 449 1389 l 1
 1071 1389 l 1
 1071 1248 l 1
EndSplineSet
EndChar

StartChar: breve
Encoding: 728 728 129
Width: 861
Flags: HW
HStem: 1253 149<259.406 600.594>
LayerCount: 2
Fore
SplineSet
430 1253 m 0
 242 1253 124 1338 66 1417 c 1
 147 1543 l 1
 209 1463 299 1402 430 1402 c 0
 561 1402 651 1463 713 1543 c 1
 794 1417 l 1
 736 1338 618 1253 430 1253 c 0
EndSplineSet
EndChar

StartChar: dotaccent
Encoding: 729 729 130
Width: 421
Flags: HW
HStem: 1235 278<126.068 322.125>
VStem: 88 274<1273.12 1473.36>
LayerCount: 2
Fore
SplineSet
362 1375 m 0
 362 1302 302 1235 223 1235 c 0
 157 1235 88 1290 88 1375 c 0
 88 1449 147 1513 223 1513 c 0
 300 1513 362 1447 362 1375 c 0
EndSplineSet
EndChar

StartChar: dieresis
Encoding: 168 168 131
Width: 1704
Flags: HW
HStem: 1226 206<543 745 958 1161>
VStem: 543 202<1226 1432> 958 203<1226 1432>
LayerCount: 2
Fore
SplineSet
543 1432 m 1
 745 1432 l 1
 745 1226 l 1
 543 1226 l 1
 543 1432 l 1
958 1432 m 1
 1161 1432 l 1
 1161 1226 l 1
 958 1226 l 1
 958 1432 l 1
EndSplineSet
EndChar

StartChar: ring
Encoding: 730 730 132
Width: 579
Flags: HW
HStem: 1188 98<183.911 401.748> 1602 97<172.558 402.385>
VStem: 27 111<1330.06 1565.44> 442 110<1325.28 1564>
LayerCount: 2
Fore
SplineSet
293 1188 m 0
 137 1188 27 1283 27 1446 c 0
 27 1603 137 1699 293 1699 c 0
 443 1699 552 1603 552 1446 c 0
 552 1282 441 1188 293 1188 c 0
293 1286 m 0
 409 1286 442 1376 442 1446 c 0
 442 1511 410 1602 293 1602 c 0
 152 1602 138 1503 138 1446 c 0
 138 1378 178 1286 293 1286 c 0
EndSplineSet
EndChar

StartChar: cedilla
Encoding: 184 184 133
Width: 1518
Flags: HW
HStem: -567 107<127.097 391.312> -435 20G<108.178 116> -18 20G<166.637 277>
VStem: 406 118<-443.442 -287.004>
LayerCount: 2
Fore
SplineSet
106 -415 m 1
 157.476397608 -435.590559043 224.599649198 -460 293 -460 c 0
 393 -460 406 -393 406 -363 c 0
 406 -264 295 -258 130 -244 c 1
 130 -231 142 -170 151 -111 c 2
 170 2 l 1
 277 2 l 1
 263.730496835 -52.7304968349 250.809328377 -107.809328377 238 -163 c 1
 340 -163 524 -188 524 -358 c 0
 524 -491 424 -567 298 -567 c 0
 216.744807199 -567 162.820523591 -545.45605088 117 -516 c 1
 106 -415 l 1
EndSplineSet
EndChar

StartChar: hungarumlaut
Encoding: 733 733 134
Width: 714
Flags: HW
HStem: 1246 530<438 489>
VStem: 71 571
LayerCount: 2
Fore
SplineSet
324 1246 m 1
 438 1776 l 1
 642 1776 l 1
 429 1246 l 1
 324 1246 l 1
71 1246 m 1
 130 1776 l 1
 325 1776 l 1
 181 1246 l 1
 71 1246 l 1
EndSplineSet
EndChar

StartChar: ogonek
Encoding: 731 731 135
Width: 591
Flags: HW
HStem: -457 123<255.868 521.4>
VStem: 85 148<-308.066 -95.1881>
LayerCount: 2
Fore
SplineSet
523 -288 m 1
 524 -414 l 1
 468 -442 403 -457 341 -457 c 0
 208 -457 85 -391 85 -243 c 0
 85 -57 245 30 393 66 c 1
 393 0 l 1
 289 -46 233 -124 233 -216 c 0
 233 -304 298 -334 368 -334 c 0
 427 -334 490 -313 523 -288 c 1
EndSplineSet
EndChar

StartChar: caron
Encoding: 711 711 136
Width: 703
Flags: HW
HStem: 1249 521
VStem: 45 613
LayerCount: 2
Fore
SplineSet
256 1249 m 1
 45 1770 l 1
 241 1770 l 1
 344 1378 l 1
 359 1378 l 1
 464 1770 l 1
 658 1770 l 1
 448 1249 l 1
 256 1249 l 1
EndSplineSet
EndChar

StartChar: emdash
Encoding: 8212 8212 137
Width: 1182
Flags: HW
HStem: 741 148<141 1158>
LayerCount: 2
Fore
SplineSet
1158 741 m 1
 141 741 l 1
 141 889 l 1
 1158 889 l 1
 1158 741 l 1
EndSplineSet
EndChar

StartChar: AE
Encoding: 198 198 138
Width: 1163
Flags: HW
HStem: 0 154<941 1549> 303 140<408 743> 700 153<941 1474> 1330 154<941 1536>
VStem: 743 198<154 303 443 700 853 1330>
LayerCount: 2
Fore
SplineSet
1549 0 m 1
 743 0 l 1
 743 303 l 1
 370 303 l 1
 253 0 l 1
 20 0 l 1
 612 1484 l 1
 1536 1484 l 1
 1536 1330 l 1
 941 1330 l 1
 941 853 l 1
 1474 853 l 1
 1474 700 l 1
 941 700 l 1
 941 154 l 1
 1549 154 l 1
 1549 0 l 1
631 1011 m 1
 408 443 l 1
 743 443 l 1
 743 1344 l 1
 631 1011 l 1
EndSplineSet
EndChar

StartChar: ordfeminine
Encoding: 170 170 139
Width: 1534
Flags: HW
HStem: 313 82<208 840> 541 104<280.26 546.813> 556 104<735.59 807> 910 89<306.472 601> 1261 110<204.228 571.666>
VStem: 123 132<672.124 863.575> 601 134<684.105 910 999 1233.65> 611 196<571.626 645>
LayerCount: 2
Fore
SplineSet
208 313 m 1x9c
 208 395 l 1
 840 395 l 1
 840 313 l 1
 208 313 l 1x9c
601 910 m 1xde
 482 910 l 2
 400 910 255 898 255 762 c 0
 255 683 308 645 402 645 c 0
 496 645 564 682 601 713 c 1
 601 910 l 1xde
735 1028 m 2
 735 726 l 2xde
 735 666 744 660 782 660 c 0
 793 660 807 661 817 661 c 1
 807 556 l 1xbd
 807 556 744 553 721 553 c 0
 638 553 611 617 611 645 c 1xdd
 579 600 510 541 355 541 c 0
 216 541 123 629 123 768 c 0
 123 953 297 999 473 999 c 2
 601 999 l 1
 601 1071 l 2
 601 1236 558 1261 441 1261 c 0
 337 1261 248 1236 186 1212 c 1
 202 1327 l 1
 251 1347 326 1371 451 1371 c 0
 679 1371 735 1280 735 1028 c 2
EndSplineSet
EndChar

StartChar: Lslash
Encoding: 321 321 140
Width: 1014
Flags: HW
HStem: 0 153<402 1004>
VStem: 207 195<153 675 908 1483>
LayerCount: 2
Fore
SplineSet
1004 0 m 1
 207 0 l 1
 207 675 l 1
 52 608 l 1
 52 760 l 1
 207 828 l 1
 207 1483 l 1
 402 1483 l 1
 402 908 l 1
 768 1068 l 1
 768 916 l 1
 402 755 l 1
 402 153 l 1
 1021 153 l 1
 1004 0 l 1
EndSplineSet
EndChar

StartChar: Oslash
Encoding: 216 216 141
Width: 1520
Flags: HW
HStem: -25 159<563.589 955.731> 1384 158<563.8 955.731>
VStem: 126 201<428.617 1089.22> 1192 202<428.411 1089.22>
LayerCount: 2
Fore
SplineSet
316 -112 m 1
 1128 1670 l 1
 1188 1636 l 1
 376 -142 l 1
 316 -112 l 1
327 760 m 0
 327 364 454 134 759 134 c 0
 1067 134 1192 364 1192 760 c 0
 1192 1153 1067 1384 759 1384 c 0
 455 1384 327 1153 327 760 c 0
126 760 m 0
 126 1288 349 1542 759 1542 c 0
 1172 1542 1394 1288 1394 760 c 0
 1394 226 1172 -25 759 -25 c 0
 349 -25 126 227 126 760 c 0
EndSplineSet
EndChar

StartChar: OE
Encoding: 338 338 142
Width: 1087
Flags: HW
HStem: -19 156<545.685 915.978> 0 154<1332 1988> 717 153<1332 1890> 1360 153<1332 1978> 1387 155<542.092 916.56>
VStem: 126 209<414.605 1112.63> 1122 210<404.789 717 870 1125.96> 1137 195<154 227 1309 1360>
LayerCount: 2
Fore
SplineSet
728 1542 m 0xad
 957.499255025 1542 1078.95514442 1447.66271056 1137 1309 c 1
 1137 1513 l 1
 1978 1513 l 1
 1978 1360 l 1
 1332 1360 l 1x35
 1332 870 l 1
 1890 870 l 1
 1890 717 l 1
 1332 717 l 1x36
 1332 154 l 1
 1988 154 l 1
 1988 0 l 1
 1137 0 l 1x75
 1137 227 l 1
 1119 173 1089.54625751 134.779555861 1056 104 c 0
 992.546257511 45.7795558605 891 -19 728 -19 c 0
 399 -17 125 182 126 762 c 0xa5
 126 1242.27126455 311.30371635 1542 728 1542 c 0xad
728 1387 m 0
 411.280782109 1387 335 1107.30840545 335 762 c 0
 335 283 493 137 728 137 c 0
 968 137 1122 283 1122 762 c 0xae
 1122 1108.67340268 1047.72177133 1387 728 1387 c 0
EndSplineSet
EndChar

StartChar: ordmasculine
Encoding: 186 186 143
Width: 1182
Flags: HW
HStem: 313 82<200 778> 542 108<302.72 568.416> 1254 109<296.204 569.802>
VStem: 83 138<739.782 1168.27> 647 138<737.253 1168.27>
LayerCount: 2
Fore
SplineSet
200 313 m 1
 200 395 l 1
 778 395 l 1
 778 313 l 1
 200 313 l 1
437 1363 m 0
 676 1363 785 1201 785 951 c 0
 785 709 676 542 437 542 c 0
 194 542 83 709 83 951 c 0
 83 1201 194 1363 437 1363 c 0
437 650 m 0
 598 650 647 774 647 952 c 0
 647 1145 595 1254 437 1254 c 0
 272 1254 221 1145 221 952 c 0
 221 774 272 650 437 650 c 0
EndSplineSet
EndChar

StartChar: ae
Encoding: 230 230 144
Width: 1081
Flags: HW
HStem: -29 141<311.934 684.503> 469 115<352.319 760> 522 118<966 1467> 946 144<1084.01 1378.84>
VStem: 86 178<160.965 392.509> 760 206<640 813.331> 1467 167<641.39 855.12>
LayerCount: 2
Fore
SplineSet
1590 162 m 1xbe
 1565 21 l 1
 1474.12838674 -9.29053775475 1387.88937371 -29 1253 -29 c 0
 1091 -29 969 21 887 122 c 1
 846 81 695 -29 406 -29 c 0
 216 -29 86 82 86 282 c 0
 86 571 412.116150063 594.618996835 636 584 c 0xde
 665.116150063 582.618996835 695.880966412 579.808927519 720 578 c 2
 760 575 l 1
 760 686 l 2
 760 871 713.943256198 927.360599449 583 939 c 0
 443.943256198 951.360599449 303 927 172 880 c 1
 193 1020 l 1
 420.842965146 1136.74598214 833.805135913 1133.2860022 885 883 c 1
 963 1040 1095 1090 1233 1090 c 0
 1499 1090 1634 908.064755976 1634 715 c 0
 1634 656 1624 551 1618 522 c 1
 962 522 l 1
 962 484 l 2
 962 235 1066.739744 140.911508296 1211 123 c 0
 1364.739744 103.911508296 1515 145 1590 162 c 1xbe
600 469 m 0
 452 469 264 457 264 275 c 0
 264 160 337 112 464 112 c 0
 648 112 786 206 814 229 c 1
 786 293 768 394 764 462 c 1
 710 465 l 2
 677 466 637 469 600 469 c 0
1238 946 m 0
 1100 946 982 871 966 640 c 1
 1466 640 l 1xbe
 1467 639 1467 669 1467 691 c 0
 1462 870 1368 946 1238 946 c 0
EndSplineSet
EndChar

StartChar: dotlessi
Encoding: 305 305 145
Width: 492
Flags: HW
HStem: 0 21G<166 352>
VStem: 166 186<0 1075>
LayerCount: 2
Fore
SplineSet
352 0 m 1
 166 0 l 1
 166 1075 l 1
 352 1075 l 1
 352 0 l 1
EndSplineSet
EndChar

StartChar: lslash
Encoding: 322 322 146
Width: 683
Flags: HW
HStem: 0 21G<275 469>
VStem: 275 194<0 751 999 1548>
LayerCount: 2
Fore
SplineSet
275 0 m 1
 275 751 l 1
 39 637 l 1
 39 790 l 1
 275 903 l 1
 275 1548 l 1
 469 1575 l 1
 469 999 l 1
 699 1111 l 1
 699 959 l 1
 469 848 l 1
 469 0 l 1
 275 0 l 1
EndSplineSet
EndChar

StartChar: oslash
Encoding: 248 248 147
Width: 1182
Flags: HW
HStem: -19 147<464.213 750.56> 949 149<427.789 752.599>
VStem: 113 188<282.648 806.426> 882 187<276.564 806.426>
LayerCount: 2
Fore
SplineSet
329 -207 m 1
 239 -165 l 1
 892 1291 l 1
 979 1246 l 1
 329 -207 l 1
596 1098 m 0
 921 1098 1069 877 1069 537 c 0
 1069 208 921 -19 596 -19 c 0
 264 -19 113 208 113 537 c 0
 113 877 264 1098 596 1098 c 0
596 128 m 0
 815 128 882 297 882 539 c 0
 882 801 810 949 596 949 c 0
 370 949 301 801 301 539 c 0
 301 297 370 128 596 128 c 0
EndSplineSet
EndChar

StartChar: oe
Encoding: 339 339 148
Width: 1775
Flags: HW
HStem: -19 147<437.314 753.313 1214.06 1656.73> 522 118<1074 1593> 949 149<427.789 756.523 1192.99 1510.34>
VStem: 113 188<282.648 806.426> 882 188<278.904 522 640 807.172> 1595 167<643.74 863.016>
LayerCount: 2
Fore
SplineSet
596 1098 m 0
 776 1098 902 1030 978 911 c 1
 1064 1039 1200.98750049 1098 1361 1098 c 0
 1626 1098 1762 916.064755976 1762 723 c 0
 1762 662 1754 550 1745 522 c 1
 1070 522 l 1
 1070 514 l 2
 1070 222 1200 128 1408 128 c 0
 1547 128 1640 167 1717 194 c 1
 1716 42 l 1
 1648 13 1541 -19 1394 -19 c 0
 1198 -19 1058 42 974 163 c 1
 898 48 773 -19 596 -19 c 0
 264 -19 113 208 113 537 c 0
 113 877 264 1098 596 1098 c 0
596 128 m 0
 815 128 882 297 882 539 c 0
 882 801 810 949 596 949 c 0
 370 949 301 801 301 539 c 0
 301 297 370 128 596 128 c 0
1365 954 m 0
 1223 954 1093 888 1074 640 c 1
 1593 640 l 1
 1593 640 1595 681 1595 699 c 0
 1589 878 1495 954 1365 954 c 0
EndSplineSet
EndChar

StartChar: germandbls
Encoding: 223 223 149
Width: 1204
Flags: HW
HStem: -25 152<516.718 861.056> -1 21G<174 371> 1388 155<441.075 732.53>
VStem: 174 197<-1 1305.2> 790 185<1047.57 1335.75> 935 177<198.547 504.107>
LayerCount: 2
Fore
SplineSet
580 1388 m 0xb8
 405 1388 371 1265 371 1083 c 2
 371 -1 l 1
 174 -1 l 1
 174 1081 l 2
 174 1391 307 1543 580 1543 c 0
 855 1543 975 1404 975 1238 c 0x78
 975 1061 867 879 786 761 c 1
 995 709 1112 516 1112 334 c 0
 1112 148 991 -25 725 -25 c 0
 615 -25 528 0 482 17 c 1
 481 186 l 1
 571 147 653 127 722 127 c 0
 852 127 935 199 935 356 c 0xb4
 935 502 815 664 572 664 c 1
 711 1003 790 1078 790 1233 c 0
 790 1324 717 1388 580 1388 c 0xb8
EndSplineSet
EndChar

StartChar: onesuperior
Encoding: 185 185 150
Width: 1290
Flags: HW
HStem: 0 21G<304 472>
VStem: 304 168<0 840>
LayerCount: 2
Fore
SplineSet
304 0 m 1
 304 280 304 560 304 840 c 1
 238.240734019 803.425932648 170.858329771 768.475003563 103 734 c 1
 45 873 l 1
 343 1017 l 1
 472 989 l 1
 472 0 l 1
 304 0 l 1
EndSplineSet
EndChar

StartChar: logicalnot
Encoding: 172 172 151
Width: 1182
Flags: HW
HStem: 729 151<110 1079>
VStem: 1079 190<125 729>
LayerCount: 2
Fore
SplineSet
1269 125 m 1
 1079 125 l 1
 1079 729 l 1
 110 729 l 1
 110 880 l 1
 1269 880 l 1
 1269 125 l 1
EndSplineSet
EndChar

StartChar: mu
Encoding: 181 181 152
Width: 1217
Flags: HW
HStem: -29 148<446.758 753.748>
VStem: 180 193<197 1073> 180 163<-316 126> 879 195<206.264 1073> 934 140<3 73.0535>
LayerCount: 2
Fore
SplineSet
580 119 m 0
 714.624033288 119 809.028662977 178.626369939 879 243 c 1
 879 1073 l 1
 1074 1073 l 1xd0
 1074 3 l 1
 934 -8 l 1
 908 139 l 1
 837.524226996 48.7910105555 729.639092683 -29 562 -29 c 0
 437 -29 364 39 347 126 c 1
 343 -316 l 1
 180 -316 l 1xa8
 180 1073 l 1
 373 1073 l 1
 373 458 l 2
 373 214 424 119 580 119 c 0
EndSplineSet
EndChar

StartChar: trademark
Encoding: 8482 8482 153
Width: 1182
Flags: HW
HStem: 1400 79<116 255 357 497>
VStem: 255 102<945 1400> 559 94<945 1435> 917 148<1427.34 1479> 971 94<945 1441>
LayerCount: 2
Fore
SplineSet
497 1400 m 1xe0
 357 1400 l 1
 357 945 l 1
 255 945 l 1
 255 1400 l 1
 116 1400 l 1
 116 1479 l 1
 497 1479 l 1
 497 1400 l 1xe0
1065 945 m 1xe8
 971 945 l 1
 971 1234 l 1xe8
 984 1441 l 1
 942 1249 l 1
 915 1149 890 1054 862 953 c 1
 761 953 l 1
 714 1113 675 1272 641 1435 c 1
 653 1234 l 1
 653 1137.66666667 653 1041.33333333 653 945 c 1
 559 945 l 1
 559 1479 l 1
 707 1479 l 1
 728 1392 752 1309 772 1220 c 2
 812 1038 l 1
 851 1247 l 1
 875.147245919 1322.18608741 894.848773145 1401.81789352 917 1479 c 1
 1065 1479 l 1xf0
 1065 945 l 1xe8
EndSplineSet
EndChar

StartChar: Eth
Encoding: 208 208 154
Width: 1024
Flags: HW
HStem: 0 146<406 914.085> 713 136<47 204 406 644> 1362 151<406 925.949>
VStem: 204 202<146 713 849 1362> 1140 198<390.971 1123.45>
LayerCount: 2
Fore
SplineSet
1338 789 m 0
 1338 276.794619016 1200.77144121 0 687 0 c 2
 204 0 l 1
 204 713 l 1
 47 713 l 1
 47 849 l 1
 204 849 l 1
 204 1513 l 1
 638 1513 l 2
 1107.70339111 1513 1338 1334.93219164 1338 789 c 0
1140 780 m 0
 1140 1157.69601619 1054.98298578 1362 693 1362 c 2
 406 1362 l 1
 406 849 l 1
 644 849 l 1
 644 713 l 1
 406 713 l 1
 406 146 l 1
 619 146 l 2
 1064.10741908 146 1140 331.056359555 1140 780 c 0
EndSplineSet
EndChar

StartChar: onehalf
Encoding: 189 189 155
Width: 1520
Flags: HW
HStem: 0 143<1507 1948> 894 146<1378.51 1754.59>
VStem: 309 168<465 1305> 1796 180<638.343 853.308>
LayerCount: 2
Fore
SplineSet
1636 1040 m 0
 1863 1040 1976 929 1976 764 c 0
 1976 643 1908.08891667 551.902337129 1815 457 c 2
 1507 143 l 1
 1960 143 l 1
 1948 0 l 1
 1319 0 l 1
 1298 143 l 1
 1699 571 l 1
 1744 622 1796 692 1796 760 c 0
 1796 837 1739 894 1616 894 c 0
 1510.16297448 894 1402.542866 857.180955334 1318 829 c 1
 1338 982 l 1
 1421.44173308 1014.78068085 1517.95628924 1040 1636 1040 c 0
309 465 m 1
 309 745 309 1025 309 1305 c 1
 243.240734019 1268.42593265 175.858329771 1233.47500356 108 1199 c 1
 50 1338 l 1
 348 1482 l 1
 477 1454 l 1
 477 465 l 1
 309 465 l 1
1219 1508 m 1
 1368 1454 l 1
 651 14 l 1
 504 71 l 1
 1219 1508 l 1
EndSplineSet
EndChar

StartChar: plusminus
Encoding: 177 177 156
Width: 1128
Flags: HW
HStem: -5 120<151 977> 802 129<151 489 642 977>
VStem: 489 153<424 802 931 1313>
LayerCount: 2
Fore
SplineSet
977 -5 m 1
 151 -5 l 1
 151 115 l 1
 977 115 l 1
 977 -5 l 1
977 802 m 1
 642 802 l 1
 642 424 l 1
 489 424 l 1
 489 802 l 1
 151 802 l 1
 151 931 l 1
 489 931 l 1
 489 1313 l 1
 642 1313 l 1
 642 931 l 1
 977 931 l 1
 977 802 l 1
EndSplineSet
EndChar

StartChar: Thorn
Encoding: 222 222 157
Width: 1204
Flags: HW
HStem: 0 21G<191 385> 386 153<385 861.111> 1128 152<386 885.338>
VStem: 191 194<0 388 539 1128 1280 1484> 1000 204<653.228 1029.11>
LayerCount: 2
Fore
SplineSet
385 539 m 1
 569 539 l 2
 910 539 1000 623 1000 829 c 0
 1000 1078 918 1128 540 1128 c 2
 385 1128 l 1
 385 539 l 1
1204 827 m 0
 1204 502 1007 386 552 386 c 2
 452 386 l 2
 431 386 409 386 385 388 c 1
 385 0 l 1
 191 0 l 1
 191 1484 l 1
 385 1484 l 1
 386 1280 l 1
 516 1280 l 2
 1059 1280 1204 1169 1204 827 c 0
EndSplineSet
EndChar

StartChar: onequarter
Encoding: 188 188 158
Width: 717
Flags: HW
HStem: 14 21G<585.421 646.958> 226 127<1256 1599 1764 1933>
VStem: 308 168<466 1306> 1599 165<0 226 353 898>
LayerCount: 2
Fore
SplineSet
1069 337 m 1
 1516 1014 l 1
 1764 1007 l 1
 1764 353 l 1
 1933 353 l 1
 1933 226 l 1
 1764 226 l 1
 1764 0 l 1
 1599 -6 l 1
 1599 226 l 1
 1115 226 l 1
 1069 337 l 1
1452 353 m 1
 1599 353 l 1
 1599 645 l 1
 1603 898 l 1
 1489.92248619 712.744180478 1373.93938131 530.393952028 1256 350 c 1
 1452 353 l 1
308 466 m 1
 308 746 308 1026 308 1306 c 1
 242.240734019 1269.42593265 174.858329771 1234.47500356 107 1200 c 1
 49 1339 l 1
 347 1483 l 1
 476 1455 l 1
 476 466 l 1
 308 466 l 1
1205 1508 m 1
 1354 1454 l 1
 637 14 l 1
 490 71 l 1
 1205 1508 l 1
EndSplineSet
EndChar

StartChar: divide
Encoding: 247 247 159
Width: 1182
Flags: HW
HStem: 256 187<502 686> 549 126<186 995> 770 186<502 686>
VStem: 502 184<256 443 770 956>
LayerCount: 2
Fore
SplineSet
686 770 m 1
 502 770 l 1
 502 956 l 1
 686 956 l 1
 686 770 l 1
995 549 m 1
 186 549 l 1
 186 675 l 1
 995 675 l 1
 995 549 l 1
686 256 m 1
 502 256 l 1
 502 443 l 1
 686 443 l 1
 686 256 l 1
EndSplineSet
EndChar

StartChar: brokenbar
Encoding: 166 166 160
Width: 1341
Flags: HW
VStem: 186 190<-145 607 858 1551>
LayerCount: 2
Fore
SplineSet
376 -145 m 1
 186 -145 l 1
 186 607 l 1
 376 607 l 1
 376 -145 l 1
376 858 m 1
 186 858 l 1
 186 1551 l 1
 376 1551 l 1
 376 858 l 1
EndSplineSet
EndChar

StartChar: degree
Encoding: 176 176 161
Width: 1448
Flags: HW
HStem: 795 120<624.275 822.549> 1161 116<624.921 822.142>
VStem: 480 118<940.225 1134.54> 848 120<940.282 1133.97>
LayerCount: 2
Fore
SplineSet
848 1037 m 0
 848 1109 802 1161 723 1161 c 0
 647 1161 598 1110 598 1037 c 0
 598 966 643 915 723 915 c 0
 799 915 848 965 848 1037 c 0
968 1037 m 0
 968 899 866 795 723 795 c 0
 582 795 480 898 480 1037 c 0
 480 1176 582 1277 723 1277 c 0
 866 1277 968 1174 968 1037 c 0
EndSplineSet
EndChar

StartChar: thorn
Encoding: 254 254 162
Width: 379
Flags: HW
HStem: -19 147<474.299 769.366> 951 149<461.495 776.494>
VStem: 178 195<-358 106 194.178 892.088 1009 1551> 899 195<285.036 804.928>
LayerCount: 2
Fore
SplineSet
660 -19 m 0
 519.848028787 -19 432.700253275 35.485424829 371 106 c 1
 371 -367 l 1
 178 -358 l 1
 178 1551 l 1
 373 1578 l 1
 373 1009 l 1
 449.186358397 1060.80672371 546.730010167 1100 682 1100 c 0
 905 1100 1094 935 1094 534 c 0
 1094 123 873 -19 660 -19 c 0
644 951 m 0
 526.749516101 951 444.465629589 909.688283927 373 868 c 1
 373 229 l 1
 432.782195072 174.911347315 515.268575371 128 632 128 c 0
 777 128 899 238 899 530 c 0
 899 798 816 951 644 951 c 0
EndSplineSet
EndChar

StartChar: threequarters
Encoding: 190 190 163
Width: 1706
Flags: HW
HStem: 14 21G<832.421 893.958> 226 127<1442 1785 1950 2119> 409 137<162.706 598.479> 864 135<304 562.291> 1298 135<153.886 577.413>
VStem: 615 168<1049.99 1259.18> 648 179<595.383 802.724> 1785 165<0 226 353 898>
LayerCount: 2
Fore
SplineSet
1255 337 m 1xf9
 1702 1014 l 1
 1950 1007 l 1
 1950 353 l 1
 2119 353 l 1
 2119 226 l 1
 1950 226 l 1
 1950 0 l 1
 1785 -6 l 1
 1785 226 l 1
 1301 226 l 1
 1255 337 l 1xf9
1638 353 m 1
 1785 353 l 1
 1785 645 l 1
 1789 898 l 1
 1675.92248619 712.744180478 1559.93938131 530.393952028 1442 350 c 1
 1638 353 l 1
138 598 m 1
 223.750917028 572.274724892 314.59421686 546 428 546 c 0
 574 546 648 596 648 698 c 0xfb
 648 811 562 864 304 864 c 1
 304 999 l 1
 545 999 615 1047 615 1153 c 0
 615 1263 543 1298 403 1298 c 0
 299 1298 156 1265 131 1259 c 1
 153 1393 l 1
 226.424652734 1415.59220084 315.018495746 1433 408 1433 c 0
 672 1433 783 1341 783 1171 c 0xfd
 783 994 610 950 577 936 c 1
 619 932 827 910 827 692 c 0xfb
 827 486 643 409 425 409 c 0
 273 409 127 462 108 468 c 1
 138 598 l 1
1452 1508 m 1
 1601 1454 l 1
 884 14 l 1
 737 71 l 1
 1452 1508 l 1
EndSplineSet
EndChar

StartChar: twosuperior
Encoding: 178 178 164
Width: 1128
Flags: HW
HStem: 0 143<307 748> 894 146<178.514 554.585>
VStem: 596 180<638.343 853.308>
LayerCount: 2
Fore
SplineSet
436 1040 m 0
 663 1040 776 929 776 764 c 0
 776 643 708.088916674 551.902337129 615 457 c 2
 307 143 l 1
 760 143 l 1
 748 0 l 1
 119 0 l 1
 98 143 l 1
 499 571 l 1
 544 622 596 692 596 760 c 0
 596 837 539 894 416 894 c 0
 310.162974475 894 202.542866002 857.180955334 118 829 c 1
 138 982 l 1
 221.44173308 1014.78068085 317.956289238 1040 436 1040 c 0
EndSplineSet
EndChar

StartChar: registered
Encoding: 174 174 165
Width: 1745
Flags: HW
HStem: 508 87<456.594 827.763> 997 76<568 608> 1248 76<568 742.885> 1471 88<456.594 827.763>
VStem: 116 91<839.211 1225.62> 473 92<758 997 1073 1248> 752 91<1084.93 1237.65> 1077 90<839.211 1225.62>
LayerCount: 2
Fore
SplineSet
568 1248 m 1
 568 1073 l 1
 620 1073 l 2
 726 1073 752 1097 752 1165 c 0
 752 1228 732 1248 597 1248 c 2
 568 1248 l 1
854 758 m 1
 753 758 l 1
 608 997 l 1
 565 997 l 1
 565 758 l 1
 473 758 l 1
 473 1324 l 1
 599 1324 l 2
 796 1324 843 1270 843 1165 c 0
 843 1067 803 1026 694 1006 c 1
 702 994 711 981 719 968 c 0
 763.754884293 897.754884293 808.884226818 827.884226818 854 758 c 1
116 1033 m 0
 116 1325 350 1559 642 1559 c 0
 935 1559 1167 1325 1167 1033 c 0
 1167 741 935 508 642 508 c 0
 350 508 116 741 116 1033 c 0
207 1032 m 0
 207 782 400 595 642 595 c 0
 885 595 1077 782 1077 1032 c 0
 1077 1280 885 1471 642 1471 c 0
 400 1471 207 1280 207 1032 c 0
EndSplineSet
EndChar

StartChar: minus
Encoding: 8722 8722 166
Width: 1128
Flags: HW
HStem: 479 143<167 869>
LayerCount: 2
Fore
SplineSet
869 622 m 1
 869 479 l 1
 167 479 l 1
 167 622 l 1
 869 622 l 1
EndSplineSet
EndChar

StartChar: eth
Encoding: 240 240 167
Width: 924
Flags: HW
HStem: -19 151<464.457 821.591> 730 145<440.241 817.193> 1425 20G<654 797>
VStem: 144 190<257.867 621.42> 973 203<320.44 637.671 740 922.094>
LayerCount: 2
Fore
SplineSet
891 1071 m 1
 672 997 l 1
 634 1113 l 1
 839 1181 l 1
 790 1284 684 1409 624 1445 c 1
 797 1444 l 1
 880 1385 943 1313 993 1232 c 1
 1205 1306 l 1
 1243 1189 l 1
 1055 1124 l 1
 1139 954 1176 778 1176 597 c 0
 1176 235 1002 -19 663 -19 c 0
 302 -19 144 210 144 452 c 0
 144 691 270 875 593 875 c 0
 794 875 951 764 975 740 c 1
 972 847 945 978 891 1071 c 1
973 613 m 1
 878.440971163 669.735417302 756.090374425 730 608 730 c 0
 416 730 334 620 334 449 c 0
 334 233 445 132 655 132 c 0
 893 132 973 320 973 551 c 2
 973 613 l 1
EndSplineSet
EndChar

StartChar: multiply
Encoding: 215 215 168
Width: 1194
Flags: HW
HStem: 238 629
VStem: 282 629
LayerCount: 2
Fore
SplineSet
911 763 m 1
 698 552 l 1
 911 340 l 1
 808 238 l 1
 596 450 l 1
 384 238 l 1
 282 340 l 1
 493 552 l 1
 282 763 l 1
 384 867 l 1
 596 655 l 1
 808 867 l 1
 911 763 l 1
EndSplineSet
EndChar

StartChar: threesuperior
Encoding: 179 179 169
Width: 1128
Flags: HW
HStem: -26 137<150.706 586.479> 429 135<292 550.291> 863 135<141.886 565.413>
VStem: 603 168<614.994 824.181> 636 179<160.383 367.724>
LayerCount: 2
Fore
SplineSet
126 163 m 1
 211.750917028 137.274724892 302.59421686 111 416 111 c 0
 562 111 636 161 636 263 c 0xe8
 636 376 550 429 292 429 c 1
 292 564 l 1
 533 564 603 612 603 718 c 0
 603 828 531 863 391 863 c 0
 287 863 144 830 119 824 c 1
 141 958 l 1
 214.424652734 980.592200841 303.018495746 998 396 998 c 0
 660 998 771 906 771 736 c 0xf0
 771 559 598 515 565 501 c 1
 607 497 815 475 815 257 c 0
 815 51 631 -26 413 -26 c 0
 261 -26 115 27 96 33 c 1xe8
 126 163 l 1
EndSplineSet
EndChar

StartChar: copyright
Encoding: 169 169 170
Width: 1704
Flags: HW
HStem: -18 112<621.028 1080.06> 261 113<707.092 1055.51> 1116 113<711.136 1070.3> 1399 112<624.183 1087.27>
VStem: 100 126<498.603 991.341> 446 132<513.297 972.36> 1479 125<497.742 982.77>
LayerCount: 2
Fore
SplineSet
1479 746 m 0
 1479 1073 1242 1399 854 1399 c 0
 496 1399 226 1112 226 746 c 0
 226 376 487 94 854 94 c 0
 1192 94 1479 354 1479 746 c 0
1604 746 m 0
 1604 278 1233 -18 852 -18 c 0
 432 -18 100 307 100 746 c 0
 100 1178 439 1511 852 1511 c 0
 1302 1511 1604 1138 1604 746 c 0
1112 1067 m 1
 1041.90413416 1092.48940576 972.25921424 1116 870 1116 c 0
 650 1116 578 948 578 746 c 0
 578 531 647 374 870 374 c 0
 1004 374 1107 434 1112 439 c 1
 1105 330 l 1
 1094 324 987 261 862 261 c 0
 558 261 446 500 446 746 c 0
 446 1025 587 1229 862 1229 c 0
 982 1229 1097 1174 1105 1169 c 1
 1112 1067 l 1
EndSplineSet
EndChar

StartChar: Aacute
Encoding: 193 193 171
Width: 1245
Flags: HW
HStem: 0 21G<0 212.047 1033.01 1245> 344 118<345 900>
LayerCount: 2
Fore
SplineSet
936 344 m 1
 310 344 l 1
 206 0 l 1
 0 0 l 1
 521 1513 l 1
 733 1513 l 1
 1245 0 l 1
 1039 0 l 1
 936 344 l 1
628 1309 m 1
 345 462 l 1
 900 462 l 1
 628 1309 l 1
592 1650 m 1
 684 2231 l 1
 921 2231 l 1
 668 1650 l 1
 592 1650 l 1
EndSplineSet
EndChar

StartChar: Agrave
Encoding: 192 192 174
Width: 1245
Flags: HW
HStem: 0 21G<0 212.047 1033.01 1245> 344 118<345 900>
LayerCount: 2
Fore
SplineSet
936 344 m 1
 310 344 l 1
 206 0 l 1
 0 0 l 1
 521 1513 l 1
 733 1513 l 1
 1245 0 l 1
 1039 0 l 1
 936 344 l 1
628 1309 m 1
 345 462 l 1
 900 462 l 1
 628 1309 l 1
554 2230 m 1
 646 1649 l 1
 570 1649 l 1
 317 2230 l 1
 554 2230 l 1
EndSplineSet
EndChar

StartChar: Atilde
Encoding: 195 195 176
Width: 1245
Flags: HW
HStem: 0 21G<0 212.047 1033.01 1245> 344 118<345 900> 1672 133<620.755 782.091> 1786 136<390.439 547.167>
VStem: 244 139<1680 1781.88> 789 138<1806.07 1908>
LayerCount: 2
Fore
SplineSet
936 344 m 1xcc
 310 344 l 1
 206 0 l 1
 0 0 l 1
 521 1513 l 1
 733 1513 l 1
 1245 0 l 1
 1039 0 l 1
 936 344 l 1xcc
628 1309 m 1
 345 462 l 1
 900 462 l 1
 628 1309 l 1
427 1922 m 0xdc
 548 1922 654 1805 735 1805 c 0
 782 1805 789 1856 789 1908 c 1
 927 1908 l 1
 927 1901 l 2
 927 1719 838 1672 747 1672 c 0xec
 623.740111959 1672 497 1786 437 1786 c 0
 392 1786 383 1739 383 1680 c 1
 244 1680 l 1
 244 1694 l 2
 244 1874 333 1922 427 1922 c 0xdc
EndSplineSet
EndChar

StartChar: Ccedilla
Encoding: 199 199 177
Width: 997
Flags: HW
HStem: -567 107<639.097 903.312> -435 20G<620.178 628> -25 27<682 788.112> 1384 158<579.569 1084.91>
VStem: 126 209<420.392 1099.29> 918 118<-443.442 -287.004>
LayerCount: 2
Fore
SplineSet
780 -25 m 0
 407 -25 126 159 126 766 c 0
 126 1350 412 1542 801 1542 c 0
 962 1542 1077 1508 1150 1479 c 1
 1149 1316 l 1
 1069 1349 955 1384 793 1384 c 0
 508.971832383 1384 335 1235 335 768 c 0
 335 302.990322681 482 134 783 134 c 0
 946 134 1060 173 1149 210 c 1
 1149 45 l 1
 1068 11 954 -25 780 -25 c 0
618 -415 m 1
 669.476397608 -435.590559043 736.599649198 -460 805 -460 c 0
 905 -460 918 -393 918 -363 c 0
 918 -264 807 -258 642 -244 c 1
 642 -231 654 -170 663 -111 c 2
 682 2 l 1
 789 2 l 1
 775.730496835 -52.7304968349 762.809328377 -107.809328377 750 -163 c 1
 852 -163 1036 -188 1036 -358 c 0
 1036 -491 936 -567 810 -567 c 0
 728.744807199 -567 674.820523591 -545.45605088 629 -516 c 1
 618 -415 l 1
EndSplineSet
EndChar

StartChar: Ecircumflex
Encoding: 202 202 179
Width: 1081
Flags: HW
HStem: 0 153<398 945> 706 146<398 829> 1360 153<398 946>
VStem: 199 199<153 706 852 1360>
LayerCount: 2
Fore
SplineSet
945 0 m 1
 199 0 l 1
 199 1513 l 1
 971 1513 l 1
 946 1360 l 1
 398 1360 l 1
 398 852 l 1
 829 852 l 1
 829 706 l 1
 398 706 l 1
 398 153 l 1
 969 153 l 1
 945 0 l 1
238 1668 m 1
 469 2187 l 1
 668 2187 l 1
 902 1668 l 1
 695 1668 l 1
 574 2055 l 1
 562 2055 l 1
 444 1668 l 1
 238 1668 l 1
EndSplineSet
EndChar

StartChar: Egrave
Encoding: 200 200 181
Width: 1081
Flags: HW
HStem: 0 153<398 945> 706 146<398 829> 1360 153<398 946>
VStem: 199 199<153 706 852 1360>
LayerCount: 2
Fore
SplineSet
945 0 m 1
 199 0 l 1
 199 1513 l 1
 971 1513 l 1
 946 1360 l 1
 398 1360 l 1
 398 852 l 1
 829 852 l 1
 829 706 l 1
 398 706 l 1
 398 153 l 1
 969 153 l 1
 945 0 l 1
495 2230 m 1
 587 1649 l 1
 511 1649 l 1
 258 2230 l 1
 495 2230 l 1
EndSplineSet
EndChar

StartChar: Icircumflex
Encoding: 206 206 183
Width: 694
Flags: HW
HStem: 0 21G<250 443>
VStem: 250 193<0 1513>
LayerCount: 2
Fore
SplineSet
443 0 m 1
 250 0 l 1
 250 1513 l 1
 443 1513 l 1
 443 0 l 1
17 1668 m 1
 248 2187 l 1
 447 2187 l 1
 681 1668 l 1
 474 1668 l 1
 353 2055 l 1
 341 2055 l 1
 223 1668 l 1
 17 1668 l 1
EndSplineSet
EndChar

StartChar: Igrave
Encoding: 204 204 185
Width: 694
Flags: HW
HStem: 0 21G<250 443>
VStem: 250 193<0 1513>
LayerCount: 2
Fore
SplineSet
443 0 m 1
 250 0 l 1
 250 1513 l 1
 443 1513 l 1
 443 0 l 1
274 2230 m 1
 366 1649 l 1
 290 1649 l 1
 37 2230 l 1
 274 2230 l 1
EndSplineSet
EndChar

StartChar: Ntilde
Encoding: 209 209 186
Width: 2048
Flags: HW
HStem: 0 21G<232 407 1125 1327> 1667 133<813.755 975.091> 1781 136<583.439 740.167>
VStem: 232 175<0 1209> 437 139<1675 1776.88> 982 138<1801.07 1903> 1151 176<304 1513>
LayerCount: 2
Fore
SplineSet
1125 1 m 1x9e
 407 1209 l 1
 407 0 l 1
 232 0 l 1
 232 1513 l 1
 442 1513 l 1
 1151 304 l 1
 1151 1513 l 1
 1327 1513 l 1
 1327 0 l 1
 1125 1 l 1x9e
620 1917 m 0xbe
 741 1917 847 1800 928 1800 c 0
 975 1800 982 1851 982 1903 c 1
 1120 1903 l 1
 1120 1896 l 2
 1120 1714 1031 1667 940 1667 c 0xde
 816.740111959 1667 690 1781 630 1781 c 0
 585 1781 576 1734 576 1675 c 1
 437 1675 l 1
 437 1689 l 2
 437 1869 526 1917 620 1917 c 0xbe
EndSplineSet
EndChar

StartChar: Ocircumflex
Encoding: 212 212 188
Width: 1520
Flags: HW
HStem: -25 159<563.589 955.731> 1384 158<563.8 955.731>
VStem: 126 201<428.617 1089.22> 1192 202<428.411 1089.22>
LayerCount: 2
Fore
SplineSet
327 760 m 0
 327 364 454 134 759 134 c 0
 1067 134 1192 364 1192 760 c 0
 1192 1153 1067 1384 759 1384 c 0
 455 1384 327 1153 327 760 c 0
126 760 m 0
 126 1288 349 1542 759 1542 c 0
 1172 1542 1394 1288 1394 760 c 0
 1394 226 1172 -25 759 -25 c 0
 349 -25 126 227 126 760 c 0
428 1668 m 1
 659 2187 l 1
 858 2187 l 1
 1092 1668 l 1
 885 1668 l 1
 764 2055 l 1
 752 2055 l 1
 634 1668 l 1
 428 1668 l 1
EndSplineSet
EndChar

StartChar: Ograve
Encoding: 210 210 190
Width: 1520
Flags: HW
HStem: -25 159<563.589 955.731> 1384 158<563.8 955.731>
VStem: 126 201<428.617 1089.22> 1192 202<428.411 1089.22>
LayerCount: 2
Fore
SplineSet
327 760 m 0
 327 364 454 134 759 134 c 0
 1067 134 1192 364 1192 760 c 0
 1192 1153 1067 1384 759 1384 c 0
 455 1384 327 1153 327 760 c 0
126 760 m 0
 126 1288 349 1542 759 1542 c 0
 1172 1542 1394 1288 1394 760 c 0
 1394 226 1172 -25 759 -25 c 0
 349 -25 126 227 126 760 c 0
685 2230 m 1
 777 1649 l 1
 701 1649 l 1
 448 2230 l 1
 685 2230 l 1
EndSplineSet
EndChar

StartChar: Ucircumflex
Encoding: 219 219 194
Width: 1430
Flags: HW
HStem: -25 159<514.372 907.861>
VStem: 184 201<273.879 1513> 1045 200<285.001 1513>
LayerCount: 2
Fore
SplineSet
717 134 m 0
 936 134 1045 225 1045 540 c 2
 1045 1513 l 1
 1245 1513 l 1
 1245 526 l 2
 1245 93 1024 -25 718 -25 c 0
 401 -25 184 98 184 528 c 2
 184 1513 l 1
 385 1513 l 1
 385 540 l 2
 385 225 483 134 717 134 c 0
379 1668 m 1
 610 2187 l 1
 809 2187 l 1
 1043 1668 l 1
 836 1668 l 1
 715 2055 l 1
 703 2055 l 1
 585 1668 l 1
 379 1668 l 1
EndSplineSet
EndChar

StartChar: Ugrave
Encoding: 217 217 196
Width: 1430
Flags: HW
HStem: -25 159<514.372 907.861>
VStem: 184 201<273.879 1513> 1045 200<285.001 1513>
LayerCount: 2
Fore
SplineSet
717 134 m 0
 936 134 1045 225 1045 540 c 2
 1045 1513 l 1
 1245 1513 l 1
 1245 526 l 2
 1245 93 1024 -25 718 -25 c 0
 401 -25 184 98 184 528 c 2
 184 1513 l 1
 385 1513 l 1
 385 540 l 2
 385 225 483 134 717 134 c 0
636 2230 m 1
 728 1649 l 1
 652 1649 l 1
 399 2230 l 1
 636 2230 l 1
EndSplineSet
EndChar

StartChar: Zcaron
Encoding: 381 381 199
Width: 1104
Flags: HW
HStem: 0 155<283 983> 1355 158<105 833>
LayerCount: 2
Fore
SplineSet
100 0 m 1
 84 164 l 1
 600 1024 l 1
 833 1360 l 1
 620 1355 l 1
 80 1355 l 1
 105 1513 l 1
 1005 1513 l 1
 1022 1340 l 1
 400 306 l 1
 283 148 l 1
 497 155 l 1
 1007 155 l 1
 983 0 l 1
 100 0 l 1
444 1683 m 1
 233 2204 l 1
 429 2204 l 1
 532 1812 l 1
 547 1812 l 1
 652 2204 l 1
 846 2204 l 1
 636 1683 l 1
 444 1683 l 1
EndSplineSet
EndChar

StartChar: acircumflex
Encoding: 226 226 201
Width: 1087
Flags: HW
HStem: -19 142<320.412 634.384> -3 146<904 1021> 482 121<362.03 742> 960 149<243.689 689.029>
VStem: 93 178<169.438 404.375> 742 182<184.897 482 603 902.626>
LayerCount: 2
Fore
SplineSet
742 482 m 1xbc
 580 482 l 2
 468 482 271 466 271 282 c 0
 271 174 344 123 471 123 c 0
 599 123 691 173 742 215 c 1
 742 482 l 1xbc
924 643 m 2
 924 233 l 2
 924 151 936 143 987 143 c 0
 1003 143 1021 144 1035 144 c 1
 1021 2 l 1
 1021 2 936 -3 904 -3 c 0x7c
 792 -3 755 84 755 123 c 1
 712 61 618 -19 407 -19 c 0
 219 -19 93 101 93 290 c 0
 93 541 329 603 568 603 c 2
 742 603 l 1
 742 701 l 2
 742 926 683 960 524 960 c 0
 383 960 262 925 178 893 c 1
 199 1049 l 1
 266 1077 368 1109 538 1109 c 0
 848 1109 924 985 924 643 c 2
193 1234 m 1
 424 1753 l 1
 623 1753 l 1
 857 1234 l 1
 650 1234 l 1
 529 1621 l 1
 517 1621 l 1
 399 1234 l 1
 193 1234 l 1
EndSplineSet
EndChar

StartChar: agrave
Encoding: 224 224 203
Width: 1087
Flags: HW
HStem: -19 142<320.412 634.384> -3 146<904 1021> 482 121<362.03 742> 960 149<243.689 689.029>
VStem: 93 178<169.438 404.375> 742 182<184.897 482 603 902.626>
LayerCount: 2
Fore
SplineSet
742 482 m 1xbc
 580 482 l 2
 468 482 271 466 271 282 c 0
 271 174 344 123 471 123 c 0
 599 123 691 173 742 215 c 1
 742 482 l 1xbc
924 643 m 2
 924 233 l 2
 924 151 936 143 987 143 c 0
 1003 143 1021 144 1035 144 c 1
 1021 2 l 1
 1021 2 936 -3 904 -3 c 0x7c
 792 -3 755 84 755 123 c 1
 712 61 618 -19 407 -19 c 0
 219 -19 93 101 93 290 c 0
 93 541 329 603 568 603 c 2
 742 603 l 1
 742 701 l 2
 742 926 683 960 524 960 c 0
 383 960 262 925 178 893 c 1
 199 1049 l 1
 266 1077 368 1109 538 1109 c 0
 848 1109 924 985 924 643 c 2
450 1796 m 1
 542 1215 l 1
 466 1215 l 1
 213 1796 l 1
 450 1796 l 1
EndSplineSet
EndChar

StartChar: atilde
Encoding: 227 227 205
Width: 1087
Flags: HW
HStem: -19 142<320.412 634.384> -3 146<904 1021> 482 121<362.03 742> 960 149<243.689 689.029> 1238 133<516.755 678.091> 1352 136<286.439 443.167>
VStem: 93 178<169.438 404.375> 140 139<1246 1347.88> 685 138<1372.07 1474> 742 182<184.897 482 603 902.626>
LayerCount: 2
Fore
SplineSet
742 482 m 1xb240
 580 482 l 2
 468 482 271 466 271 282 c 0
 271 174 344 123 471 123 c 0
 599 123 691 173 742 215 c 1
 742 482 l 1xb240
924 643 m 2
 924 233 l 2
 924 151 936 143 987 143 c 0
 1003 143 1021 144 1035 144 c 1
 1021 2 l 1
 1021 2 936 -3 904 -3 c 0x7240
 792 -3 755 84 755 123 c 1
 712 61 618 -19 407 -19 c 0
 219 -19 93 101 93 290 c 0
 93 541 329 603 568 603 c 2
 742 603 l 1
 742 701 l 2
 742 926 683 960 524 960 c 0
 383 960 262 925 178 893 c 1
 199 1049 l 1
 266 1077 368 1109 538 1109 c 0
 848 1109 924 985 924 643 c 2
323 1488 m 0x3580
 444 1488 550 1371 631 1371 c 0
 678 1371 685 1422 685 1474 c 1
 823 1474 l 1
 823 1467 l 2
 823 1285 734 1238 643 1238 c 0x3980
 519.740111959 1238 393 1352 333 1352 c 0
 288 1352 279 1305 279 1246 c 1
 140 1246 l 1
 140 1260 l 2
 140 1440 229 1488 323 1488 c 0x3580
EndSplineSet
EndChar

StartChar: ccedilla
Encoding: 231 231 206
Width: 1245
Flags: HW
HStem: -567 107<503.097 767.312> -435 20G<484.178 492> -19 21<546 653> 950 148<475.975 861.524>
VStem: 144 188<288.667 789.454> 782 118<-443.442 -287.004>
LayerCount: 2
Fore
SplineSet
144 533 m 0
 144 968 388 1098 620 1098 c 0
 745 1098 830 1073 881 1049 c 1
 881 897 l 1
 828 921 752 950 649 950 c 0
 447 950 332 830 332 536 c 0
 332 250 449 128 649 128 c 0
 753 128 829 157 882 179 c 1
 882 29 l 1
 828 3 742 -19 616 -19 c 0
 383 -19 144 125 144 533 c 0
482 -415 m 1
 533.476397608 -435.590559043 600.599649198 -460 669 -460 c 0
 769 -460 782 -393 782 -363 c 0
 782 -264 671 -258 506 -244 c 1
 506 -231 518 -170 527 -111 c 2
 546 2 l 1
 653 2 l 1
 639.730496835 -52.7304968349 626.809328377 -107.809328377 614 -163 c 1
 716 -163 900 -188 900 -358 c 0
 900 -491 800 -567 674 -567 c 0
 592.744807199 -567 538.820523591 -545.45605088 493 -516 c 1
 482 -415 l 1
EndSplineSet
EndChar

StartChar: ecircumflex
Encoding: 234 234 208
Width: 1096
Flags: HW
HStem: -19 147<449.44 887.727> 522 118<305 824> 954 144<432.417 737.185>
VStem: 113 188<288.969 522 640 799.154> 826 167<643.74 863.016>
LayerCount: 2
Fore
SplineSet
948 194 m 1
 947 42 l 1
 879 13 772 -19 625 -19 c 0
 285 -19 113 164 113 528 c 0
 113 929 317.983577135 1098 592 1098 c 0
 857 1098 993 916.064755976 993 723 c 0
 993 662 985 550 976 522 c 1
 301 522 l 1
 301 514 l 2
 301 222 431 128 639 128 c 0
 778 128 871 167 948 194 c 1
596 954 m 0
 454 954 324 888 305 640 c 1
 824 640 l 1
 824 640 826 681 826 699 c 0
 820 878 726 954 596 954 c 0
261 1234 m 1
 492 1753 l 1
 691 1753 l 1
 925 1234 l 1
 718 1234 l 1
 597 1621 l 1
 585 1621 l 1
 467 1234 l 1
 261 1234 l 1
EndSplineSet
EndChar

StartChar: egrave
Encoding: 232 232 210
Width: 1096
Flags: HW
HStem: -19 147<449.44 887.727> 522 118<305 824> 954 144<432.417 737.185>
VStem: 113 188<288.969 522 640 799.154> 826 167<643.74 863.016>
LayerCount: 2
Fore
SplineSet
948 194 m 1
 947 42 l 1
 879 13 772 -19 625 -19 c 0
 285 -19 113 164 113 528 c 0
 113 929 317.983577135 1098 592 1098 c 0
 857 1098 993 916.064755976 993 723 c 0
 993 662 985 550 976 522 c 1
 301 522 l 1
 301 514 l 2
 301 222 431 128 639 128 c 0
 778 128 871 167 948 194 c 1
596 954 m 0
 454 954 324 888 305 640 c 1
 824 640 l 1
 824 640 826 681 826 699 c 0
 820 878 726 954 596 954 c 0
518 1796 m 1
 610 1215 l 1
 534 1215 l 1
 281 1796 l 1
 518 1796 l 1
EndSplineSet
EndChar

StartChar: iacute
Encoding: 237 237 211
Width: 694
Flags: HW
HStem: 0 21G<166 352>
VStem: 166 186<0 1075>
LayerCount: 2
Fore
SplineSet
352 0 m 1
 166 0 l 1
 166 1075 l 1
 352 1075 l 1
 352 0 l 1
95 1216 m 1
 187 1797 l 1
 424 1797 l 1
 171 1216 l 1
 95 1216 l 1
EndSplineSet
EndChar

StartChar: icircumflex
Encoding: 238 238 212
Width: 1520
Flags: HW
HStem: 0 21G<166 352>
VStem: 166 186<0 1075>
LayerCount: 2
Fore
SplineSet
352 0 m 1
 166 0 l 1
 166 1075 l 1
 352 1075 l 1
 352 0 l 1
-73 1234 m 1
 158 1753 l 1
 357 1753 l 1
 591 1234 l 1
 384 1234 l 1
 263 1621 l 1
 251 1621 l 1
 133 1234 l 1
 -73 1234 l 1
EndSplineSet
EndChar

StartChar: idieresis
Encoding: 239 239 213
Width: 1520
Flags: HW
HStem: 0 21G<166 352> 1226 206<-49 153 366 569>
VStem: -49 202<1226 1432> 166 186<0 1075> 366 203<1226 1432>
LayerCount: 2
Fore
SplineSet
352 0 m 1
 166 0 l 1
 166 1075 l 1
 352 1075 l 1
 352 0 l 1
-49 1432 m 1
 153 1432 l 1
 153 1226 l 1
 -49 1226 l 1
 -49 1432 l 1
366 1432 m 1
 569 1432 l 1
 569 1226 l 1
 366 1226 l 1
 366 1432 l 1
EndSplineSet
EndChar

StartChar: igrave
Encoding: 236 236 214
Width: 694
Flags: HW
HStem: 0 21G<166 352>
VStem: 166 186<0 1075>
LayerCount: 2
Fore
SplineSet
352 0 m 1
 166 0 l 1
 166 1075 l 1
 352 1075 l 1
 352 0 l 1
304 1797 m 1
 396 1216 l 1
 320 1216 l 1
 67 1797 l 1
 304 1797 l 1
EndSplineSet
EndChar

StartChar: ocircumflex
Encoding: 244 244 217
Width: 1182
Flags: HW
HStem: -19 147<437.314 750.56> 949 149<427.789 758.748>
VStem: 113 188<282.648 806.426> 882 187<276.564 806.426>
LayerCount: 2
Fore
SplineSet
596 1098 m 0
 921 1098 1069 877 1069 537 c 0
 1069 208 921 -19 596 -19 c 0
 264 -19 113 208 113 537 c 0
 113 877 264 1098 596 1098 c 0
596 128 m 0
 815 128 882 297 882 539 c 0
 882 801 810 949 596 949 c 0
 370 949 301 801 301 539 c 0
 301 297 370 128 596 128 c 0
265 1234 m 1
 496 1753 l 1
 695 1753 l 1
 929 1234 l 1
 722 1234 l 1
 601 1621 l 1
 589 1621 l 1
 471 1234 l 1
 265 1234 l 1
EndSplineSet
EndChar

StartChar: ograve
Encoding: 242 242 219
Width: 1182
Flags: HW
HStem: -19 147<437.314 750.56> 949 149<427.789 758.748>
VStem: 113 188<282.648 806.426> 882 187<276.564 806.426>
LayerCount: 2
Fore
SplineSet
596 1098 m 0
 921 1098 1069 877 1069 537 c 0
 1069 208 921 -19 596 -19 c 0
 264 -19 113 208 113 537 c 0
 113 877 264 1098 596 1098 c 0
596 128 m 0
 815 128 882 297 882 539 c 0
 882 801 810 949 596 949 c 0
 370 949 301 801 301 539 c 0
 301 297 370 128 596 128 c 0
522 1796 m 1
 614 1215 l 1
 538 1215 l 1
 285 1796 l 1
 522 1796 l 1
EndSplineSet
EndChar

StartChar: scaron
Encoding: 353 353 221
Width: 924
Flags: HW
HStem: -20 153<179.314 600.454> 947 151<322.181 751.606>
VStem: 106 180<709.815 910.329> 649 183<181.682 401.891>
LayerCount: 2
Fore
SplineSet
106 808 m 0
 106 1029 300 1098 484 1098 c 0
 585 1098 687 1080 762 1054 c 1
 762 899 l 1
 712 914 602 947 485 947 c 0
 381 947 286 929 286 804 c 0
 286 715 331 692 516 639 c 0
 747 574 832 485 832 287 c 0
 832 68 649 -20 437 -20 c 0
 324 -20 205 6 98 50 c 1
 97 209 l 1
 140 188 287 133 425 133 c 0
 547 133 649 161 649 290 c 0
 649 394 601.492424513 433.757969227 401 490 c 0
 216.492424513 541.757969227 106 610 106 808 c 0
389 1249 m 1
 178 1770 l 1
 374 1770 l 1
 477 1378 l 1
 492 1378 l 1
 597 1770 l 1
 791 1770 l 1
 581 1249 l 1
 389 1249 l 1
EndSplineSet
EndChar

StartChar: ucircumflex
Encoding: 251 251 223
Width: 1206
Flags: HW
HStem: -19 147<428.296 749.049>
VStem: 164 182<217.228 1079> 850 182<175.939 1079> 891 141<0 44.2821>
LayerCount: 2
Fore
SplineSet
1032 1079 m 1xe0
 1032 0 l 1
 891 -12 l 1xd0
 864 94 l 1
 806 44 691 -19 517 -19 c 0
 272 -19 164 132 164 461 c 2
 164 1079 l 1
 346 1079 l 1
 346 469 l 2
 346 224 406 128 562 128 c 0
 689 128 799 167 850 199 c 1
 850 1079 l 1
 1032 1079 l 1xe0
263 1234 m 1
 494 1753 l 1
 693 1753 l 1
 927 1234 l 1
 720 1234 l 1
 599 1621 l 1
 587 1621 l 1
 469 1234 l 1
 263 1234 l 1
EndSplineSet
EndChar

StartChar: ugrave
Encoding: 249 249 225
Width: 1206
Flags: HW
HStem: -19 147<428.296 749.049>
VStem: 164 182<217.228 1079> 850 182<175.939 1079> 891 141<0 44.2821>
LayerCount: 2
Fore
SplineSet
1032 1079 m 1xe0
 1032 0 l 1
 891 -12 l 1xd0
 864 94 l 1
 806 44 691 -19 517 -19 c 0
 272 -19 164 132 164 461 c 2
 164 1079 l 1
 346 1079 l 1
 346 469 l 2
 346 224 406 128 562 128 c 0
 689 128 799 167 850 199 c 1
 850 1079 l 1
 1032 1079 l 1xe0
520 1796 m 1
 612 1215 l 1
 536 1215 l 1
 283 1796 l 1
 520 1796 l 1
EndSplineSet
EndChar

StartChar: yacute
Encoding: 253 253 226
Width: 1001
Flags: HW
HStem: -442 159<48.7416 349.44>
LayerCount: 2
Fore
SplineSet
220 1079 m 1
 517 183 l 1
 784 1079 l 1
 991 1079 l 1
 612 -23 l 2
 517 -298 461 -442 267 -442 c 0
 155 -442 91 -424 46 -401 c 1
 47 -257 l 1
 97 -270 169 -283 234 -283 c 0
 332 -283 380 -240 412 -87 c 2
 426 -19 l 1
 10 1079 l 1
 220 1079 l 1
446 1216 m 1
 538 1797 l 1
 775 1797 l 1
 522 1216 l 1
 446 1216 l 1
EndSplineSet
EndChar

StartChar: ydieresis
Encoding: 255 255 227
Width: 1001
Flags: HW
HStem: -442 159<48.7416 349.44> 1226 206<171 373 586 789>
VStem: 171 202<1226 1432> 586 203<1226 1432>
LayerCount: 2
Fore
SplineSet
220 1079 m 1
 517 183 l 1
 784 1079 l 1
 991 1079 l 1
 612 -23 l 2
 517 -298 461 -442 267 -442 c 0
 155 -442 91 -424 46 -401 c 1
 47 -257 l 1
 97 -270 169 -283 234 -283 c 0
 332 -283 380 -240 412 -87 c 2
 426 -19 l 1
 10 1079 l 1
 220 1079 l 1
171 1432 m 1
 373 1432 l 1
 373 1226 l 1
 171 1226 l 1
 171 1432 l 1
586 1432 m 1
 789 1432 l 1
 789 1226 l 1
 586 1226 l 1
 586 1432 l 1
EndSplineSet
EndChar

StartChar: foursuperior
Encoding: 8308 8308 229
Width: 935
Flags: HW
HStem: 226 127<234 577 742 911>
VStem: 577 165<0 226 353 898>
LayerCount: 2
Fore
SplineSet
47 337 m 1
 494 1014 l 1
 742 1007 l 1
 742 353 l 1
 911 353 l 1
 911 226 l 1
 742 226 l 1
 742 0 l 1
 577 -6 l 1
 577 226 l 1
 93 226 l 1
 47 337 l 1
430 353 m 1
 577 353 l 1
 577 645 l 1
 581 898 l 1
 467.922486189 712.744180478 351.939381306 530.393952028 234 350 c 1
 430 353 l 1
EndSplineSet
EndChar

StartChar: Delta
Encoding: 8710 8710 232
Width: 1090
Flags: HW
HStem: -2 106<244 844>
LayerCount: 2
Fore
SplineSet
244 104 m 1
 844 104 l 1
 547 1025 l 1
 244 104 l 1
1063 -2 m 1
 26 -2 l 1
 455 1190 l 1
 636 1190 l 1
 1063 -2 l 1
EndSplineSet
EndChar

StartChar: approxequal
Encoding: 8776 8776 233
Width: 1014
Flags: HW
HStem: 406 111<545.029 757.8> 513 108<257.688 467.563> 633 111<545.029 757.8> 740 108<257.688 467.563>
VStem: 134 115<432 471.436 659 698.482> 763 117<521.746 596 748.334 823>
LayerCount: 2
Fore
SplineSet
134 659 m 1
 140.18103197 767.168059474 198.121930559 848 333 848 c 0x1c
 460 848 602 744 689 744 c 0
 763 744 763 802 763 823 c 1x2c
 880 823 l 1
 880 707.971100518 824.599938152 633 685 633 c 0x2c
 563 633 412 740 328 740 c 0
 271.360012613 740 252.075272079 705.129081179 249 659 c 1
 134 659 l 1
134 432 m 1
 140.401500745 540.825512666 197.955488886 621 333 621 c 0x4c
 460 621 602 517 689 517 c 0x8c
 763 517 763 573 763 596 c 1
 880 596 l 1
 880 481.8603695 824.599938152 406 685 406 c 0x8c
 563 406 412 513 328 513 c 0
 271.222614567 513 252.259150508 477.628107107 249 432 c 1
 134 432 l 1
EndSplineSet
EndChar

StartChar: blacksun
Encoding: 9728 9728 234
Width: 1355
Flags: HW
LayerCount: 2
Fore
SplineSet
1387 692 m 1
 1004 557 l 1
 1181 199 l 1
 815 369 l 1
 679 -11 l 1
 544 366 l 1
 180 192 l 1
 352 556 l 1
 -31 690 l 1
 349 824 l 1
 175 1183 l 1
 542 1012 l 1
 677 1393 l 1
 813 1014 l 1
 1175 1190 l 1
 1004 824 l 1
 1387 692 l 1
368 658 m 0
 385.759818931 490.761705064 540.820534516 361.739163724 718 380 c 0
 899.820534516 398.739163724 1017.93707978 558.779278853 1000 727 c 0
 980.937079776 905.779278853 821.082512083 1025.2728059 651 1006 c 0
 468.082512083 985.272805902 349.759818931 829.761705064 368 658 c 0
EndSplineSet
EndChar

StartChar: cycle
Encoding: 10091 10091 235
Width: 1551
Flags: HW
HStem: 85 136<278 668 1098 1270> 802 134<278 450 873 1269>
VStem: 101 177<221 803> 1270 179<221 800>
LayerCount: 2
Fore
SplineSet
668 382 m 1
 1033 151 l 1
 668 -86 l 1
 668 85 l 1
 101 85 l 1
 101 935 l 1
 450 936 l 1
 450 802 l 1
 278 803 l 1
 278 221 l 1
 668 221 l 1
 668 382 l 1
511 885 m 1
 873 1109 l 1
 872 936 l 1
 1449 936 l 1
 1449 85 l 1
 1098 85 l 1
 1098 222 l 1
 1270 221 l 1
 1269 800 l 1
 873 802 l 1
 873 639 l 1
 511 885 l 1
EndSplineSet
EndChar

StartChar: greaterequal
Encoding: 8805 8805 236
Width: 1007
Flags: HW
HStem: -6 133<163 927>
LayerCount: 2
Fore
SplineSet
927 -6 m 1
 163 -6 l 1
 163 127 l 1
 927 127 l 1
 927 -6 l 1
918 632 m 1
 166 295 l 1
 166 470 l 1
 212 491 645 660 691 677 c 1
 598 715 260 847 166 885 c 1
 166 1061 l 1
 207 1044 874 746 918 729 c 1
 918 632 l 1
EndSplineSet
EndChar

StartChar: infinity
Encoding: 8734 8734 237
Width: 1972
Flags: HW
HStem: 224 126<397.423 695.803 1393.05 1658.26> 999 128<402.055 689.522 1378.4 1668.12>
VStem: 136 144<477.189 867.838> 1793 147<488.874 864.2>
LayerCount: 2
Fore
SplineSet
959 677 m 1
 896 749 731 999 554 999 c 0
 397 999 280 895 280 678 c 0
 280 455 395 350 551 350 c 0
 754 350 882 583 959 677 c 1
1793 679 m 0
 1793 895 1664 998 1516 998 c 0
 1332 998 1194 766 1120 675 c 1
 1196 582 1342 357 1516 357 c 0
 1673 357 1793 460 1793 679 c 0
1940 679 m 0
 1940 400 1765 226 1530 226 c 0
 1297 226 1201 369 1044 567 c 1
 885 365 764 224 548 224 c 0
 300 224 136 397 136 678 c 0
 136 936 301 1127 543 1127 c 0
 777 1127 879 978 1039 784 c 1
 1201 989 1299 1129 1527 1129 c 0
 1776 1129 1940 941 1940 679 c 0
EndSplineSet
EndChar

StartChar: integral
Encoding: 8747 8747 238
Width: 882
Flags: HW
HStem: 933 111<177 363 554 841>
VStem: 363 191<-194.589 933 1044 1346.98>
LayerCount: 2
Fore
SplineSet
887 1365 m 1
 838.651140306 1380.10901865 785.792097804 1392 722 1392 c 0
 595 1392 553 1348 553 1150 c 2
 553 1044 l 1
 841 1044 l 1
 841 933 l 1
 554 933 l 1
 554 117 l 2
 554 -179 491 -399 184 -371 c 0
 142 -367 107.627655162 -358.940193845 84 -350 c 0
 70.6276551622 -344.940193845 58 -339 47 -334 c 1
 29 -205 l 1
 75.553657167 -222.457621438 130.982216116 -232 195 -232 c 0
 326 -232 364 -187 364 9 c 2
 363 933 l 1
 177 933 l 1
 177 1044 l 1
 363 1044 l 1
 372 1366 429.921380263 1558.05028415 733 1531 c 0
 792.416080009 1525.69701344 835.236341668 1516.12232803 870 1494 c 1
 887 1365 l 1
EndSplineSet
EndChar

StartChar: lessequal
Encoding: 8804 8804 239
Width: 1007
Flags: HW
HStem: -6 133<134 897>
LayerCount: 2
Fore
SplineSet
897 -6 m 1
 134 -6 l 1
 134 127 l 1
 897 127 l 1
 897 -6 l 1
894 470 m 1
 894 295 l 1
 851 311 185 614 142 632 c 1
 142 729 l 1
 184 747 851 1046 894 1061 c 1
 894 885 l 1
 801 847 463 715 371 677 c 1
 416 660 849 486 894 470 c 1
EndSplineSet
EndChar

StartChar: lozenge
Encoding: 9674 9674 240
Width: 978
Flags: HW
LayerCount: 2
Fore
SplineSet
515 1054 m 1
 247 583 l 1
 515 106 l 1
 781 583 l 1
 515 1054 l 1
59 583 m 1
 412 1178 l 1
 614 1178 l 1
 971 583 l 1
 618 -6 l 1
 408 -6 l 1
 59 583 l 1
EndSplineSet
EndChar

StartChar: notequal
Encoding: 8800 8800 241
Width: 874
Flags: HW
HStem: 352 121<112 326 512 812> 577 121<110 408 593 810>
LayerCount: 2
Fore
SplineSet
812 352 m 1
 472 352 l 1
 411 191 l 1
 282 241 l 1
 326 352 l 1
 112 354 l 1
 112 473 l 1
 366 473 l 1
 408 577 l 1
 110 577 l 1
 110 698 l 1
 448 698 l 1
 514 874 l 1
 645 830 l 1
 593 698 l 1
 810 698 l 1
 810 577 l 1
 554 577 l 1
 512 473 l 1
 812 473 l 1
 812 352 l 1
EndSplineSet
EndChar

StartChar: partialdiff
Encoding: 8706 8706 242
Width: 1105
Flags: HW
HStem: -31 146<404.045 707.251> 943 150<411.923 703.858> 1454 21G<309 319> 1499 122<332.695 689.464>
VStem: 97 181<267.5 786.568> 849 177<333.439 833.557>
LayerCount: 2
Fore
SplineSet
320 1571 m 1
 388.879795351 1598.55191814 453.518040741 1621 561 1621 c 0
 945 1621 1026 1209 1026 797 c 0
 1026 143 866 -31 541 -31 c 0
 319 -31 97 84 97 532 c 0
 97 856 240 1093 523 1093 c 0
 674.34552468 1093 777.792197751 1018.30870251 848 940 c 1
 835 1180 830 1499 530 1499 c 0
 436.644425727 1499 371.807138798 1479.12285552 309 1454 c 1
 309 1474 320 1549 320 1571 c 1
553 115 m 0
 748 115 849 215 849 793 c 1
 778.539541369 860.94401368 679.136630043 940.756387672 550 943 c 0
 355.989579845 946.370725799 278 757 278 561 c 0
 278 249 366 115 553 115 c 0
EndSplineSet
EndChar

StartChar: pi
Encoding: 960 960 243
Width: 1204
Flags: HW
HStem: -21 143<934.013 1138.58> -3 150<72.588 181.217 1019.97 1136.39> 912 138<252.495 435 600 848 1021 1200>
LayerCount: 2
Fore
SplineSet
758 346 m 2xa0
 848 912 l 1
 600 912 l 1
 486 443 l 1
 377 13 214 -3 75 -3 c 1
 68 23 43 122 38 147 c 1x60
 174 147 247 207 320 479 c 2
 435 912 l 1
 231 912 l 1
 238 957 246 1004 255 1050 c 1
 1225 1050 l 1
 1200 912 l 1
 1021 912 l 1
 934 352 l 2
 909 193 919 122 1018 122 c 0
 1080.19241221 122 1130.76308 132.881540002 1171 153 c 1
 1137 6 l 1
 1124 1 1108.79421582 -3.06943884955 1092 -7 c 0
 1061.79421582 -14.0694388495 1021 -21 971 -21 c 0
 804 -21 715.7813863 80.4918293965 758 346 c 2xa0
EndSplineSet
EndChar

StartChar: product
Encoding: 8719 8719 244
Width: 1422
Flags: HW
HStem: 0 21G<200 397 1100 1298> 1354 130<386 1112>
VStem: 200 197<0 1354> 1100 198<0 1354>
LayerCount: 2
Fore
SplineSet
200 1484 m 1
 1298 1484 l 1
 1298 0 l 1
 1100 0 l 1
 1100 920 l 1
 1112 1354 l 1
 386 1354 l 1
 397 893 l 1
 397 0 l 1
 200 0 l 1
 200 1484 l 1
EndSplineSet
EndChar

StartChar: radical
Encoding: 8730 8730 245
Width: 1153
Flags: HW
HStem: 855 87<32 190>
VStem: 1014 171<1432.78 1515.44>
LayerCount: 2
Fore
SplineSet
32 855 m 1
 32 942 l 1
 357 942 l 1
 380 856 565 275 582 185 c 1
 633 354 963 1395 1014 1564 c 1
 1185 1511 l 1
 1111 1314 757 194 683 -4 c 1
 482 -4 l 1
 190 855 l 1
 32 855 l 1
EndSplineSet
EndChar

StartChar: summation
Encoding: 8721 8721 246
Width: 1062
Flags: HW
HStem: -3 171<336 1024> 1314 158<332 998>
LayerCount: 2
Fore
SplineSet
332 1319 m 1
 470.124396153 1136.45772949 592.808989294 938.475655961 719 744 c 1
 473 356 l 1
 336 159 l 1
 517 168 l 1
 1024 168 l 1
 1024 -3 l 1
 62 -3 l 1
 523 744 l 1
 76 1472 l 1
 998 1472 l 1
 999 1314 l 1
 522 1314 l 1
 332 1319 l 1
EndSplineSet
EndChar

StartChar: Euro
Encoding: 8364 8364 247
Width: 1245
Flags: HW
HStem: -29 156<630.471 1150.17> 549 134<85 204 428 738> 802 135<84 203 424 736> 1356 156<642.982 1169.32>
VStem: 202 210<683 802 937 1078.79> 218 210<365.026 549>
LayerCount: 2
Fore
SplineSet
1243 1291 m 1
 1130.3320284 1329.62901883 1013.5433483 1356 850 1356 c 0
 620 1356 463 1245 424 937 c 1
 736 937 l 1
 736 802 l 1
 412 802 l 1
 412 756 l 2xf8
 412 731 412 708 413 683 c 1
 738 683 l 1
 738 549 l 1
 428 549 l 1
 464 245 600 127 830 127 c 0
 1003.82793406 127 1125.35915879 156.487249272 1243 201 c 1
 1226 41 l 1
 1108.94326016 -5.82269593485 988.840399932 -29 807 -29 c 0
 510 -29 274 102 218 549 c 1xf4
 85 549 l 1
 85 683 l 1
 204 683 l 1
 203 708 202 730 202 754 c 0
 202 762 202 794 203 802 c 1
 84 802 l 1xf8
 84 937 l 1
 215 937 l 1
 269 1363 512 1512 828 1512 c 0
 941 1512 1041.16796443 1496.75263938 1113 1481 c 0
 1155.16796443 1471.75263938 1193 1462 1227 1450 c 1
 1243 1291 l 1
EndSplineSet
EndChar

StartChar: uni0311
Encoding: 785 785 248
Width: 861
Flags: HW
HStem: 1394 149<259.406 600.594>
LayerCount: 2
Fore
SplineSet
430 1543 m 0
 618 1543 736 1458 794 1379 c 1
 713 1253 l 1
 651 1333 561 1394 430 1394 c 0
 299 1394 209 1333 147 1253 c 1
 66 1379 l 1
 124 1458 242 1543 430 1543 c 0
EndSplineSet
EndChar

StartChar: uni030F
Encoding: 783 783 249
Width: 714
Flags: HW
HStem: 1246 530<228 277>
VStem: 72 570
LayerCount: 2
Fore
SplineSet
277 1776 m 1
 391 1246 l 1
 285 1246 l 1
 72 1776 l 1
 277 1776 l 1
583 1776 m 1
 642 1246 l 1
 534 1246 l 1
 390 1776 l 1
 583 1776 l 1
EndSplineSet
EndChar

StartChar: uni0326
Encoding: 806 806 250
Width: 441
Flags: HW
HStem: -567 85<158.109 218.334> -342 210<125 252>
VStem: 125 250<-338.088 -132> 252 123<-450.021 -342>
LayerCount: 2
Fore
SplineSet
125 -342 m 1xe0
 125 -132 l 1
 362 -115 l 1
 373 -203 375 -247 375 -297 c 0xe0
 375 -426 324 -521 163 -567 c 1
 134 -482 l 1
 213 -473 252 -417 252 -342 c 1xd0
 125 -342 l 1xe0
EndSplineSet
EndChar

StartChar: uni0218
Encoding: 536 536 251
Width: 1063
Flags: HW
HStem: -567 85<477.109 537.334> -342 210<444 571> -25 161<252.02 677.051> 1380 162<373.744 805.379>
VStem: 105 190<1008.92 1294.15> 444 250<-338.088 -132> 571 123<-450.021 -342> 773 196<230.944 570.852>
LayerCount: 2
Fore
SplineSet
560 1542 m 0xf9
 680 1542 792 1519 897 1483 c 1
 897 1301 l 1
 822 1336 679 1380 548 1380 c 0
 409 1380 295 1331 295 1142 c 0
 295 1015 361.184222302 957.84745133 570 879 c 0
 843.184222302 775.84745133 969 709 969 396 c 0
 969 92 766 -25 521 -25 c 0
 384 -25 237 4 104 53 c 1
 106 235 l 1
 212 184 377 136 519 136 c 0
 658 136 773 200 773 400 c 0
 773 579 710 635 469 722 c 0
 212 814 105 908.997881365 105 1145 c 0
 105 1448 334 1542 560 1542 c 0xf9
444 -342 m 1xfd
 444 -132 l 1
 681 -115 l 1
 692 -203 694 -247 694 -297 c 0xfd
 694 -426 643 -521 482 -567 c 1
 453 -482 l 1
 532 -473 571 -417 571 -342 c 1xfb
 444 -342 l 1xfd
EndSplineSet
EndChar

StartChar: uni0219
Encoding: 537 537 252
Width: 924
Flags: HW
HStem: -567 85<397.109 457.334> -342 210<364 491> -20 153<179.314 600.454> 947 151<322.181 751.606>
VStem: 106 180<709.815 910.329> 364 250<-338.088 -132> 491 123<-450.021 -342> 649 183<181.682 401.891>
LayerCount: 2
Fore
SplineSet
106 808 m 0xf9
 106 1029 300 1098 484 1098 c 0
 585 1098 687 1080 762 1054 c 1
 762 899 l 1
 712 914 602 947 485 947 c 0
 381 947 286 929 286 804 c 0
 286 715 331 692 516 639 c 0
 747 574 832 485 832 287 c 0
 832 68 649 -20 437 -20 c 0
 324 -20 205 6 98 50 c 1
 97 209 l 1
 140 188 287 133 425 133 c 0
 547 133 649 161 649 290 c 0
 649 394 601.492424513 433.757969227 401 490 c 0
 216.492424513 541.757969227 106 610 106 808 c 0xf9
364 -342 m 1xfd
 364 -132 l 1
 601 -115 l 1
 612 -203 614 -247 614 -297 c 0xfd
 614 -426 563 -521 402 -567 c 1
 373 -482 l 1
 452 -473 491 -417 491 -342 c 1xfb
 364 -342 l 1xfd
EndSplineSet
EndChar

StartChar: uni021A
Encoding: 538 538 253
Width: 1063
Flags: HW
HStem: -567 85<437.109 497.334> -342 210<404 531> 0 21G<431 628> 1362 151<20 431 628 1020>
VStem: 404 250<-338.088 -132> 431 197<0 1362> 531 123<-450.021 -342>
LayerCount: 2
Fore
SplineSet
1020 1362 m 1xf4
 628 1362 l 1
 628 0 l 1
 431 0 l 1
 431 1362 l 1
 20 1362 l 1
 20 1513 l 1
 1045 1513 l 1
 1020 1362 l 1xf4
404 -342 m 1xf8
 404 -132 l 1
 641 -115 l 1
 652 -203 654 -247 654 -297 c 0xf8
 654 -426 603 -521 442 -567 c 1
 413 -482 l 1
 492 -473 531 -417 531 -342 c 1xf2
 404 -342 l 1xf8
EndSplineSet
EndChar

StartChar: uni021B
Encoding: 539 539 254
Width: 694
Flags: HW
HStem: -567 85<255.109 315.334> -342 210<222 349> -19 139<419.378 652.551> 970 109<33 211 393 646> 1427 20G<297.097 390>
VStem: 211 182<141.305 970 1079 1217.04> 246 144<1237.07 1416> 349 123<-450.021 -342>
LayerCount: 2
Fore
SplineSet
472 -19 m 0xf9
 282 -19 211 67 211 355 c 2
 211 970 l 1xfc
 33 970 l 1
 33 1079 l 1
 219 1079 l 1
 246 1416 l 1
 390 1447 l 1
 390 1079 l 1xfa
 646 1079 l 1
 646 970 l 1
 393 970 l 1
 393 314 l 2xfc
 393 162 419 120 522 120 c 0
 560 120 583 124 655 139 c 1
 655 3 l 1
 622 -9 572 -19 472 -19 c 0xf9
222 -342 m 1
 222 -132 l 1
 459 -115 l 1
 470 -203 472 -247 472 -297 c 0
 472 -426 421 -521 260 -567 c 1
 231 -482 l 1
 310 -473 349 -417 349 -342 c 1xf9
 222 -342 l 1
EndSplineSet
EndChar

StartChar: uni0200
Encoding: 512 512 255
Width: 1245
Flags: HW
HStem: 0 21G<0 212.047 1033.01 1245> 344 118<345 900>
LayerCount: 2
Fore
SplineSet
936 344 m 1
 310 344 l 1
 206 0 l 1
 0 0 l 1
 521 1513 l 1
 733 1513 l 1
 1245 0 l 1
 1039 0 l 1
 936 344 l 1
628 1309 m 1
 345 462 l 1
 900 462 l 1
 628 1309 l 1
442 2209 m 1
 556 1679 l 1
 450 1679 l 1
 237 2209 l 1
 442 2209 l 1
748 2209 m 1
 807 1679 l 1
 699 1679 l 1
 555 2209 l 1
 748 2209 l 1
EndSplineSet
EndChar

StartChar: uni0201
Encoding: 513 513 256
Width: 1087
Flags: HW
HStem: -19 142<320.412 634.384> -3 146<904 1021> 482 121<362.03 742> 960 149<243.689 689.029>
VStem: 93 178<169.438 404.375> 742 182<184.897 482 603 902.626>
LayerCount: 2
Fore
SplineSet
742 482 m 1xbc
 580 482 l 2
 468 482 271 466 271 282 c 0
 271 174 344 123 471 123 c 0
 599 123 691 173 742 215 c 1
 742 482 l 1xbc
924 643 m 2
 924 233 l 2
 924 151 936 143 987 143 c 0
 1003 143 1021 144 1035 144 c 1
 1021 2 l 1
 1021 2 936 -3 904 -3 c 0x7c
 792 -3 755 84 755 123 c 1
 712 61 618 -19 407 -19 c 0
 219 -19 93 101 93 290 c 0
 93 541 329 603 568 603 c 2
 742 603 l 1
 742 701 l 2
 742 926 683 960 524 960 c 0
 383 960 262 925 178 893 c 1
 199 1049 l 1
 266 1077 368 1109 538 1109 c 0
 848 1109 924 985 924 643 c 2
338 1775 m 1
 452 1245 l 1
 346 1245 l 1
 133 1775 l 1
 338 1775 l 1
644 1775 m 1
 703 1245 l 1
 595 1245 l 1
 451 1775 l 1
 644 1775 l 1
EndSplineSet
EndChar

StartChar: uni0202
Encoding: 514 514 257
Width: 1245
Flags: HW
HStem: 0 21G<0 212.047 1033.01 1245> 344 118<345 900> 1828 149<457.406 798.594>
LayerCount: 2
Fore
SplineSet
936 344 m 1
 310 344 l 1
 206 0 l 1
 0 0 l 1
 521 1513 l 1
 733 1513 l 1
 1245 0 l 1
 1039 0 l 1
 936 344 l 1
628 1309 m 1
 345 462 l 1
 900 462 l 1
 628 1309 l 1
628 1977 m 0
 816 1977 934 1892 992 1813 c 1
 911 1687 l 1
 849 1767 759 1828 628 1828 c 0
 497 1828 407 1767 345 1687 c 1
 264 1813 l 1
 322 1892 440 1977 628 1977 c 0
EndSplineSet
EndChar

StartChar: uni0203
Encoding: 515 515 258
Width: 1087
Flags: HW
HStem: -19 142<320.412 634.384> -3 146<904 1021> 482 121<362.03 742> 960 149<243.689 689.029> 1394 149<353.406 694.594>
VStem: 93 178<169.438 404.375> 742 182<184.897 482 603 902.626>
LayerCount: 2
Fore
SplineSet
742 482 m 1xbe
 580 482 l 2
 468 482 271 466 271 282 c 0
 271 174 344 123 471 123 c 0
 599 123 691 173 742 215 c 1
 742 482 l 1xbe
924 643 m 2
 924 233 l 2
 924 151 936 143 987 143 c 0
 1003 143 1021 144 1035 144 c 1
 1021 2 l 1
 1021 2 936 -3 904 -3 c 0x7e
 792 -3 755 84 755 123 c 1
 712 61 618 -19 407 -19 c 0
 219 -19 93 101 93 290 c 0
 93 541 329 603 568 603 c 2
 742 603 l 1
 742 701 l 2
 742 926 683 960 524 960 c 0
 383 960 262 925 178 893 c 1
 199 1049 l 1
 266 1077 368 1109 538 1109 c 0
 848 1109 924 985 924 643 c 2
524 1543 m 0
 712 1543 830 1458 888 1379 c 1
 807 1253 l 1
 745 1333 655 1394 524 1394 c 0
 393 1394 303 1333 241 1253 c 1
 160 1379 l 1
 218 1458 336 1543 524 1543 c 0
EndSplineSet
EndChar

StartChar: uni0204
Encoding: 516 516 259
Width: 1081
Flags: HW
HStem: 0 153<398 945> 706 146<398 829> 1360 153<398 946>
VStem: 199 199<153 706 852 1360>
LayerCount: 2
Fore
SplineSet
945 0 m 1
 199 0 l 1
 199 1513 l 1
 971 1513 l 1
 946 1360 l 1
 398 1360 l 1
 398 852 l 1
 829 852 l 1
 829 706 l 1
 398 706 l 1
 398 153 l 1
 969 153 l 1
 945 0 l 1
383 2209 m 1
 497 1679 l 1
 391 1679 l 1
 178 2209 l 1
 383 2209 l 1
689 2209 m 1
 748 1679 l 1
 640 1679 l 1
 496 2209 l 1
 689 2209 l 1
EndSplineSet
EndChar

StartChar: uni0205
Encoding: 517 517 260
Width: 1096
Flags: HW
HStem: -19 147<449.44 887.727> 522 118<305 824> 954 144<432.417 737.185>
VStem: 113 188<288.969 522 640 799.154> 826 167<643.74 863.016>
LayerCount: 2
Fore
SplineSet
948 194 m 1
 947 42 l 1
 879 13 772 -19 625 -19 c 0
 285 -19 113 164 113 528 c 0
 113 929 317.983577135 1098 592 1098 c 0
 857 1098 993 916.064755976 993 723 c 0
 993 662 985 550 976 522 c 1
 301 522 l 1
 301 514 l 2
 301 222 431 128 639 128 c 0
 778 128 871 167 948 194 c 1
596 954 m 0
 454 954 324 888 305 640 c 1
 824 640 l 1
 824 640 826 681 826 699 c 0
 820 878 726 954 596 954 c 0
406 1775 m 1
 520 1245 l 1
 414 1245 l 1
 201 1775 l 1
 406 1775 l 1
712 1775 m 1
 771 1245 l 1
 663 1245 l 1
 519 1775 l 1
 712 1775 l 1
EndSplineSet
EndChar

StartChar: uni0206
Encoding: 518 518 261
Width: 1081
Flags: HW
HStem: 0 153<398 945> 706 146<398 829> 1360 153<398 946> 1828 149<398.406 739.594>
VStem: 199 199<153 706 852 1360>
LayerCount: 2
Fore
SplineSet
945 0 m 1
 199 0 l 1
 199 1513 l 1
 971 1513 l 1
 946 1360 l 1
 398 1360 l 1
 398 852 l 1
 829 852 l 1
 829 706 l 1
 398 706 l 1
 398 153 l 1
 969 153 l 1
 945 0 l 1
569 1977 m 0
 757 1977 875 1892 933 1813 c 1
 852 1687 l 1
 790 1767 700 1828 569 1828 c 0
 438 1828 348 1767 286 1687 c 1
 205 1813 l 1
 263 1892 381 1977 569 1977 c 0
EndSplineSet
EndChar

StartChar: uni0207
Encoding: 519 519 262
Width: 1096
Flags: HW
HStem: -19 147<449.44 887.727> 522 118<305 824> 954 144<432.417 737.185> 1394 149<421.406 762.594>
VStem: 113 188<288.969 522 640 799.154> 826 167<643.74 863.016>
LayerCount: 2
Fore
SplineSet
948 194 m 1
 947 42 l 1
 879 13 772 -19 625 -19 c 0
 285 -19 113 164 113 528 c 0
 113 929 317.983577135 1098 592 1098 c 0
 857 1098 993 916.064755976 993 723 c 0
 993 662 985 550 976 522 c 1
 301 522 l 1
 301 514 l 2
 301 222 431 128 639 128 c 0
 778 128 871 167 948 194 c 1
596 954 m 0
 454 954 324 888 305 640 c 1
 824 640 l 1
 824 640 826 681 826 699 c 0
 820 878 726 954 596 954 c 0
592 1543 m 0
 780 1543 898 1458 956 1379 c 1
 875 1253 l 1
 813 1333 723 1394 592 1394 c 0
 461 1394 371 1333 309 1253 c 1
 228 1379 l 1
 286 1458 404 1543 592 1543 c 0
EndSplineSet
EndChar

StartChar: uni0208
Encoding: 520 520 263
Width: 694
Flags: HW
HStem: 0 21G<250 443>
VStem: 250 193<0 1513>
LayerCount: 2
Fore
SplineSet
443 0 m 1
 250 0 l 1
 250 1513 l 1
 443 1513 l 1
 443 0 l 1
162 2209 m 1
 276 1679 l 1
 170 1679 l 1
 -43 2209 l 1
 162 2209 l 1
468 2209 m 1
 527 1679 l 1
 419 1679 l 1
 275 2209 l 1
 468 2209 l 1
EndSplineSet
EndChar

StartChar: uni0209
Encoding: 521 521 264
Width: 492
Flags: HW
HStem: 0 21G<166 352>
VStem: 166 186<0 1075>
LayerCount: 2
Fore
SplineSet
352 0 m 1
 166 0 l 1
 166 1075 l 1
 352 1075 l 1
 352 0 l 1
166 1776 m 1
 280 1246 l 1
 174 1246 l 1
 -39 1776 l 1
 166 1776 l 1
472 1776 m 1
 531 1246 l 1
 423 1246 l 1
 279 1776 l 1
 472 1776 l 1
EndSplineSet
EndChar

StartChar: uni020A
Encoding: 522 522 265
Width: 694
Flags: HW
HStem: 0 21G<250 443> 1828 149<177.406 518.594>
VStem: 250 193<0 1513>
LayerCount: 2
Fore
SplineSet
443 0 m 1
 250 0 l 1
 250 1513 l 1
 443 1513 l 1
 443 0 l 1
348 1977 m 0
 536 1977 654 1892 712 1813 c 1
 631 1687 l 1
 569 1767 479 1828 348 1828 c 0
 217 1828 127 1767 65 1687 c 1
 -16 1813 l 1
 42 1892 160 1977 348 1977 c 0
EndSplineSet
EndChar

StartChar: uni020B
Encoding: 523 523 266
Width: 530
Flags: HW
HStem: 0 21G<166 352> 1394 149<94.4062 435.594>
VStem: 166 186<0 1075>
LayerCount: 2
Fore
SplineSet
352 0 m 1
 166 0 l 1
 166 1075 l 1
 352 1075 l 1
 352 0 l 1
265 1543 m 0
 453 1543 571 1458 629 1379 c 1
 548 1253 l 1
 486 1333 396 1394 265 1394 c 0
 134 1394 44 1333 -18 1253 c 1
 -99 1379 l 1
 -41 1458 77 1543 265 1543 c 0
EndSplineSet
EndChar

StartChar: uni020C
Encoding: 524 524 267
Width: 1520
Flags: HW
HStem: -25 159<563.589 955.731> 1384 158<563.8 955.731>
VStem: 126 201<428.617 1089.22> 1192 202<428.411 1089.22>
LayerCount: 2
Fore
SplineSet
327 760 m 0
 327 364 454 134 759 134 c 0
 1067 134 1192 364 1192 760 c 0
 1192 1153 1067 1384 759 1384 c 0
 455 1384 327 1153 327 760 c 0
126 760 m 0
 126 1288 349 1542 759 1542 c 0
 1172 1542 1394 1288 1394 760 c 0
 1394 226 1172 -25 759 -25 c 0
 349 -25 126 227 126 760 c 0
573 2209 m 1
 687 1679 l 1
 581 1679 l 1
 368 2209 l 1
 573 2209 l 1
879 2209 m 1
 938 1679 l 1
 830 1679 l 1
 686 2209 l 1
 879 2209 l 1
EndSplineSet
EndChar

StartChar: uni020D
Encoding: 525 525 268
Width: 1182
Flags: HW
HStem: -19 147<437.314 750.56> 949 149<427.789 758.748>
VStem: 113 188<282.648 806.426> 882 187<276.564 806.426>
LayerCount: 2
Fore
SplineSet
596 1098 m 0
 921 1098 1069 877 1069 537 c 0
 1069 208 921 -19 596 -19 c 0
 264 -19 113 208 113 537 c 0
 113 877 264 1098 596 1098 c 0
596 128 m 0
 815 128 882 297 882 539 c 0
 882 801 810 949 596 949 c 0
 370 949 301 801 301 539 c 0
 301 297 370 128 596 128 c 0
410 1775 m 1
 524 1245 l 1
 418 1245 l 1
 205 1775 l 1
 410 1775 l 1
716 1775 m 1
 775 1245 l 1
 667 1245 l 1
 523 1775 l 1
 716 1775 l 1
EndSplineSet
EndChar

StartChar: uni020E
Encoding: 526 526 269
Width: 1520
Flags: HW
HStem: -25 159<563.589 955.731> 1384 158<563.8 955.731> 1828 149<588.406 929.594>
VStem: 126 201<428.617 1089.22> 1192 202<428.411 1089.22>
LayerCount: 2
Fore
SplineSet
327 760 m 0
 327 364 454 134 759 134 c 0
 1067 134 1192 364 1192 760 c 0
 1192 1153 1067 1384 759 1384 c 0
 455 1384 327 1153 327 760 c 0
126 760 m 0
 126 1288 349 1542 759 1542 c 0
 1172 1542 1394 1288 1394 760 c 0
 1394 226 1172 -25 759 -25 c 0
 349 -25 126 227 126 760 c 0
759 1977 m 0
 947 1977 1065 1892 1123 1813 c 1
 1042 1687 l 1
 980 1767 890 1828 759 1828 c 0
 628 1828 538 1767 476 1687 c 1
 395 1813 l 1
 453 1892 571 1977 759 1977 c 0
EndSplineSet
EndChar

StartChar: uni020F
Encoding: 527 527 270
Width: 1182
Flags: HW
HStem: -19 147<437.314 750.56> 949 149<427.789 758.748> 1394 149<425.406 766.594>
VStem: 113 188<282.648 806.426> 882 187<276.564 806.426>
LayerCount: 2
Fore
SplineSet
596 1098 m 0
 921 1098 1069 877 1069 537 c 0
 1069 208 921 -19 596 -19 c 0
 264 -19 113 208 113 537 c 0
 113 877 264 1098 596 1098 c 0
596 128 m 0
 815 128 882 297 882 539 c 0
 882 801 810 949 596 949 c 0
 370 949 301 801 301 539 c 0
 301 297 370 128 596 128 c 0
596 1543 m 0
 784 1543 902 1458 960 1379 c 1
 879 1253 l 1
 817 1333 727 1394 596 1394 c 0
 465 1394 375 1333 313 1253 c 1
 232 1379 l 1
 290 1458 408 1543 596 1543 c 0
EndSplineSet
EndChar

StartChar: uni0210
Encoding: 528 528 271
Width: 1208
Flags: HW
HStem: 0 21G<199 397 990.013 1184> 632 147<397 562> 1368 145<397 796.787>
VStem: 199 198<0 632 779 1368> 909 182<878.049 1266.77>
LayerCount: 2
Fore
SplineSet
1184 60 m 1
 1184 0 l 1
 1004 0 l 1
 562 632 l 1
 397 632 l 1
 397 0 l 1
 199 0 l 1
 199 1513 l 1
 521 1513 l 2
 879 1513 1091 1436 1091 1082 c 0
 1091 759 913 673 749 651 c 1
 1184 60 l 1
397 1368 m 1
 397 779 l 1
 577 779 l 2
 826 779 909 850 909 1065 c 0
 909 1323 810 1368 469 1368 c 2
 397 1368 l 1
423 2209 m 1
 537 1679 l 1
 431 1679 l 1
 218 2209 l 1
 423 2209 l 1
729 2209 m 1
 788 1679 l 1
 680 1679 l 1
 536 2209 l 1
 729 2209 l 1
EndSplineSet
EndChar

StartChar: uni0211
Encoding: 529 529 272
Width: 817
Flags: HW
HStem: 0 21G<174 356> 939 159<467.031 774.046>
VStem: 174 182<0 875.122>
LayerCount: 2
Fore
SplineSet
664 1098 m 0
 712 1098 747 1085 776 1075 c 1
 775 925 l 1
 742 935 714 939 673 939 c 0
 528 939 418 889 356 851 c 1
 356 0 l 1
 174 0 l 1
 174 1079 l 1
 310 1090 l 1
 347 976 l 1
 437 1054 546 1098 664 1098 c 0
298 1775 m 1
 412 1245 l 1
 306 1245 l 1
 93 1775 l 1
 298 1775 l 1
604 1775 m 1
 663 1245 l 1
 555 1245 l 1
 411 1775 l 1
 604 1775 l 1
EndSplineSet
EndChar

StartChar: uni0212
Encoding: 530 530 273
Width: 1208
Flags: HW
HStem: 0 21G<199 397 990.013 1184> 632 147<397 562> 1368 145<397 796.787> 1828 149<438.406 779.594>
VStem: 199 198<0 632 779 1368> 909 182<878.049 1266.77>
LayerCount: 2
Fore
SplineSet
1184 60 m 1
 1184 0 l 1
 1004 0 l 1
 562 632 l 1
 397 632 l 1
 397 0 l 1
 199 0 l 1
 199 1513 l 1
 521 1513 l 2
 879 1513 1091 1436 1091 1082 c 0
 1091 759 913 673 749 651 c 1
 1184 60 l 1
397 1368 m 1
 397 779 l 1
 577 779 l 2
 826 779 909 850 909 1065 c 0
 909 1323 810 1368 469 1368 c 2
 397 1368 l 1
609 1977 m 0
 797 1977 915 1892 973 1813 c 1
 892 1687 l 1
 830 1767 740 1828 609 1828 c 0
 478 1828 388 1767 326 1687 c 1
 245 1813 l 1
 303 1892 421 1977 609 1977 c 0
EndSplineSet
EndChar

StartChar: uni0213
Encoding: 531 531 274
Width: 817
Flags: HW
HStem: 0 21G<174 356> 939 159<467.031 774.046> 1394 149<313.406 654.594>
VStem: 174 182<0 875.122>
LayerCount: 2
Fore
SplineSet
664 1098 m 0
 712 1098 747 1085 776 1075 c 1
 775 925 l 1
 742 935 714 939 673 939 c 0
 528 939 418 889 356 851 c 1
 356 0 l 1
 174 0 l 1
 174 1079 l 1
 310 1090 l 1
 347 976 l 1
 437 1054 546 1098 664 1098 c 0
484 1543 m 0
 672 1543 790 1458 848 1379 c 1
 767 1253 l 1
 705 1333 615 1394 484 1394 c 0
 353 1394 263 1333 201 1253 c 1
 120 1379 l 1
 178 1458 296 1543 484 1543 c 0
EndSplineSet
EndChar

StartChar: uni0214
Encoding: 532 532 275
Width: 1430
Flags: HW
HStem: -25 159<514.372 907.861>
VStem: 184 201<273.879 1513> 1045 200<285.001 1513>
LayerCount: 2
Fore
SplineSet
717 134 m 0
 936 134 1045 225 1045 540 c 2
 1045 1513 l 1
 1245 1513 l 1
 1245 526 l 2
 1245 93 1024 -25 718 -25 c 0
 401 -25 184 98 184 528 c 2
 184 1513 l 1
 385 1513 l 1
 385 540 l 2
 385 225 483 134 717 134 c 0
524 2209 m 1
 638 1679 l 1
 532 1679 l 1
 319 2209 l 1
 524 2209 l 1
830 2209 m 1
 889 1679 l 1
 781 1679 l 1
 637 2209 l 1
 830 2209 l 1
EndSplineSet
EndChar

StartChar: uni0215
Encoding: 533 533 276
Width: 1206
Flags: HW
HStem: -19 147<428.296 749.049>
VStem: 164 182<217.228 1079> 850 182<175.939 1079> 891 141<0 44.2821>
LayerCount: 2
Fore
SplineSet
1032 1079 m 1xe0
 1032 0 l 1
 891 -12 l 1xd0
 864 94 l 1
 806 44 691 -19 517 -19 c 0
 272 -19 164 132 164 461 c 2
 164 1079 l 1
 346 1079 l 1
 346 469 l 2
 346 224 406 128 562 128 c 0
 689 128 799 167 850 199 c 1
 850 1079 l 1
 1032 1079 l 1xe0
408 1775 m 1
 522 1245 l 1
 416 1245 l 1
 203 1775 l 1
 408 1775 l 1
714 1775 m 1
 773 1245 l 1
 665 1245 l 1
 521 1775 l 1
 714 1775 l 1
EndSplineSet
EndChar

StartChar: uni0216
Encoding: 534 534 277
Width: 1430
Flags: HW
HStem: -25 159<514.372 907.861> 1828 149<539.406 880.594>
VStem: 184 201<273.879 1513> 1045 200<285.001 1513>
LayerCount: 2
Fore
SplineSet
717 134 m 0
 936 134 1045 225 1045 540 c 2
 1045 1513 l 1
 1245 1513 l 1
 1245 526 l 2
 1245 93 1024 -25 718 -25 c 0
 401 -25 184 98 184 528 c 2
 184 1513 l 1
 385 1513 l 1
 385 540 l 2
 385 225 483 134 717 134 c 0
710 1977 m 0
 898 1977 1016 1892 1074 1813 c 1
 993 1687 l 1
 931 1767 841 1828 710 1828 c 0
 579 1828 489 1767 427 1687 c 1
 346 1813 l 1
 404 1892 522 1977 710 1977 c 0
EndSplineSet
EndChar

StartChar: uni0217
Encoding: 535 535 278
Width: 1206
Flags: HW
HStem: -19 147<428.296 749.049> 1394 149<423.406 764.594>
VStem: 164 182<217.228 1079> 850 182<175.939 1079> 891 141<0 44.2821>
LayerCount: 2
Fore
SplineSet
1032 1079 m 1xf0
 1032 0 l 1
 891 -12 l 1xe8
 864 94 l 1
 806 44 691 -19 517 -19 c 0
 272 -19 164 132 164 461 c 2
 164 1079 l 1
 346 1079 l 1
 346 469 l 2
 346 224 406 128 562 128 c 0
 689 128 799 167 850 199 c 1
 850 1079 l 1
 1032 1079 l 1xf0
594 1543 m 0
 782 1543 900 1458 958 1379 c 1
 877 1253 l 1
 815 1333 725 1394 594 1394 c 0
 463 1394 373 1333 311 1253 c 1
 230 1379 l 1
 288 1458 406 1543 594 1543 c 0
EndSplineSet
EndChar

StartChar: nacute
Encoding: 324 324 281
Width: 1206
Flags: HW
HStem: 0 21G<174 356 860 1042> 949 149<475.624 783.548>
VStem: 174 182<0 881.417> 860 182<0 862.172>
LayerCount: 2
Fore
SplineSet
174 0 m 1
 174 1079 l 1
 300 1079 l 1
 336 976 l 1
 401 1023 528 1098 697 1098 c 0
 912 1098 1042 980 1042 657 c 2
 1042 0 l 1
 860 0 l 1
 860 615 l 2
 860 847 800 949 659 949 c 0
 541 949 423 897 356 859 c 1
 356 0 l 1
 174 0 l 1
526 1216 m 1
 618 1797 l 1
 855 1797 l 1
 602 1216 l 1
 526 1216 l 1
EndSplineSet
EndChar

StartChar: uni00AD
Encoding: 173 173 282
Width: 1520
Flags: HW
HStem: 1248 141<449 1071>
VStem: 449 622<1248 1389>
LayerCount: 2
Fore
SplineSet
1071 1248 m 1
 449 1248 l 1
 449 1389 l 1
 1071 1389 l 1
 1071 1248 l 1
EndSplineSet
EndChar

StartChar: dotaccentcmb
Encoding: 775 775 283
Width: 421
Flags: HW
HStem: 1235 278<126.068 322.125>
VStem: 88 274<1273.12 1473.36>
LayerCount: 2
Fore
SplineSet
362 1375 m 0
 362 1302 302 1235 223 1235 c 0
 157 1235 88 1290 88 1375 c 0
 88 1449 147 1513 223 1513 c 0
 300 1513 362 1447 362 1375 c 0
EndSplineSet
EndChar

StartChar: dotlessj
Encoding: 567 567 284
Width: 530
Flags: HW
VStem: 179 193<-57.094 1079>
LayerCount: 2
Fore
SplineSet
179 1079 m 1
 372 1079 l 1
 372 140 l 2
 372 -85 282 -239 14 -343 c 1
 -44 -214 l 1
 121 -121 179 -42 179 160 c 2
 179 1079 l 1
EndSplineSet
EndChar

StartChar: Rcaron
Encoding: 344 344 286
Width: 1208
Flags: HW
HStem: 0 21G<199 397 990.013 1184> 632 147<397 562> 1368 145<397 796.787>
VStem: 199 198<0 632 779 1368> 909 182<878.049 1266.77>
LayerCount: 2
Fore
SplineSet
1184 60 m 1
 1184 0 l 1
 1004 0 l 1
 562 632 l 1
 397 632 l 1
 397 0 l 1
 199 0 l 1
 199 1513 l 1
 521 1513 l 2
 879 1513 1091 1436 1091 1082 c 0
 1091 759 913 673 749 651 c 1
 1184 60 l 1
397 1368 m 1
 397 779 l 1
 577 779 l 2
 826 779 909 850 909 1065 c 0
 909 1323 810 1368 469 1368 c 2
 397 1368 l 1
514 1683 m 1
 303 2204 l 1
 499 2204 l 1
 602 1812 l 1
 617 1812 l 1
 722 2204 l 1
 916 2204 l 1
 706 1683 l 1
 514 1683 l 1
EndSplineSet
EndChar

StartChar: commaaccent
Encoding: 63171 63171 287
Width: 441
Flags: HW
HStem: -567 85<158.109 218.334> -342 210<125 252>
VStem: 125 250<-338.088 -132> 252 123<-450.021 -342>
LayerCount: 2
Fore
SplineSet
125 -342 m 1xe0
 125 -132 l 1
 362 -115 l 1
 373 -203 375 -247 375 -297 c 0xe0
 375 -426 324 -521 163 -567 c 1
 134 -482 l 1
 213 -473 252 -417 252 -342 c 1xd0
 125 -342 l 1xe0
EndSplineSet
EndChar

StartChar: uogonek
Encoding: 371 371 290
Width: 1206
Flags: HW
HStem: -457 123<763.868 1029.4> -19 147<428.296 749.049>
VStem: 164 182<217.228 1079> 593 148<-308.066 -95.1881> 850 182<175.939 1079> 891 141<0 44.2821>
LayerCount: 2
Fore
SplineSet
1032 1079 m 1xf8
 1032 0 l 1
 891 -12 l 1xf4
 864 94 l 1
 806 44 691 -19 517 -19 c 0
 272 -19 164 132 164 461 c 2
 164 1079 l 1
 346 1079 l 1
 346 469 l 2
 346 224 406 128 562 128 c 0
 689 128 799 167 850 199 c 1
 850 1079 l 1
 1032 1079 l 1xf8
1031 -288 m 1
 1032 -414 l 1
 976 -442 911 -457 849 -457 c 0
 716 -457 593 -391 593 -243 c 0
 593 -57 753 30 901 66 c 1
 901 0 l 1
 797 -46 741 -124 741 -216 c 0
 741 -304 806 -334 876 -334 c 0
 935 -334 998 -313 1031 -288 c 1
EndSplineSet
EndChar

StartChar: umacron
Encoding: 363 363 291
Width: 1206
Flags: HW
HStem: -19 147<428.296 749.049> 1247 141<267 889>
VStem: 164 182<217.228 1079> 850 182<175.939 1079> 891 141<0 44.2821>
LayerCount: 2
Fore
SplineSet
1032 1079 m 1xf0
 1032 0 l 1
 891 -12 l 1xe8
 864 94 l 1
 806 44 691 -19 517 -19 c 0
 272 -19 164 132 164 461 c 2
 164 1079 l 1
 346 1079 l 1
 346 469 l 2
 346 224 406 128 562 128 c 0
 689 128 799 167 850 199 c 1
 850 1079 l 1
 1032 1079 l 1xf0
889 1247 m 1
 267 1247 l 1
 267 1388 l 1
 889 1388 l 1
 889 1247 l 1
EndSplineSet
EndChar

StartChar: iogonek
Encoding: 303 303 294
Width: 530
Flags: HW
HStem: -457 123<204.868 470.4> 0 21G<184 366> 1291 192<173 376>
VStem: 34 148<-308.066 -95.1881> 184 182<0 1079 1291 1483>
LayerCount: 2
Fore
SplineSet
173 1483 m 1
 376 1483 l 1
 376 1291 l 1
 173 1291 l 1
 173 1483 l 1
366 0 m 1
 184 0 l 1
 184 1079 l 1
 366 1079 l 1
 366 0 l 1
472 -288 m 1
 473 -414 l 1
 417 -442 352 -457 290 -457 c 0
 157 -457 34 -391 34 -243 c 0
 34 -57 194 30 342 66 c 1
 342 0 l 1
 238 -46 182 -124 182 -216 c 0
 182 -304 247 -334 317 -334 c 0
 376 -334 439 -313 472 -288 c 1
EndSplineSet
EndChar

StartChar: Rcommaaccent
Encoding: 342 342 298
Width: 1208
Flags: HW
HStem: -567 85<512.109 572.334> -342 210<479 606> 0 21G<199 397 990.013 1184> 632 147<397 562> 1368 145<397 796.787>
VStem: 199 198<0 632 779 1368> 479 250<-338.088 -132> 606 123<-450.021 -342> 909 182<878.049 1266.77>
LayerCount: 2
Fore
SplineSet
1184 60 m 1xfc80
 1184 0 l 1
 1004 0 l 1
 562 632 l 1
 397 632 l 1
 397 0 l 1
 199 0 l 1
 199 1513 l 1
 521 1513 l 2
 879 1513 1091 1436 1091 1082 c 0
 1091 759 913 673 749 651 c 1
 1184 60 l 1xfc80
397 1368 m 1
 397 779 l 1
 577 779 l 2
 826 779 909 850 909 1065 c 0
 909 1323 810 1368 469 1368 c 2
 397 1368 l 1
479 -342 m 1xfe80
 479 -132 l 1
 716 -115 l 1
 727 -203 729 -247 729 -297 c 0xfe80
 729 -426 678 -521 517 -567 c 1
 488 -482 l 1
 567 -473 606 -417 606 -342 c 1xfd80
 479 -342 l 1xfe80
EndSplineSet
EndChar

StartChar: ccircumflex
Encoding: 265 265 300
Width: 948
Flags: HW
HStem: -19 147<445.44 837.223> 950 148<446.975 832.524>
VStem: 115 188<288.667 789.454>
LayerCount: 2
Fore
SplineSet
115 533 m 0
 115 968 359 1098 591 1098 c 0
 716 1098 801 1073 852 1049 c 1
 852 897 l 1
 799 921 723 950 620 950 c 0
 418 950 303 830 303 536 c 0
 303 250 420 128 620 128 c 0
 724 128 800 157 853 179 c 1
 853 29 l 1
 799 3 713 -19 587 -19 c 0
 354 -19 115 125 115 533 c 0
260 1234 m 1
 491 1753 l 1
 690 1753 l 1
 924 1234 l 1
 717 1234 l 1
 596 1621 l 1
 584 1621 l 1
 466 1234 l 1
 260 1234 l 1
EndSplineSet
EndChar

StartChar: kcommaaccent
Encoding: 311 311 301
Width: 1016
Flags: HW
HStem: -567 85<416.109 476.334> -342 210<383 510> 0 21G<174 356 805.386 1008>
VStem: 174 182<0 418 594 1494> 383 250<-338.088 -132> 510 123<-450.021 -342>
LayerCount: 2
Fore
SplineSet
1008 37 m 1xf0
 1008 0 l 1
 819 0 l 1
 463 523 l 1
 356 418 l 1
 356 0 l 1
 174 0 l 1
 174 1494 l 1
 356 1513 l 1
 356 594 l 1
 778 1079 l 1
 973 1079 l 1
 973 1038 l 1
 592 621 l 1
 1008 37 l 1xf0
383 -342 m 1xf8
 383 -132 l 1
 620 -115 l 1
 631 -203 633 -247 633 -297 c 0xf8
 633 -426 582 -521 421 -567 c 1
 392 -482 l 1
 471 -473 510 -417 510 -342 c 1xf4
 383 -342 l 1xf8
EndSplineSet
EndChar

StartChar: jcircumflex
Encoding: 309 309 302
Width: 530
Flags: HW
VStem: 179 193<-57.094 1079>
LayerCount: 2
Fore
SplineSet
179 1079 m 1
 372 1079 l 1
 372 140 l 2
 372 -85 282 -239 14 -343 c 1
 -44 -214 l 1
 121 -121 179 -42 179 160 c 2
 179 1079 l 1
-67 1234 m 1
 164 1753 l 1
 363 1753 l 1
 597 1234 l 1
 390 1234 l 1
 269 1621 l 1
 257 1621 l 1
 139 1234 l 1
 -67 1234 l 1
EndSplineSet
EndChar

StartChar: rcommaaccent
Encoding: 343 343 304
Width: 817
Flags: HW
HStem: -567 85<183.109 243.334> -342 210<150 277> 0 21G<174 356> 939 159<467.031 774.046>
VStem: 150 250<-338.088 -132> 174 182<0 875.122> 277 123<-450.021 -342>
LayerCount: 2
Fore
SplineSet
664 1098 m 0xf4
 712 1098 747 1085 776 1075 c 1
 775 925 l 1
 742 935 714 939 673 939 c 0
 528 939 418 889 356 851 c 1
 356 0 l 1
 174 0 l 1
 174 1079 l 1
 310 1090 l 1
 347 976 l 1
 437 1054 546 1098 664 1098 c 0xf4
150 -342 m 1xf8
 150 -132 l 1
 387 -115 l 1
 398 -203 400 -247 400 -297 c 0xf8
 400 -426 349 -521 188 -567 c 1
 159 -482 l 1
 238 -473 277 -417 277 -342 c 1xf2
 150 -342 l 1xf8
EndSplineSet
EndChar

StartChar: rcaron
Encoding: 345 345 305
Width: 817
Flags: HW
HStem: 0 21G<174 356> 939 159<467.031 774.046>
VStem: 174 182<0 875.122>
LayerCount: 2
Fore
SplineSet
664 1098 m 0
 712 1098 747 1085 776 1075 c 1
 775 925 l 1
 742 935 714 939 673 939 c 0
 528 939 418 889 356 851 c 1
 356 0 l 1
 174 0 l 1
 174 1079 l 1
 310 1090 l 1
 347 976 l 1
 437 1054 546 1098 664 1098 c 0
389 1249 m 1
 178 1770 l 1
 374 1770 l 1
 477 1378 l 1
 492 1378 l 1
 597 1770 l 1
 791 1770 l 1
 581 1249 l 1
 389 1249 l 1
EndSplineSet
EndChar

StartChar: Zacute
Encoding: 377 377 307
Width: 1104
Flags: HW
HStem: 0 155<283 983> 1355 158<105 833>
LayerCount: 2
Fore
SplineSet
100 0 m 1
 84 164 l 1
 600 1024 l 1
 833 1360 l 1
 620 1355 l 1
 80 1355 l 1
 105 1513 l 1
 1005 1513 l 1
 1022 1340 l 1
 400 306 l 1
 283 148 l 1
 497 155 l 1
 1007 155 l 1
 983 0 l 1
 100 0 l 1
503 1650 m 1
 595 2231 l 1
 832 2231 l 1
 579 1650 l 1
 503 1650 l 1
EndSplineSet
EndChar

StartChar: Zdotaccent
Encoding: 379 379 309
Width: 1104
Flags: HW
HStem: 0 155<283 983> 1355 158<105 833> 1669 278<442.068 638.125>
VStem: 404 274<1707.12 1907.36>
LayerCount: 2
Fore
SplineSet
100 0 m 1
 84 164 l 1
 600 1024 l 1
 833 1360 l 1
 620 1355 l 1
 80 1355 l 1
 105 1513 l 1
 1005 1513 l 1
 1022 1340 l 1
 400 306 l 1
 283 148 l 1
 497 155 l 1
 1007 155 l 1
 983 0 l 1
 100 0 l 1
678 1809 m 0
 678 1736 618 1669 539 1669 c 0
 473 1669 404 1724 404 1809 c 0
 404 1883 463 1947 539 1947 c 0
 616 1947 678 1881 678 1809 c 0
EndSplineSet
EndChar

StartChar: sacute
Encoding: 347 347 311
Width: 924
Flags: HW
HStem: -20 153<179.314 600.454> 947 151<322.181 751.606>
VStem: 106 180<709.815 910.329> 649 183<181.682 401.891>
LayerCount: 2
Fore
SplineSet
106 808 m 0
 106 1029 300 1098 484 1098 c 0
 585 1098 687 1080 762 1054 c 1
 762 899 l 1
 712 914 602 947 485 947 c 0
 381 947 286 929 286 804 c 0
 286 715 331 692 516 639 c 0
 747 574 832 485 832 287 c 0
 832 68 649 -20 437 -20 c 0
 324 -20 205 6 98 50 c 1
 97 209 l 1
 140 188 287 133 425 133 c 0
 547 133 649 161 649 290 c 0
 649 394 601.492424513 433.757969227 401 490 c 0
 216.492424513 541.757969227 106 610 106 808 c 0
448 1216 m 1
 540 1797 l 1
 777 1797 l 1
 524 1216 l 1
 448 1216 l 1
EndSplineSet
EndChar

StartChar: tcommaaccent
Encoding: 355 355 312
Width: 694
Flags: HW
HStem: -567 85<342.109 402.334> -342 210<309 436> -19 139<419.378 652.551> 970 109<33 211 393 646> 1427 20G<297.097 390>
VStem: 211 182<141.305 970 1079 1217.04> 246 144<1237.07 1416> 309 250<-338.088 -132> 436 123<-450.021 -342>
LayerCount: 2
Fore
SplineSet
472 -19 m 0xfc
 282 -19 211 67 211 355 c 2
 211 970 l 1xfc
 33 970 l 1
 33 1079 l 1
 219 1079 l 1
 246 1416 l 1
 390 1447 l 1
 390 1079 l 1xfa
 646 1079 l 1
 646 970 l 1
 393 970 l 1
 393 314 l 2
 393 162 419 120 522 120 c 0
 560 120 583 124 655 139 c 1
 655 3 l 1
 622 -9 572 -19 472 -19 c 0xfc
309 -342 m 1xf9
 309 -132 l 1
 546 -115 l 1
 557 -203 559 -247 559 -297 c 0xf9
 559 -426 508 -521 347 -567 c 1
 318 -482 l 1
 397 -473 436 -417 436 -342 c 1xf880
 309 -342 l 1xf9
EndSplineSet
EndChar

StartChar: Tcommaaccent
Encoding: 354 354 313
Width: 1063
Flags: HW
HStem: -567 85<437.109 497.334> -342 210<404 531> 0 21G<431 628> 1362 151<20 431 628 1020>
VStem: 404 250<-338.088 -132> 431 197<0 1362> 531 123<-450.021 -342>
LayerCount: 2
Fore
SplineSet
1020 1362 m 1xf4
 628 1362 l 1
 628 0 l 1
 431 0 l 1
 431 1362 l 1
 20 1362 l 1
 20 1513 l 1
 1045 1513 l 1
 1020 1362 l 1xf4
404 -342 m 1xf8
 404 -132 l 1
 641 -115 l 1
 652 -203 654 -247 654 -297 c 0xf8
 654 -426 603 -521 442 -567 c 1
 413 -482 l 1
 492 -473 531 -417 531 -342 c 1xf2
 404 -342 l 1xf8
EndSplineSet
EndChar

StartChar: scommaaccent
Encoding: 65540 -1 314
Width: 924
Flags: HW
HStem: -567 85<370.109 430.334> -342 210<337 464> -20 153<179.314 600.454> 947 151<322.181 751.606>
VStem: 106 180<709.815 910.329> 337 250<-338.088 -132> 464 123<-450.021 -342> 649 183<181.682 401.891>
LayerCount: 2
Fore
SplineSet
106 808 m 0xf9
 106 1029 300 1098 484 1098 c 0
 585 1098 687 1080 762 1054 c 1
 762 899 l 1
 712 914 602 947 485 947 c 0
 381 947 286 929 286 804 c 0
 286 715 331 692 516 639 c 0
 747 574 832 485 832 287 c 0
 832 68 649 -20 437 -20 c 0
 324 -20 205 6 98 50 c 1
 97 209 l 1
 140 188 287 133 425 133 c 0
 547 133 649 161 649 290 c 0
 649 394 601.492424513 433.757969227 401 490 c 0
 216.492424513 541.757969227 106 610 106 808 c 0xf9
337 -342 m 1xfd
 337 -132 l 1
 574 -115 l 1
 585 -203 587 -247 587 -297 c 0xfd
 587 -426 536 -521 375 -567 c 1
 346 -482 l 1
 425 -473 464 -417 464 -342 c 1xfb
 337 -342 l 1xfd
EndSplineSet
EndChar

StartChar: Scommaaccent
Encoding: 65541 -1 315
Width: 1063
Flags: HW
HStem: -567 85<427.109 487.334> -342 210<394 521> -25 161<252.02 677.051> 1380 162<373.744 805.379>
VStem: 105 190<1008.92 1294.15> 394 250<-338.088 -132> 521 123<-450.021 -342> 773 196<230.944 570.852>
LayerCount: 2
Fore
SplineSet
560 1542 m 0xfb
 680 1542 792 1519 897 1483 c 1
 897 1301 l 1
 822 1336 679 1380 548 1380 c 0
 409 1380 295 1331 295 1142 c 0
 295 1015 361.184222302 957.84745133 570 879 c 0
 843.184222302 775.84745133 969 709 969 396 c 0
 969 92 766 -25 521 -25 c 0
 384 -25 237 4 104 53 c 1
 106 235 l 1
 212 184 377 136 519 136 c 0
 658 136 773 200 773 400 c 0
 773 579 710 635 469 722 c 0
 212 814 105 908.997881365 105 1145 c 0
 105 1448 334 1542 560 1542 c 0xfb
394 -342 m 1xfd
 394 -132 l 1
 631 -115 l 1
 642 -203 644 -247 644 -297 c 0xfd
 644 -426 593 -521 432 -567 c 1
 403 -482 l 1
 482 -473 521 -417 521 -342 c 1xfb
 394 -342 l 1xfd
EndSplineSet
EndChar

StartChar: ij
Encoding: 307 307 316
Width: 1060
Flags: HW
HStem: 0 21G<184 366> 1291 192<173 376 713 906>
VStem: 184 182<0 1079 1291 1483> 720 182<-50.7776 1079 1291 1483>
LayerCount: 2
Fore
SplineSet
173 1483 m 1
 376 1483 l 1
 376 1291 l 1
 173 1291 l 1
 173 1483 l 1
366 0 m 1
 184 0 l 1
 184 1079 l 1
 366 1079 l 1
 366 0 l 1
720 1079 m 1
 902 1079 l 1
 902 140 l 2
 902 -85 812 -239 544 -343 c 1
 486 -214 l 1
 651 -121 720 -42 720 160 c 2
 720 1079 l 1
713 1483 m 1
 906 1483 l 1
 906 1291 l 1
 713 1291 l 1
 713 1483 l 1
EndSplineSet
EndChar

StartChar: IJ
Encoding: 306 306 317
Width: 1249
Flags: HW
HStem: -85 141<661 843.081> 0 21G<250 443>
VStem: 250 193<0 1513> 925 197<136.43 1513>
LayerCount: 2
Fore
SplineSet
443 0 m 1x70
 250 0 l 1
 250 1513 l 1
 443 1513 l 1
 443 0 l 1x70
661 -85 m 1xb0
 644.196288423 -38.1370449102 627.530167209 8.86350054189 611 56 c 1
 901 56 925 122 925 420 c 2
 925 1513 l 1
 1122 1513 l 1
 1122 324 l 1
 1121 95 1037 -85 661 -85 c 1xb0
EndSplineSet
EndChar

StartChar: Imacron
Encoding: 298 298 319
Width: 694
Flags: HW
HStem: 0 21G<250 443> 1681 141<21 643>
VStem: 250 193<0 1513>
LayerCount: 2
Fore
SplineSet
443 0 m 1
 250 0 l 1
 250 1513 l 1
 443 1513 l 1
 443 0 l 1
643 1681 m 1
 21 1681 l 1
 21 1822 l 1
 643 1822 l 1
 643 1681 l 1
EndSplineSet
EndChar

StartChar: eogonek
Encoding: 281 281 321
Width: 1096
Flags: HW
HStem: -457 123<724.868 990.4> -19 147<449.44 742.981> 522 118<305 824> 954 144<432.417 737.185>
VStem: 113 188<288.969 522 640 799.154> 554 148<-308.066 -95.1881> 826 167<643.74 863.016>
LayerCount: 2
Fore
SplineSet
948 194 m 1
 947 42 l 1
 879 13 772 -19 625 -19 c 0
 285 -19 113 164 113 528 c 0
 113 929 317.983577135 1098 592 1098 c 0
 857 1098 993 916.064755976 993 723 c 0
 993 662 985 550 976 522 c 1
 301 522 l 1
 301 514 l 2
 301 222 431 128 639 128 c 0
 778 128 871 167 948 194 c 1
596 954 m 0
 454 954 324 888 305 640 c 1
 824 640 l 1
 824 640 826 681 826 699 c 0
 820 878 726 954 596 954 c 0
992 -288 m 1
 993 -414 l 1
 937 -442 872 -457 810 -457 c 0
 677 -457 554 -391 554 -243 c 0
 554 -57 714 30 862 66 c 1
 862 0 l 1
 758 -46 702 -124 702 -216 c 0
 702 -304 767 -334 837 -334 c 0
 896 -334 959 -313 992 -288 c 1
EndSplineSet
EndChar

StartChar: emacron
Encoding: 275 275 323
Width: 1096
Flags: HW
HStem: -19 147<449.44 887.727> 522 118<305 824> 954 144<432.417 737.185> 1247 141<265 887>
VStem: 113 188<288.969 522 640 799.154> 826 167<643.74 863.016>
LayerCount: 2
Fore
SplineSet
948 194 m 1
 947 42 l 1
 879 13 772 -19 625 -19 c 0
 285 -19 113 164 113 528 c 0
 113 929 317.983577135 1098 592 1098 c 0
 857 1098 993 916.064755976 993 723 c 0
 993 662 985 550 976 522 c 1
 301 522 l 1
 301 514 l 2
 301 222 431 128 639 128 c 0
 778 128 871 167 948 194 c 1
596 954 m 0
 454 954 324 888 305 640 c 1
 824 640 l 1
 824 640 826 681 826 699 c 0
 820 878 726 954 596 954 c 0
887 1247 m 1
 265 1247 l 1
 265 1388 l 1
 887 1388 l 1
 887 1247 l 1
EndSplineSet
EndChar

StartChar: amacron
Encoding: 257 257 325
Width: 1087
Flags: HW
HStem: -19 142<320.412 634.384> -3 146<904 1021> 482 121<362.03 742> 960 149<243.689 689.029> 1247 141<197 819>
VStem: 93 178<169.438 404.375> 742 182<184.897 482 603 902.626>
LayerCount: 2
Fore
SplineSet
742 482 m 1xbe
 580 482 l 2
 468 482 271 466 271 282 c 0
 271 174 344 123 471 123 c 0
 599 123 691 173 742 215 c 1
 742 482 l 1xbe
924 643 m 2
 924 233 l 2
 924 151 936 143 987 143 c 0
 1003 143 1021 144 1035 144 c 1
 1021 2 l 1
 1021 2 936 -3 904 -3 c 0x7e
 792 -3 755 84 755 123 c 1
 712 61 618 -19 407 -19 c 0
 219 -19 93 101 93 290 c 0
 93 541 329 603 568 603 c 2
 742 603 l 1
 742 701 l 2
 742 926 683 960 524 960 c 0
 383 960 262 925 178 893 c 1
 199 1049 l 1
 266 1077 368 1109 538 1109 c 0
 848 1109 924 985 924 643 c 2
819 1247 m 1
 197 1247 l 1
 197 1388 l 1
 819 1388 l 1
 819 1247 l 1
EndSplineSet
EndChar

StartChar: aogonek
Encoding: 261 261 326
Width: 1087
Flags: HW
HStem: -457 123<766.868 1032.4> -19 142<320.412 634.384> -3 146<904 1021> 482 121<362.03 742> 960 149<243.689 689.029>
VStem: 93 178<169.438 404.375> 596 148<-308.066 -95.1881> 742 182<184.897 482 603 902.626>
LayerCount: 2
Fore
SplineSet
742 482 m 1xdd
 580 482 l 2
 468 482 271 466 271 282 c 0
 271 174 344 123 471 123 c 0
 599 123 691 173 742 215 c 1
 742 482 l 1xdd
924 643 m 2
 924 233 l 2
 924 151 936 143 987 143 c 0
 1003 143 1021 144 1035 144 c 1
 1021 2 l 1
 1021 2 936 -3 904 -3 c 0xbd
 792 -3 755 84 755 123 c 1
 712 61 618 -19 407 -19 c 0
 219 -19 93 101 93 290 c 0
 93 541 329 603 568 603 c 2
 742 603 l 1
 742 701 l 2
 742 926 683 960 524 960 c 0
 383 960 262 925 178 893 c 1
 199 1049 l 1
 266 1077 368 1109 538 1109 c 0
 848 1109 924 985 924 643 c 2
1034 -288 m 1
 1035 -414 l 1
 979 -442 914 -457 852 -457 c 0
 719 -457 596 -391 596 -243 c 0
 596 -57 756 30 904 66 c 1
 904 0 l 1
 800 -46 744 -124 744 -216 c 0x9e
 744 -304 809 -334 879 -334 c 0
 938 -334 1001 -313 1034 -288 c 1
EndSplineSet
EndChar

StartChar: Abreve
Encoding: 258 258 329
Width: 1245
Flags: HW
HStem: 0 21G<0 212.047 1033.01 1245> 344 118<345 900> 1687 149<457.406 798.594>
LayerCount: 2
Fore
SplineSet
936 344 m 1
 310 344 l 1
 206 0 l 1
 0 0 l 1
 521 1513 l 1
 733 1513 l 1
 1245 0 l 1
 1039 0 l 1
 936 344 l 1
628 1309 m 1
 345 462 l 1
 900 462 l 1
 628 1309 l 1
628 1687 m 0
 440 1687 322 1772 264 1851 c 1
 345 1977 l 1
 407 1897 497 1836 628 1836 c 0
 759 1836 849 1897 911 1977 c 1
 992 1851 l 1
 934 1772 816 1687 628 1687 c 0
EndSplineSet
EndChar

StartChar: Cacute
Encoding: 262 262 331
Width: 1235
Flags: HW
HStem: -25 159<564.803 1061.53> 1384 158<578.569 1083.91>
VStem: 125 209<420.392 1099.29>
LayerCount: 2
Fore
SplineSet
779 -25 m 0
 406 -25 125 159 125 766 c 0
 125 1350 411 1542 800 1542 c 0
 961 1542 1076 1508 1149 1479 c 1
 1148 1316 l 1
 1068 1349 954 1384 792 1384 c 0
 507.971832383 1384 334 1235 334 768 c 0
 334 302.990322681 481 134 782 134 c 0
 945 134 1059 173 1148 210 c 1
 1148 45 l 1
 1067 11 953 -25 779 -25 c 0
736 1650 m 1
 828 2231 l 1
 1065 2231 l 1
 812 1650 l 1
 736 1650 l 1
EndSplineSet
EndChar

StartChar: Ccaron
Encoding: 268 268 332
Width: 1235
Flags: HW
HStem: -25 159<564.803 1061.53> 1384 158<578.569 1083.91>
VStem: 125 209<420.392 1099.29>
LayerCount: 2
Fore
SplineSet
779 -25 m 0
 406 -25 125 159 125 766 c 0
 125 1350 411 1542 800 1542 c 0
 961 1542 1076 1508 1149 1479 c 1
 1148 1316 l 1
 1068 1349 954 1384 792 1384 c 0
 507.971832383 1384 334 1235 334 768 c 0
 334 302.990322681 481 134 782 134 c 0
 945 134 1059 173 1148 210 c 1
 1148 45 l 1
 1067 11 953 -25 779 -25 c 0
677 1683 m 1
 466 2204 l 1
 662 2204 l 1
 765 1812 l 1
 780 1812 l 1
 885 2204 l 1
 1079 2204 l 1
 869 1683 l 1
 677 1683 l 1
EndSplineSet
EndChar

StartChar: hbar
Encoding: 295 295 334
Width: 1206
Flags: HW
HStem: 0 21G<174 356 860 1042> 950 148<465.734 780.97> 1182 141<-1 174 356 621>
VStem: 174 182<0 881.545 997 1182 1323 1494> 860 182<0 855.536>
LayerCount: 2
Fore
SplineSet
174 1323 m 1
 174 1494 l 1
 356 1513 l 1
 356 1323 l 1
 621 1323 l 1
 621 1182 l 1
 356 1182 l 1
 356 997 l 1
 465 1062 562 1098 696 1098 c 0
 941 1098 1042 960 1042 607 c 2
 1042 0 l 1
 860 0 l 1
 860 592 l 2
 860 878 786 950 652 950 c 0
 529 950 402 883 356 859 c 1
 356 0 l 1
 174 0 l 1
 174 1182 l 1
 -1 1182 l 1
 -1 1323 l 1
 174 1323 l 1
EndSplineSet
EndChar

StartChar: kgreenlandic
Encoding: 312 312 336
Width: 1016
Flags: HW
HStem: 0 21G<174 356 805.121 1008>
VStem: 174 182<0 408 584 1079>
LayerCount: 2
Fore
SplineSet
1008 37 m 1
 1008 0 l 1
 819 0 l 1
 463 513 l 1
 356 408 l 1
 356 0 l 1
 174 0 l 1
 174 1079 l 1
 356 1079 l 1
 356 584 l 1
 778 1079 l 1
 973 1079 l 1
 973 1038 l 1
 592 611 l 1
 1008 37 l 1
EndSplineSet
EndChar

StartChar: Gcedilla
Encoding: 290 290 337
Width: 1413
Flags: HW
HStem: -567 85<669.109 729.334> -342 210<636 763> -25 159<558.212 964.98> 4 21G<1150.75 1266> 641 141<813 1099> 1384 158<585.767 1103.98>
VStem: 125 209<416.496 1096.69> 636 250<-338.088 -132> 763 123<-450.021 -342> 1099 167<230.204 641> 1157 109<4 49.8752>
LayerCount: 2
Fore
SplineSet
1266 4 m 1xde20
 1157 4 l 1xde20
 1117 132 l 1
 1063 64 950 -25 726 -25 c 0
 389 -25 125 196 125 759 c 0
 125 1367 445 1542 790 1542 c 0
 975 1542 1108 1508 1203 1473 c 1
 1202 1306 l 1
 1112 1340 983 1384 795 1384 c 0
 496 1384 334 1197 334 789 c 0
 334 350 451 134 745 134 c 0
 928 134 1040 210 1099 266 c 1
 1099 641 l 1xee40
 813 641 l 1
 793 782 l 1
 1266 782 l 1
 1266 4 l 1xde20
636 -342 m 1xcf
 636 -132 l 1
 873 -115 l 1
 884 -203 886 -247 886 -297 c 0xcf
 886 -426 835 -521 674 -567 c 1
 645 -482 l 1
 724 -473 763 -417 763 -342 c 1xce80
 636 -342 l 1xcf
EndSplineSet
EndChar

StartChar: gcedilla
Encoding: 291 291 338
Width: 1165
Flags: HW
HStem: -440 143<304.461 732.778> 0 147<422.828 755.096> 949 149<419.019 721.767> 1229 210<567 694> 1579 85<600.666 660.891>
VStem: 113 188<290.936 806.364> 444 250<1229 1435.09> 444 123<1439 1547.02> 809 182<-207.926 76 186.02 891.142>
LayerCount: 2
Fore
SplineSet
694 1439 m 1xfe80
 694 1229 l 1
 457 1212 l 1
 446 1300 444 1344 444 1394 c 0xfe80
 444 1523 495 1618 656 1664 c 1
 685 1579 l 1
 606 1570 567 1514 567 1439 c 1xfd80
 694 1439 l 1xfe80
301 -394 m 1
 300 -253 l 1
 360 -272 443 -297 561 -297 c 0
 740 -297 809 -248 809 56 c 2
 809 76 l 1
 760 42 675 0 532 0 c 0
 318 0 113 156 113 536 c 0
 113 929 269 1098 533 1098 c 0
 692 1098 792 1014 830 981 c 1
 865 1086 l 1
 991 1086 l 1
 991 86 l 2
 991 -302 896 -440 577 -440 c 0
 430 -440 348 -416 301 -394 c 1
569 147 m 0
 689 147 765 182 809 211 c 1
 809 866 l 1
 758 899 667 949 563 949 c 0
 366 949 301 786 301 548 c 0
 301 301 378 148 569 147 c 0
EndSplineSet
EndChar

StartChar: uni01C7
Encoding: 455 455 342
Width: 1561
Flags: HW
HStem: 0 150<393 923> 0 56<923 950>
VStem: 199 194<150 1513> 1237 197<136.43 1513>
LayerCount: 2
Fore
SplineSet
950 0 m 1x70
 199 0 l 1x70
 199 1513 l 1
 393 1513 l 1
 393 150 l 1
 968 150 l 1xb0
 950 0 l 1x70
973 -85 m 1
 956.196288423 -38.1370449102 939.530167209 8.86350054189 923 56 c 1
 1213 56 1237 122 1237 420 c 2
 1237 1513 l 1
 1434 1513 l 1
 1434 324 l 1
 1433 95 1349 -85 973 -85 c 1
EndSplineSet
EndChar

StartChar: uni01C8
Encoding: 456 456 343
Width: 1536
Flags: HW
HStem: 0 150<393 950> 1291 192<1189 1382>
VStem: 199 194<150 1513> 1196 182<-50.7776 1079 1291 1483>
LayerCount: 2
Fore
SplineSet
950 0 m 1
 199 0 l 1
 199 1513 l 1
 393 1513 l 1
 393 150 l 1
 968 150 l 1
 950 0 l 1
1196 1079 m 1
 1378 1079 l 1
 1378 140 l 2
 1378 -85 1288 -239 1020 -343 c 1
 962 -214 l 1
 1127 -121 1196 -42 1196 160 c 2
 1196 1079 l 1
1189 1483 m 1
 1382 1483 l 1
 1382 1291 l 1
 1189 1291 l 1
 1189 1483 l 1
EndSplineSet
EndChar

StartChar: uni01C9
Encoding: 457 457 344
Width: 1060
Flags: HW
HStem: 0 21G<180 362> 1291 192<713 906>
VStem: 180 182<0 1494> 720 182<-50.7776 1079 1291 1483>
LayerCount: 2
Fore
SplineSet
180 0 m 1
 180 1494 l 1
 362 1513 l 1
 362 0 l 1
 180 0 l 1
720 1079 m 1
 902 1079 l 1
 902 140 l 2
 902 -85 812 -239 544 -343 c 1
 486 -214 l 1
 651 -121 720 -42 720 160 c 2
 720 1079 l 1
713 1483 m 1
 906 1483 l 1
 906 1291 l 1
 713 1291 l 1
 713 1483 l 1
EndSplineSet
EndChar

StartChar: uni01CA
Encoding: 458 458 345
Width: 2048
Flags: HW
HStem: -85 141<1460 1642.08> 0 21G<199 374 1092 1294>
VStem: 199 175<0 1209> 1118 176<304 1513> 1724 197<136.43 1513>
LayerCount: 2
Fore
SplineSet
1092 1 m 1x78
 374 1209 l 1
 374 0 l 1
 199 0 l 1
 199 1513 l 1
 409 1513 l 1
 1118 304 l 1
 1118 1513 l 1
 1294 1513 l 1
 1294 0 l 1
 1092 1 l 1x78
1460 -85 m 1xb8
 1443.19628842 -38.1370449102 1426.53016721 8.86350054189 1410 56 c 1
 1700 56 1724 122 1724 420 c 2
 1724 1513 l 1
 1921 1513 l 1
 1921 324 l 1
 1920 95 1836 -85 1460 -85 c 1xb8
EndSplineSet
EndChar

StartChar: uni01CB
Encoding: 459 459 346
Width: 2023
Flags: HW
HStem: 0 21G<199 374 1092 1294> 1291 192<1676 1869>
VStem: 199 175<0 1209> 1118 176<304 1513> 1683 182<-50.7776 1079 1291 1483>
LayerCount: 2
Fore
SplineSet
1092 1 m 1
 374 1209 l 1
 374 0 l 1
 199 0 l 1
 199 1513 l 1
 409 1513 l 1
 1118 304 l 1
 1118 1513 l 1
 1294 1513 l 1
 1294 0 l 1
 1092 1 l 1
1683 1079 m 1
 1865 1079 l 1
 1865 140 l 2
 1865 -85 1775 -239 1507 -343 c 1
 1449 -214 l 1
 1614 -121 1683 -42 1683 160 c 2
 1683 1079 l 1
1676 1483 m 1
 1869 1483 l 1
 1869 1291 l 1
 1676 1291 l 1
 1676 1483 l 1
EndSplineSet
EndChar

StartChar: uni01CC
Encoding: 460 460 347
Width: 1736
Flags: HW
HStem: 0 21G<174 356 860 1042> 949 149<475.624 783.548> 1291 192<1389 1582>
VStem: 174 182<0 881.417> 860 182<0 862.172> 1396 182<-50.7776 1079 1291 1483>
LayerCount: 2
Fore
SplineSet
174 0 m 1
 174 1079 l 1
 300 1079 l 1
 336 976 l 1
 401 1023 528 1098 697 1098 c 0
 912 1098 1042 980 1042 657 c 2
 1042 0 l 1
 860 0 l 1
 860 615 l 2
 860 847 800 949 659 949 c 0
 541 949 423 897 356 859 c 1
 356 0 l 1
 174 0 l 1
1396 1079 m 1
 1578 1079 l 1
 1578 140 l 2
 1578 -85 1488 -239 1220 -343 c 1
 1162 -214 l 1
 1327 -121 1396 -42 1396 160 c 2
 1396 1079 l 1
1389 1483 m 1
 1582 1483 l 1
 1582 1291 l 1
 1389 1291 l 1
 1389 1483 l 1
EndSplineSet
EndChar
